<svg width="38" height="29" viewBox="0 0 38 29" fill="none" xmlns="http://www.w3.org/2000/svg">
<g opacity="0.5">
<path d="M8.54615 11.1906C8.12815 11.1906 7.72701 11.2543 7.32774 11.3124C7.45708 10.8776 7.59017 10.4352 7.80386 10.0378C8.01755 9.46047 8.35121 8.95998 8.68299 8.45575C8.96041 7.91028 9.44965 7.54101 9.80955 7.07426C10.1863 6.62064 10.6999 6.31885 11.1067 5.94208C11.5059 5.54844 12.0289 5.35162 12.4451 5.0742C12.8799 4.82489 13.2586 4.54935 13.6635 4.41813L14.6738 4.002L15.5623 3.63273L14.6532 0L13.5341 0.269923C13.1761 0.359898 12.7394 0.464869 12.2426 0.590458C11.7346 0.684182 11.1929 0.940985 10.5893 1.17529C9.99325 1.44147 9.30344 1.62142 8.66237 2.0488C8.01755 2.45743 7.27339 2.79859 6.61732 3.34594C5.98187 3.91015 5.21521 4.39939 4.64912 5.11731C4.03054 5.78837 3.41947 6.49318 2.94522 7.29545C2.396 8.06024 2.02298 8.9 1.62934 9.73039C1.27319 10.5608 0.986399 11.4099 0.75209 12.2347C0.30784 13.888 0.109145 15.4588 0.032292 16.8028C-0.0314401 18.1487 0.0060494 19.2677 0.0847773 20.0775C0.112894 20.4599 0.16538 20.831 0.202869 21.0878L0.249731 21.4027L0.298467 21.3915C0.631863 22.9489 1.39935 24.38 2.51215 25.5194C3.62495 26.6588 5.03759 27.4599 6.58665 27.83C8.13571 28.2001 9.7579 28.124 11.2656 27.6107C12.7732 27.0973 14.1047 26.1676 15.1061 24.9292C16.1074 23.6907 16.7377 22.194 16.924 20.6123C17.1102 19.0305 16.8449 17.4284 16.1586 15.9912C15.4724 14.5539 14.3933 13.3404 13.0461 12.4908C11.699 11.6413 10.1388 11.1905 8.54615 11.1906ZM29.1654 11.1906C28.7474 11.1906 28.3462 11.2543 27.947 11.3124C28.0763 10.8776 28.2094 10.4352 28.4231 10.0378C28.6368 9.46047 28.9704 8.95998 29.3022 8.45575C29.5796 7.91028 30.0689 7.54101 30.4288 7.07426C30.8055 6.62064 31.3191 6.31885 31.7259 5.94208C32.1252 5.54844 32.6481 5.35162 33.0643 5.0742C33.4991 4.82489 33.8778 4.54935 34.2827 4.41813L35.293 4.002L36.1815 3.63273L35.2724 0L34.1533 0.269923C33.7953 0.359898 33.3586 0.464869 32.8618 0.590458C32.3538 0.684182 31.8121 0.940985 31.2085 1.17529C30.6143 1.44334 29.9227 1.62142 29.2816 2.05067C28.6368 2.45931 27.8926 2.80046 27.2365 3.34781C26.6011 3.91203 25.8344 4.40126 25.2683 5.11731C24.6498 5.78837 24.0387 6.49318 23.5644 7.29545C23.0152 8.06024 22.6422 8.9 22.2486 9.73039C21.8924 10.5608 21.6056 11.4099 21.3713 12.2347C20.9271 13.888 20.7284 15.4588 20.6515 16.8028C20.5878 18.1487 20.6253 19.2677 20.704 20.0775C20.7321 20.4599 20.7846 20.831 20.8221 21.0878L20.8689 21.4027L20.9177 21.3915C21.2511 22.9489 22.0186 24.38 23.1314 25.5194C24.2442 26.6588 25.6568 27.4599 27.2059 27.83C28.7549 28.2001 30.3771 28.124 31.8848 27.6107C33.3924 27.0973 34.7239 26.1676 35.7253 24.9292C36.7266 23.6907 37.3569 22.194 37.5432 20.6123C37.7294 19.0305 37.4641 17.4284 36.7779 15.9912C36.0916 14.5539 35.0125 13.3404 33.6653 12.4908C32.3182 11.6413 30.758 11.1905 29.1654 11.1906Z" fill="#DD6F77"/>
</g>
</svg>
