<svg xmlns="http://www.w3.org/2000/svg" xmlns:xlink="http://www.w3.org/1999/xlink"><defs><style>
    .sprite-symbol-usage {display: none;}
    .sprite-symbol-usage:target {display: inline;}
  </style><symbol viewBox="0 0 10 11.5" id="arrow_d"><path d="m5.32 11.37 4.52-4.59a.46.46 0 0 0 .05-.64.45.45 0 0 0-.63-.06h-.05L5.45 9.94V.46A.45.45 0 0 0 5 0a.44.44 0 0 0-.49.4.14.14 0 0 0 0 .09v9.45L.8 6.14a.45.45 0 0 0-.63-.06.46.46 0 0 0 0 .64h.05l4.53 4.59a.44.44 0 0 0 .63 0Z" /></symbol><symbol viewBox="0 0 26 18" id="arrow_left"><path d="M.24 8.43 8.42.28A.82.82 0 0 1 9.57.2a.81.81 0 0 1 .1 1.14l-.09.09-6.79 6.76h22.39a.81.81 0 1 1 0 1.62H2.79l6.78 6.75a.81.81 0 0 1 .1 1.15.82.82 0 0 1-1.15.09l-.09-.09L.24 9.57a.81.81 0 0 1 0-1.14Z" /></symbol><symbol viewBox="0 0 81 26" id="arrow_left_long"><path d="M.34 12.17 11.93.41a1.14 1.14 0 0 1 1.61-.14 1.19 1.19 0 0 1 .13 1.66.8.8 0 0 1-.13.13L4 11.83h75.84a1.18 1.18 0 0 1 0 2.35H4l9.61 9.75a1.19 1.19 0 0 1 .13 1.66 1.15 1.15 0 0 1-1.62.14L12 25.6.34 13.83a1.19 1.19 0 0 1 0-1.66Z" fill="#fff" /></symbol><symbol viewBox="0 0 81 26" id="arrow_right_long"><path d="M80.66 12.17 69.07.41a1.14 1.14 0 0 0-1.61-.14 1.19 1.19 0 0 0-.13 1.66.8.8 0 0 0 .13.13l9.61 9.76H1.16a1.18 1.18 0 1 0 0 2.35h75.89l-9.61 9.75a1.19 1.19 0 0 0-.13 1.66 1.15 1.15 0 0 0 1.62.14l.12-.13 11.61-11.76a1.19 1.19 0 0 0 0-1.66Z" fill="#fff" /></symbol><symbol viewBox="0 0 12 12" id="close"><path d="m11 0 .78.75-5 5.14L12 11.26l-.74.74L6 6.64.74 12 0 11.25l5.26-5.36L.23.76 1 0l5 5.14Z" /></symbol><symbol viewBox="0 0 24.49 5.25" id="dots"><path d="M21.71 0a2.69 2.69 0 0 1 2.78 2.65 2.66 2.66 0 0 1-2.78 2.6A2.6 2.6 0 0 1 19 2.65 2.64 2.64 0 0 1 21.71 0Zm-9.49 0A2.7 2.7 0 0 1 15 2.65a2.66 2.66 0 0 1-2.78 2.6 2.62 2.62 0 0 1-2.73-2.6A2.65 2.65 0 0 1 12.22 0ZM2.73 0A2.69 2.69 0 0 1 5.5 2.65a2.65 2.65 0 0 1-2.77 2.6A2.64 2.64 0 0 1 0 2.65 2.68 2.68 0 0 1 2.73 0Z" /></symbol><symbol viewBox="0 0 20 20" id="filter"><path d="M2.5 9.38a1.25 1.25 0 0 1 0-2.5 1.25 1.25 0 0 1 0 2.5Zm.63-3.67V.63A.63.63 0 0 0 2.5 0a.62.62 0 0 0-.62.63v5.08A2.54 2.54 0 0 0 0 8.13a2.5 2.5 0 0 0 1.88 2.41v8.84a.62.62 0 0 0 .62.62.63.63 0 0 0 .63-.62v-8.84A2.5 2.5 0 0 0 5 8.13a2.55 2.55 0 0 0-1.87-2.42ZM10 13.75a1.25 1.25 0 1 1 1.25-1.25A1.25 1.25 0 0 1 10 13.75Zm.63-3.66V.63A.63.63 0 0 0 10 0a.62.62 0 0 0-.62.63v9.46a2.48 2.48 0 0 0 0 4.82v4.47A.62.62 0 0 0 10 20a.63.63 0 0 0 .63-.62v-4.47a2.49 2.49 0 0 0 0-4.82ZM17.5 9.38a1.25 1.25 0 1 1 0-2.5 1.25 1.25 0 0 1 0 2.5ZM20 8.13a2.55 2.55 0 0 0-1.87-2.42V.63A.63.63 0 0 0 17.5 0a.62.62 0 0 0-.62.63v5.08A2.54 2.54 0 0 0 15 8.13a2.5 2.5 0 0 0 1.88 2.41v8.84a.62.62 0 0 0 .62.62.63.63 0 0 0 .63-.62v-8.84A2.5 2.5 0 0 0 20 8.13Z" /></symbol><symbol viewBox="0 0 19 19" id="insta"><defs></defs><g clip-path="url(#insta_a)"><path d="M13 1.767c.872.043 1.361.233 1.687.327.43.173.739.379 1.062.711.323.333.523.65.691 1.092.127.335.277.838.318 1.765.045 1.002.054 1.338.054 3.839 0 2.499-.01 2.837-.054 3.84-.041.926-.191 1.429-.318 1.764-.168.443-.368.76-.691 1.092a2.854 2.854 0 0 1-1.062.71c-.326.093-.815.286-1.687.328-1 .046-1.295.056-3.762.056s-2.759-.01-3.733-.056c-.9-.042-1.39-.235-1.715-.327a2.854 2.854 0 0 1-1.062-.71c-.324-.333-.524-.65-.728-1.093-.09-.335-.24-.838-.282-1.765-.044-1.002-.053-1.34-.053-3.839 0-2.501.009-2.837.053-3.839.041-.927.192-1.43.282-1.765.204-.443.404-.76.728-1.092a2.856 2.856 0 0 1 1.062-.71c.325-.095.814-.285 1.715-.328.974-.045 1.267-.055 3.733-.055 2.467 0 2.762.01 3.762.055zM9.238 0C6.73 0 6.415 0 5.43.057 4.446.104 3.774.264 3.187.5A4.514 4.514 0 0 0 1.55 1.595C1 2.123.72 2.653.485 3.277.257 3.882.1 4.573.055 5.584 0 6.597 0 6.921 0 9.501s0 2.904.056 3.917c.044 1.012.2 1.703.429 2.307.236.625.515 1.154 1.066 1.683a4.514 4.514 0 0 0 1.636 1.095c.587.235 1.259.396 2.242.442.986.055 1.3.055 3.81.055 2.508 0 2.823 0 3.761-.055 1-.046 1.702-.207 2.29-.442a4.514 4.514 0 0 0 1.636-1.095A4.816 4.816 0 0 0 18 15.725c.22-.604.376-1.295.42-2.307.046-1.013.056-1.336.056-3.917 0-2.58-.01-2.904-.055-3.917-.045-1.011-.201-1.702-.421-2.307a4.818 4.818 0 0 0-1.074-1.682A4.514 4.514 0 0 0 15.29.499C14.702.264 14 .104 13 .057 12.062 0 11.747 0 9.238 0z" /></g><path d="M9.36 4.75c2.64 0 4.741 2.183 4.741 4.875S12 14.5 9.361 14.5c-2.619 0-4.741-2.183-4.741-4.875S6.742 4.75 9.36 4.75zm3.078 4.875c0-1.748-1.378-3.165-3.077-3.165-1.7 0-3.078 1.417-3.078 3.165s1.378 3.165 3.078 3.165 3.077-1.417 3.077-3.165z" /><path d="M15.318 4.375c0 .625-.49 1.125-1.094 1.125-.604 0-1.094-.5-1.094-1.125 0-.621.49-1.125 1.094-1.125.604 0 1.094.504 1.094 1.125" /></symbol><clipPath id="insta_a"><path d="M0 0h18.477v19H0z" /></clipPath><symbol viewBox="0 0 36 18" id="left_arrow_v2"><path d="M.238 8.426 8.42.285a.82.82 0 0 1 1.153-.09.811.811 0 0 1 0 1.238L2.791 8.19h32.39c.453 0 .819.364.819.814 0 .45-.366.814-.818.814H2.79l6.782 6.75a.811.811 0 0 1 .09 1.147.82.82 0 0 1-1.243 0L.238 9.574a.811.811 0 0 1 0-1.148Z" fill="#FFF" /></symbol><symbol viewBox="0 0 19 19" id="linkedin"><path d="M12.645 15.545V11.56c0-.951-.017-2.174-1.288-2.174-1.289 0-1.487 1.035-1.487 2.105v4.055H7.394V7.348h2.377v1.12h.033c.331-.644 1.14-1.324 2.344-1.324 2.509 0 2.972 1.698 2.972 3.856v4.545zm-8.069-9.37c-.798 0-1.444-.665-1.444-1.485 0-.82.646-1.484 1.444-1.484C5.372 3.206 6 3.872 6 4.69c0 .82-.627 1.486-1.424 1.486zm1.264 9.37H3.363V7.348H5.84zM16.797 0H1.68C.752 0 0 .773 0 1.727v15.546C0 18.227.752 19 1.68 19h15.117c.928 0 1.68-.773 1.68-1.727V1.727c0-.954-.752-1.727-1.68-1.727z" /></symbol><symbol viewBox="0 0 20.65 19" id="reset"><path d="M11.09 0a9.53 9.53 0 0 0-8.65 5.44L1.36 3.22 0 3.87l2.24 4.61 4.65-2.22-.66-1.35-2.42 1.16a8 8 0 1 1 7.28 11.43 8.1 8.1 0 0 1-6.59-3.39L3.27 15a9.66 9.66 0 0 0 7.82 4 9.5 9.5 0 1 0 0-19Z" fill="#fff" /></symbol><symbol viewBox="0 0 23 20" id="right-arrow"><path d="M22.733 9.362 13.568.316a.925.925 0 0 0-1.292-.1.9.9 0 0 0-.1 1.275.908.908 0 0 0 .1.1l7.6 7.508H.917a.9.9 0 1 0 0 1.809h18.957l-7.6 7.5a.9.9 0 0 0-.1 1.275.925.925 0 0 0 1.292.1.908.908 0 0 0 .1-.1l9.165-9.046a.9.9 0 0 0 .002-1.275Z" /></symbol><symbol viewBox="0 0 36 18" id="right_arrow_v2"><path d="M35.762 8.426 27.58.285a.82.82 0 0 0-1.153-.09.811.811 0 0 0 0 1.238l6.782 6.757H.82A.816.816 0 0 0 0 9.004c0 .45.366.814.818.814H33.21l-6.782 6.75a.811.811 0 0 0-.09 1.147.82.82 0 0 0 1.243 0l8.182-8.141a.811.811 0 0 0 0-1.148Z" fill="#FFF" /></symbol><symbol viewBox="0 0 36 18" id="slider-arrow"><path d="M.238 8.426 8.42.285A.821.821 0 0 1 9.573.2a.811.811 0 0 1 .089 1.148.814.814 0 0 1-.089.089L2.791 8.19h32.391A.816.816 0 0 1 36 9a.816.816 0 0 1-.818.814H2.791l6.783 6.749a.811.811 0 0 1 .089 1.148.821.821 0 0 1-1.154.089.814.814 0 0 1-.089-.089L.238 9.57a.811.811 0 0 1 0-1.144Z" data-name="right-arrow copy" /></symbol><symbol viewBox="0 0 22 19" id="vimeo"><defs></defs><g clip-path="url(#vimeo_a)"><path d="M21.383 4.396c-.095 2.138-1.55 5.065-4.383 8.782C14.112 17.06 11.65 19 9.638 19c-1.247 0-2.303-1.182-3.165-3.546C5.897 13.287 5.323 11.12 4.746 9c-.64-2.41-1.326-3.593-2.06-3.593-.16 0-.686.346-1.686 1.035L0 5.11a275.822 275.822 0 0 0 3.122-2.858C4.53 1 5.587.345 6.292.279 8 .115 9 1.283 9.367 3.785c.415 2.698.703 4.377.864 5.034.48 2.24 1.008 3.357 1.585 3.357.448 0 1.12-.726 2.018-2.176.896-1.455 1.375-2.56 1.44-3.32.128-1.253-.352-1.881-1.44-1.881-.513 0-1.04.12-1.584.36C13.302 1.623 15.31-.094 18.276 0c2.198.07 3.234 1.534 3.107 4.396" /></g></symbol><clipPath id="vimeo_a"><path d="M0 0h21.394v19H0z" /></clipPath></defs><use id="arrow_d-usage" xlink:href="#arrow_d" class="sprite-symbol-usage" /><use id="arrow_left-usage" xlink:href="#arrow_left" class="sprite-symbol-usage" /><use id="arrow_left_long-usage" xlink:href="#arrow_left_long" class="sprite-symbol-usage" /><use id="arrow_right_long-usage" xlink:href="#arrow_right_long" class="sprite-symbol-usage" /><use id="close-usage" xlink:href="#close" class="sprite-symbol-usage" /><use id="dots-usage" xlink:href="#dots" class="sprite-symbol-usage" /><use id="filter-usage" xlink:href="#filter" class="sprite-symbol-usage" /><use id="insta-usage" xlink:href="#insta" class="sprite-symbol-usage" /><use id="left_arrow_v2-usage" xlink:href="#left_arrow_v2" class="sprite-symbol-usage" /><use id="linkedin-usage" xlink:href="#linkedin" class="sprite-symbol-usage" /><use id="reset-usage" xlink:href="#reset" class="sprite-symbol-usage" /><use id="right-arrow-usage" xlink:href="#right-arrow" class="sprite-symbol-usage" /><use id="right_arrow_v2-usage" xlink:href="#right_arrow_v2" class="sprite-symbol-usage" /><use id="slider-arrow-usage" xlink:href="#slider-arrow" class="sprite-symbol-usage" /><use id="vimeo-usage" xlink:href="#vimeo" class="sprite-symbol-usage" /></svg>