<svg xmlns="http://www.w3.org/2000/svg" xmlns:xlink="http://www.w3.org/1999/xlink"><defs><style>
    .sprite-symbol-usage {display: none;}
    .sprite-symbol-usage:target {display: inline;}
  </style><symbol viewBox="0 0 11 6" id="arrow_down"><path d="M5.5 6c-.128 0-.256 0-.354-.146l-5-5a.624.624 0 0 1 0-.708.624.624 0 0 1 .708 0L5.5 4.793 10.146.146a.624.624 0 0 1 .708 0 .624.624 0 0 1 0 .708l-5 5C5.756 6 5.628 6 5.5 6z" fill="#fff" /></symbol><symbol viewBox="0 0 19 19" id="insta"><defs></defs><g clip-path="url(#insta_a)"><path d="M13 1.767c.872.043 1.361.233 1.687.327.43.173.739.379 1.062.711.323.333.523.65.691 1.092.127.335.277.838.318 1.765.045 1.002.054 1.338.054 3.839 0 2.499-.01 2.837-.054 3.84-.041.926-.191 1.429-.318 1.764-.168.443-.368.76-.691 1.092a2.854 2.854 0 0 1-1.062.71c-.326.093-.815.286-1.687.328-1 .046-1.295.056-3.762.056s-2.759-.01-3.733-.056c-.9-.042-1.39-.235-1.715-.327a2.854 2.854 0 0 1-1.062-.71c-.324-.333-.524-.65-.728-1.093-.09-.335-.24-.838-.282-1.765-.044-1.002-.053-1.34-.053-3.839 0-2.501.009-2.837.053-3.839.041-.927.192-1.43.282-1.765.204-.443.404-.76.728-1.092a2.856 2.856 0 0 1 1.062-.71c.325-.095.814-.285 1.715-.328.974-.045 1.267-.055 3.733-.055 2.467 0 2.762.01 3.762.055zM9.238 0C6.73 0 6.415 0 5.43.057 4.446.104 3.774.264 3.187.5A4.514 4.514 0 0 0 1.55 1.595C1 2.123.72 2.653.485 3.277.257 3.882.1 4.573.055 5.584 0 6.597 0 6.921 0 9.501s0 2.904.056 3.917c.044 1.012.2 1.703.429 2.307.236.625.515 1.154 1.066 1.683a4.514 4.514 0 0 0 1.636 1.095c.587.235 1.259.396 2.242.442.986.055 1.3.055 3.81.055 2.508 0 2.823 0 3.761-.055 1-.046 1.702-.207 2.29-.442a4.514 4.514 0 0 0 1.636-1.095A4.816 4.816 0 0 0 18 15.725c.22-.604.376-1.295.42-2.307.046-1.013.056-1.336.056-3.917 0-2.58-.01-2.904-.055-3.917-.045-1.011-.201-1.702-.421-2.307a4.818 4.818 0 0 0-1.074-1.682A4.514 4.514 0 0 0 15.29.499C14.702.264 14 .104 13 .057 12.062 0 11.747 0 9.238 0z" /></g><path d="M9.36 4.75c2.64 0 4.741 2.183 4.741 4.875S12 14.5 9.361 14.5c-2.619 0-4.741-2.183-4.741-4.875S6.742 4.75 9.36 4.75zm3.078 4.875c0-1.748-1.378-3.165-3.077-3.165-1.7 0-3.078 1.417-3.078 3.165s1.378 3.165 3.078 3.165 3.077-1.417 3.077-3.165z" /><path d="M15.318 4.375c0 .625-.49 1.125-1.094 1.125-.604 0-1.094-.5-1.094-1.125 0-.621.49-1.125 1.094-1.125.604 0 1.094.504 1.094 1.125" /></symbol><clipPath id="insta_a"><path d="M0 0h18.477v19H0z" /></clipPath><symbol viewBox="0 0 19 19" id="linkedin"><path d="M12.645 15.545V11.56c0-.951-.017-2.174-1.288-2.174-1.289 0-1.487 1.035-1.487 2.105v4.055H7.394V7.348h2.377v1.12h.033c.331-.644 1.14-1.324 2.344-1.324 2.509 0 2.972 1.698 2.972 3.856v4.545zm-8.069-9.37c-.798 0-1.444-.665-1.444-1.485 0-.82.646-1.484 1.444-1.484C5.372 3.206 6 3.872 6 4.69c0 .82-.627 1.486-1.424 1.486zm1.264 9.37H3.363V7.348H5.84zM16.797 0H1.68C.752 0 0 .773 0 1.727v15.546C0 18.227.752 19 1.68 19h15.117c.928 0 1.68-.773 1.68-1.727V1.727c0-.954-.752-1.727-1.68-1.727z" /></symbol><symbol viewBox="0 0 23 20" id="right-arrow"><path d="M22.733 9.362 13.568.316a.925.925 0 0 0-1.292-.1.9.9 0 0 0-.1 1.275.908.908 0 0 0 .1.1l7.6 7.508H.917a.9.9 0 1 0 0 1.809h18.957l-7.6 7.5a.9.9 0 0 0-.1 1.275.925.925 0 0 0 1.292.1.908.908 0 0 0 .1-.1l9.165-9.046a.9.9 0 0 0 .002-1.275Z" /></symbol><symbol viewBox="0 0 22 19" id="vimeo"><defs></defs><g clip-path="url(#vimeo_a)"><path d="M21.383 4.396c-.095 2.138-1.55 5.065-4.383 8.782C14.112 17.06 11.65 19 9.638 19c-1.247 0-2.303-1.182-3.165-3.546C5.897 13.287 5.323 11.12 4.746 9c-.64-2.41-1.326-3.593-2.06-3.593-.16 0-.686.346-1.686 1.035L0 5.11a275.822 275.822 0 0 0 3.122-2.858C4.53 1 5.587.345 6.292.279 8 .115 9 1.283 9.367 3.785c.415 2.698.703 4.377.864 5.034.48 2.24 1.008 3.357 1.585 3.357.448 0 1.12-.726 2.018-2.176.896-1.455 1.375-2.56 1.44-3.32.128-1.253-.352-1.881-1.44-1.881-.513 0-1.04.12-1.584.36C13.302 1.623 15.31-.094 18.276 0c2.198.07 3.234 1.534 3.107 4.396" /></g></symbol><clipPath id="vimeo_a"><path d="M0 0h21.394v19H0z" /></clipPath></defs><use id="arrow_down-usage" xlink:href="#arrow_down" class="sprite-symbol-usage" /><use id="insta-usage" xlink:href="#insta" class="sprite-symbol-usage" /><use id="linkedin-usage" xlink:href="#linkedin" class="sprite-symbol-usage" /><use id="right-arrow-usage" xlink:href="#right-arrow" class="sprite-symbol-usage" /><use id="vimeo-usage" xlink:href="#vimeo" class="sprite-symbol-usage" /></svg>