<svg xmlns="http://www.w3.org/2000/svg" xmlns:xlink="http://www.w3.org/1999/xlink"><defs><style>
    .sprite-symbol-usage {display: none;}
    .sprite-symbol-usage:target {display: inline;}
  </style><symbol viewBox="0 0 32 32" fill="none" id="api"><circle cx="16" cy="16" r="16" fill="#F0F8FF" /><path d="m8.818 20.025.596-1.83h2.896l.595 1.83h1.818L11.957 12H9.77L7 20.025h1.818Zm1.027-3.154.987-3.037h.063l.987 3.037H9.845ZM15.69 20.025h1.696v-2.602h1.426c1.846 0 2.92-1.101 2.92-2.704 0-1.594-1.055-2.719-2.877-2.719H15.69v8.025Zm1.696-3.962v-2.676h1.144c.98 0 1.454.533 1.454 1.332 0 .796-.475 1.344-1.446 1.344h-1.152ZM24.53 12h-1.697v8.025h1.697V12Z" fill="#45C8F1" /></symbol><symbol viewBox="0 0 17 18" fill="currentColor" id="chevron-down"><path fill-rule="evenodd" clip-rule="evenodd" d="M3.75 6.233a.7.7 0 0 1 1 0L8.5 10.05l3.75-3.817a.7.7 0 0 1 1 0 .73.73 0 0 1 0 1.02L9 11.58a.7.7 0 0 1-1 0L3.75 7.253a.73.73 0 0 1 0-1.02Z" fill="#8492A6" /></symbol><symbol viewBox="0 0 32 32" fill="none" id="chrom"><circle cx="16" cy="16" r="16" fill="#F0F8FF" /><path d="M16 6C10.5 6 6 10.5 6 16s4.5 10 10 10 10-4.5 10-10S21.5 6 16 6Zm0 2c3 0 5.5 1.6 6.9 4H16c-1.9 0-3.6 1.4-3.9 3.2l-2.4-4.1C11.2 9.2 13.4 8 16 8Zm3 8c0 1.7-1.3 3-3 3s-3-1.3-3-3 1.3-3 3-3 3 1.3 3 3ZM8 16c0-1.5.4-2.8 1.1-4l3.5 6c.7 1.2 2 2 3.4 2 .5 0 .9-.1 1.3-.2l-2.4 4.1C11 23.4 8 20 8 16Zm8 8 3.5-6c.3-.6.6-1.3.6-2 0-1.2-.5-2.3-1.4-3h4.8c.4.9.6 1.9.6 3-.1 4.4-3.7 8-8.1 8Z" fill="#45C8F1" /></symbol><symbol viewBox="0 0 18 18" id="external"><path d="M11.93 1.13h4.66a.28.28 0 0 1 .29.28v4.66a.29.29 0 0 1-.49.2l-1.73-1.74-4.22 4.22a.84.84 0 1 1-1.19-1.19l4.22-4.22-1.74-1.73a.28.28 0 0 1 .2-.48ZM4.22 2.25a2 2 0 0 0-2 2v9.56a2 2 0 0 0 2 2h9.56a2 2 0 0 0 2-2V9.84a.85.85 0 0 0-1.69 0v3.94a.27.27 0 0 1-.28.28H4.22a.27.27 0 0 1-.28-.28V4.22a.27.27 0 0 1 .28-.28h3.94a.85.85 0 0 0 0-1.69Z" fill="#45c8f1" fill-rule="evenodd" /></symbol><symbol viewBox="0 0 32 32" id="github"><path d="M16 1a15.33 15.33 0 0 0-4.85 29.88c.77.13 1-.32 1-.73V27.3c-3.82.7-4.81-.94-5.15-1.8a5.48 5.48 0 0 0-1.57-2.17c-.54-.29-1.3-1 0-1a3.05 3.05 0 0 1 2.37 1.56 3.28 3.28 0 0 0 4.46 1.26 3.24 3.24 0 0 1 1-2c-3.41-.38-7-1.71-7-7.57a6 6 0 0 1 1.58-4.12A5.5 5.5 0 0 1 8 7.34s1.28-.4 4.21 1.58a14.4 14.4 0 0 1 7.67 0c2.93-2 4.22-1.58 4.22-1.58a5.5 5.5 0 0 1 .15 4.07 5.91 5.91 0 0 1 1.57 4.12c0 5.88-3.58 7.19-7 7.57a3.66 3.66 0 0 1 1 2.84v4.21c0 .51.29.88 1.06.73A15.34 15.34 0 0 0 16 1Z" fill-rule="evenodd" /></symbol><symbol viewBox="0 0 32 32" fill="none" id="int"><circle cx="16" cy="16" r="16" fill="#F0F8FF" /><path fill-rule="evenodd" clip-rule="evenodd" d="M18.56 10.476a.282.282 0 0 1 .217-.101h.88c.155 0 .28.126.28.281v9.563a.281.281 0 0 1-.28.281h-.88a.281.281 0 0 1-.216-.101l-1.07-1.283a.844.844 0 0 0-.543-.297l-3.514-.44a.281.281 0 0 1-.246-.278v-5.327c0-.141.105-.261.246-.279l3.514-.439a.844.844 0 0 0 .544-.297l1.069-1.283ZM11.5 16v2.1c0 .993.74 1.831 1.725 1.954l3.184.398.856 1.027c.373.449.928.709 1.512.709h.88a1.969 1.969 0 0 0 1.968-1.97v-.843h2.531a.844.844 0 0 0 0-1.688h-2.531v-4.5h2.531a.844.844 0 0 0 0-1.687h-2.531v-.844a1.969 1.969 0 0 0-1.969-1.969h-.879c-.584 0-1.139.26-1.512.709l-.856 1.027-3.184.398a1.969 1.969 0 0 0-1.725 1.953v1.539H9.812A2.813 2.813 0 0 0 7 17.125v5.906a.844.844 0 1 0 1.688 0v-5.906c0-.621.503-1.125 1.124-1.125H11.5Z" fill="#45C8F1" /></symbol><symbol viewBox="0 0 15 15" id="link"><path fill-rule="evenodd" clip-rule="evenodd" d="M9.93.125h4.664c.155 0 .281.126.281.281v4.665c0 .25-.303.376-.48.199l-1.736-1.736L8.44 7.753A.844.844 0 0 1 7.247 6.56l4.219-4.22L9.73.606a.281.281 0 0 1 .199-.48ZM2.218 1.25A1.969 1.969 0 0 0 .25 3.219v9.562c0 1.088.881 1.969 1.969 1.969h9.562a1.969 1.969 0 0 0 1.969-1.969V8.844a.844.844 0 0 0-1.688 0v3.937a.281.281 0 0 1-.28.281H2.218a.281.281 0 0 1-.281-.28V3.218c0-.156.125-.281.28-.281h3.938a.844.844 0 0 0 0-1.688H2.22Z" /></symbol><symbol viewBox="0 0 26 26" id="loupe"><path fill-rule="evenodd" clip-rule="evenodd" d="M19.125 11.25a7.875 7.875 0 1 1-15.75 0 7.875 7.875 0 0 1 15.75 0Zm-1.435 8.295a10.5 10.5 0 1 1 1.855-1.855l5.32 5.32a1.314 1.314 0 1 1-1.855 1.855l-5.32-5.32Z" /></symbol><symbol viewBox="0 0 32 32" fill="none" id="provide"><path d="M16.94 9.94a1.5 1.5 0 0 0 0 2.12L19.878 15l-2.94 2.94a1.5 1.5 0 0 0 2.122 2.12l4-4a1.5 1.5 0 0 0 0-2.12l-4-4a1.5 1.5 0 0 0-2.122 0ZM13.06 12.06a1.5 1.5 0 0 0-2.12-2.12l-4 4a1.5 1.5 0 0 0 0 2.12l4 4a1.5 1.5 0 0 0 2.12-2.12L10.122 15l2.94-2.94Z" fill="#FF659D" /><path fill-rule="evenodd" clip-rule="evenodd" d="M24.493 26.614A14.938 14.938 0 0 1 15 30C6.716 30 0 23.284 0 15 0 6.716 6.716 0 15 0c8.284 0 15 6.716 15 15 0 3.602-1.27 6.907-3.386 9.493l4.947 4.946a1.5 1.5 0 0 1-2.122 2.122l-4.946-4.947ZM3 15C3 8.373 8.373 3 15 3s12 5.373 12 12c0 3.165-1.225 6.043-3.227 8.188a1.503 1.503 0 0 0-.585.585A11.958 11.958 0 0 1 15 27C8.373 27 3 21.627 3 15Z" fill="#FF659D" /></symbol><symbol viewBox="0 0 26 26" id="pull"><path fill-rule="evenodd" clip-rule="evenodd" d="M11.56 4.378 15.752.184a.438.438 0 0 1 .747.31V8.88c0 .39-.471.585-.747.31l-4.194-4.194a.438.438 0 0 1 0-.619ZM4.686 3.375a1.313 1.313 0 1 0 0 2.625 1.313 1.313 0 0 0 0-2.625ZM.75 4.688A3.938 3.938 0 1 1 6 8.4v9.198a3.94 3.94 0 0 1-1.313 7.651 3.938 3.938 0 0 1-1.312-7.651V8.401A3.94 3.94 0 0 1 .75 4.688Zm17.5-1.313H16.5V6h1.75c.966 0 1.75.784 1.75 1.75v9.849a3.94 3.94 0 0 0 1.312 7.651 3.938 3.938 0 0 0 1.313-7.651V7.75a4.375 4.375 0 0 0-4.375-4.375ZM3.375 21.313a1.312 1.312 0 1 1 2.625 0 1.312 1.312 0 0 1-2.625 0Zm16.625 0a1.312 1.312 0 1 1 2.625 0 1.312 1.312 0 0 1-2.625 0Z" /></symbol><symbol viewBox="0 0 32 32" fill="none" id="ring"><circle cx="16" cy="16" r="16" fill="#F9FAFC" /><path fill-rule="evenodd" clip-rule="evenodd" d="M16 7a5.625 5.625 0 0 0-5.625 5.625v3.316c0 .055-.016.11-.047.156L8.412 18.97a1.707 1.707 0 0 0 1.42 2.654h12.336a1.707 1.707 0 0 0 1.42-2.654l-1.916-2.874a.281.281 0 0 1-.047-.156v-3.316A5.625 5.625 0 0 0 16 7Zm-3.938 5.625a3.938 3.938 0 0 1 7.876 0v3.316c0 .388.115.768.33 1.092l1.916 2.874a.019.019 0 0 1 .003.01v.008l-.005.007a.029.029 0 0 1-.007.004s-.003.002-.007.002H9.832c-.004 0-.007-.002-.007-.002l-.007-.004-.004-.007s-.002-.003-.002-.007a.02.02 0 0 1 .004-.011l1.916-2.874a1.97 1.97 0 0 0 .33-1.092v-3.316Z" fill="#45C8F1" /><path d="M18.233 23.03a2.25 2.25 0 0 1-4.466 0c-.019-.153.109-.28.264-.28h3.938c.155 0 .283.127.264.28Z" fill="#45C8F1" /></symbol><symbol viewBox="0 0 28 28" id="rocket"><path fill-rule="evenodd" clip-rule="evenodd" d="M24.612 0a15.313 15.313 0 0 0-10.827 4.485l-.804.802c-.55.55-1.078 1.122-1.582 1.713H5.792a3.063 3.063 0 0 0-2.607 1.458L.192 13.312a1.312 1.312 0 0 0 .732 1.943l5.428 1.67c.065.088.139.174.217.253l4.251 4.249c.08.08.165.154.254.219l1.67 5.428a1.313 1.313 0 0 0 1.942.732l4.854-2.988a3.063 3.063 0 0 0 1.458-2.607v-5.612a29.282 29.282 0 0 0 1.713-1.582l.802-.803A15.312 15.312 0 0 0 28 3.387v-.325A3.063 3.063 0 0 0 24.937 0h-.325Zm-6.237 18.594c-.154.105-.31.206-.466.306l-4.112 2.662.959 3.12 3.41-2.1a.437.437 0 0 0 .209-.373v-3.615ZM6.436 14.203 9.1 10.091c.101-.158.205-.312.308-.466H5.79a.438.438 0 0 0-.373.208l-2.1 3.413 3.118.957Zm9.205-7.863a12.688 12.688 0 0 1 8.97-3.715h.325a.438.438 0 0 1 .437.438v.325a12.69 12.69 0 0 1-3.715 8.972l-.803.802a26.621 26.621 0 0 1-4.374 3.535l-4.054 2.625-3.75-3.75 2.624-4.055a26.685 26.685 0 0 1 3.535-4.375l.802-.802h.003ZM21 8.75a1.75 1.75 0 1 1-3.5 0 1.75 1.75 0 0 1 3.5 0ZM6.23 25.48a2.625 2.625 0 1 0-3.71-3.71C1.235 23.047.688 25.851.507 27.025a.403.403 0 0 0 .464.464c1.174-.18 3.978-.728 5.259-2.009Z" /></symbol><symbol viewBox="0 0 32 32" id="twitter"><path d="m31.06 6.28-.48.13c-1 .24-1-.08-.35-.79a6.81 6.81 0 0 0 .83-1c.54-.84.07-1.21-.85-.81-.32.13-.65.26-1 .37a4.16 4.16 0 0 1-3.12-.69 6.9 6.9 0 0 0-8.45 1 6.59 6.59 0 0 0-2 4.84 7.13 7.13 0 0 0 0 .79c.05.43-.68.74-1.67.61A19.15 19.15 0 0 1 8 8.75 19.57 19.57 0 0 1 2.91 5c-.69-.71-1.63-.65-1.89.31a6.74 6.74 0 0 0-.24 1.8 6.67 6.67 0 0 0 .83 3.26 6.58 6.58 0 0 0 1 1.35c.62.68.53 1.08-.34.84A10.09 10.09 0 0 1 .74 12a6.6 6.6 0 0 0 1.56 4.41 6.88 6.88 0 0 0 2.22 1.79c.9.44 1.31.68.81.75a6.84 6.84 0 0 1-.91.06h-.64c-.36 0-.42.71.12 1.55a7 7 0 0 0 1.65 1.75 6.59 6.59 0 0 0 2.2 1.1c1 .28 1.15.77.29 1.28a13.3 13.3 0 0 1-7 1.9H.21c-.46 0-.15.38.73.84a19 19 0 0 0 9 2.16 20.19 20.19 0 0 0 6.83-1.15 17.31 17.31 0 0 0 5.47-3.1 20.48 20.48 0 0 0 3.9-4.45 20.08 20.08 0 0 0 2.45-5.26 19.68 19.68 0 0 0 .8-5.5v-.48c0-.25.64-.91 1.37-1.59.32-.31.64-.63.94-1 .6-.72.3-1.06-.64-.78Z" /></symbol><symbol viewBox="0 0 32 32" fill="none" id="why"><path fill-rule="evenodd" clip-rule="evenodd" d="M16 3C8.82 3 3 8.82 3 16s5.82 13 13 13 13-5.82 13-13S23.18 3 16 3ZM0 16C0 7.163 7.163 0 16 0s16 7.163 16 16-7.163 16-16 16S0 24.837 0 16Zm18 6a2 2 0 1 1-4 0 2 2 0 0 1 4 0Zm-4.158-9.83c.16-.321.379-.598.678-.797.29-.193.742-.373 1.48-.373.56 0 1.106.173 1.475.45.33.247.525.57.525 1.05 0 .353-.082.528-.154.637-.091.136-.247.286-.553.49-.153.102-.317.2-.518.321l-.012.008c-.188.112-.409.245-.626.39-.445.296-.976.708-1.385 1.322a1.5 1.5 0 1 0 2.496 1.664c.09-.136.247-.286.553-.49.153-.102.317-.201.518-.321l.012-.008c.188-.112.409-.245.626-.39.444-.296.976-.708 1.385-1.322.427-.641.658-1.404.658-2.301 0-1.52-.72-2.697-1.725-3.45C18.311 8.327 17.107 8 16 8c-1.262 0-2.31.32-3.145.877a5.008 5.008 0 0 0-1.697 1.952 1.5 1.5 0 1 0 2.684 1.342Z" fill="#FF659D" /></symbol></defs><use id="api-usage" xlink:href="#api" class="sprite-symbol-usage" /><use id="chevron-down-usage" xlink:href="#chevron-down" class="sprite-symbol-usage" /><use id="chrom-usage" xlink:href="#chrom" class="sprite-symbol-usage" /><use id="external-usage" xlink:href="#external" class="sprite-symbol-usage" /><use id="github-usage" xlink:href="#github" class="sprite-symbol-usage" /><use id="int-usage" xlink:href="#int" class="sprite-symbol-usage" /><use id="link-usage" xlink:href="#link" class="sprite-symbol-usage" /><use id="loupe-usage" xlink:href="#loupe" class="sprite-symbol-usage" /><use id="provide-usage" xlink:href="#provide" class="sprite-symbol-usage" /><use id="pull-usage" xlink:href="#pull" class="sprite-symbol-usage" /><use id="ring-usage" xlink:href="#ring" class="sprite-symbol-usage" /><use id="rocket-usage" xlink:href="#rocket" class="sprite-symbol-usage" /><use id="twitter-usage" xlink:href="#twitter" class="sprite-symbol-usage" /><use id="why-usage" xlink:href="#why" class="sprite-symbol-usage" /></svg>