<svg width="121" height="16" viewBox="0 0 121 16" fill="none" xmlns="http://www.w3.org/2000/svg">
<path d="M103.421 15.9389C103.009 16.1501 102.542 15.78 102.625 15.3075L103.511 10.2624L99.7531 6.68287C99.4022 6.34795 99.5846 5.73571 100.055 5.66958L105.279 4.92722L107.609 0.311984C107.819 -0.103995 108.387 -0.103995 108.597 0.311984L110.927 4.92722L116.151 5.66958C116.622 5.73571 116.804 6.34795 116.452 6.68287L112.695 10.2624L113.581 15.3075C113.664 15.78 113.197 16.1501 112.785 15.9389L108.101 13.5327L103.42 15.9389H103.421Z" fill="#E3168F"/>
<path d="M79.5276 15.9389C79.1158 16.1501 78.6487 15.78 78.7319 15.3075L79.6172 10.2624L75.8595 6.68287C75.5086 6.34795 75.691 5.73571 76.1613 5.66958L81.3856 4.92722L83.7151 0.311984C83.9252 -0.103995 84.4937 -0.103995 84.7038 0.311984L87.0333 4.92722L92.2576 5.66958C92.728 5.73571 92.9104 6.34795 92.5584 6.68287L88.8018 10.2624L89.687 15.3075C89.7702 15.78 89.3031 16.1501 88.8914 15.9389L84.2079 13.5327L79.5265 15.9389H79.5276Z" fill="#E3168F"/>
<path d="M55.6354 15.9389C55.2237 16.1501 54.7565 15.78 54.8397 15.3075L55.725 10.2624L51.9673 6.68287C51.6164 6.34795 51.7988 5.73571 52.2692 5.66958L57.4935 4.92722L59.8229 0.311984C60.0331 -0.103995 60.6016 -0.103995 60.8117 0.311984L63.1412 4.92722L68.3654 5.66958C68.8358 5.73571 69.0182 6.34795 68.6662 6.68287L64.9096 10.2624L65.7949 15.3075C65.8781 15.78 65.4109 16.1501 64.9992 15.9389L60.3157 13.5327L55.6343 15.9389H55.6354Z" fill="#E3168F"/>
<path d="M31.7433 15.9389C31.3316 16.1501 30.8644 15.78 30.9476 15.3075L31.8329 10.2624L28.0752 6.68287C27.7243 6.34795 27.9067 5.73571 28.3771 5.66958L33.6013 4.92722L35.9308 0.311984C36.1409 -0.103995 36.7094 -0.103995 36.9196 0.311984L39.249 4.92722L44.4733 5.66958C44.9437 5.73571 45.1261 6.34795 44.7741 6.68287L41.0175 10.2624L41.9028 15.3075C41.986 15.78 41.5188 16.1501 41.1071 15.9389L36.4236 13.5327L31.7422 15.9389H31.7433Z" fill="#E3168F"/>
<path d="M7.85117 15.9389C7.43946 16.1501 6.97228 15.78 7.05548 15.3075L7.94077 10.2624L4.18309 6.68287C3.83217 6.34795 4.01456 5.73571 4.48494 5.66958L9.70921 4.92722L12.0387 0.311984C12.2488 -0.103995 12.8173 -0.103995 13.0274 0.311984L15.3569 4.92722L20.5812 5.66958C21.0516 5.73571 21.234 6.34795 20.882 6.68287L17.1254 10.2624L18.0107 15.3075C18.0939 15.78 17.6267 16.1501 17.215 15.9389L12.5315 13.5327L7.8501 15.9389H7.85117Z" fill="#E3168F"/>
</svg>
