<svg width="121" height="16" viewBox="0 0 121 16" fill="none" xmlns="http://www.w3.org/2000/svg">
<path d="M34.816 2.51017L33.5661 5.02033L31.2827 5.30997C28.6628 5.67201 27.8936 5.88924 27.8936 6.32369C27.8936 6.49264 28.7589 7.45809 29.8406 8.47181L31.8115 10.3062L31.3788 12.9853C31.0664 14.892 30.9943 15.761 31.1866 15.954C31.3548 16.123 32.172 15.8334 33.9266 14.9403L36.4504 13.7094L38.9261 14.9645C40.6807 15.8334 41.4979 16.123 41.6662 15.954C41.8585 15.761 41.7864 14.892 41.4739 12.9853L41.0413 10.3062L43.0122 8.47181C44.0938 7.45809 44.9591 6.49264 44.9591 6.32369C44.9591 5.88924 44.19 5.67201 41.57 5.30997L39.2866 5.02033L38.0368 2.51017C37.2676 0.989585 36.6427 2.25791e-08 36.4264 2.25791e-08C36.2101 2.25791e-08 35.5851 0.989585 34.816 2.51017ZM38.9982 6.10646C39.3107 6.17887 40.2 6.32369 40.9932 6.3961C43.2526 6.6616 43.2766 6.75814 41.4499 8.39941L39.8395 9.87172L40.1279 11.6337C40.2961 12.5991 40.4884 13.637 40.5605 13.9507C40.6807 14.5059 40.6086 14.4817 38.7338 13.5404C37.6762 12.9853 36.6187 12.5508 36.4264 12.5508C36.2341 12.5508 35.1765 12.9853 34.1189 13.5404C32.2441 14.4817 32.172 14.5059 32.2922 13.9507C32.3643 13.637 32.5566 12.5991 32.7249 11.6337L33.0133 9.87172L31.4029 8.39941C29.5521 6.73401 29.5762 6.6616 31.9797 6.3961C32.845 6.29955 33.7584 6.1306 34.0228 6.03406C34.3112 5.91337 34.8881 5.04447 35.4649 3.88593L36.4023 1.90676L37.4359 3.9342C38.157 5.43065 38.5896 6.00992 38.9982 6.10646Z" fill="#E3168F"/>
<path d="M58.7096 2.51017L57.4597 5.02033L55.1763 5.30997C52.5564 5.67201 51.7873 5.88924 51.7873 6.32369C51.7873 6.49264 52.6526 7.45809 53.7342 8.47181L55.7051 10.3062L55.2725 12.9853C54.96 14.892 54.8879 15.761 55.0802 15.954C55.2484 16.123 56.0656 15.8334 57.8203 14.9403L60.344 13.7094L62.8197 14.9645C64.5743 15.8334 65.3916 16.123 65.5598 15.954C65.7521 15.761 65.68 14.892 65.3675 12.9853L64.9349 10.3062L66.9058 8.47181C67.9874 7.45809 68.8527 6.49264 68.8527 6.32369C68.8527 5.88924 68.0836 5.67201 65.4637 5.30997L63.1803 5.02033L61.9304 2.51017C61.1612 0.989585 60.5363 2.25791e-08 60.32 2.25791e-08C60.1037 2.25791e-08 59.4787 0.989585 58.7096 2.51017ZM62.8918 6.10646C63.2043 6.17887 64.0936 6.32369 64.8868 6.3961C67.1462 6.6616 67.1702 6.75814 65.3435 8.39941L63.7331 9.87172L64.0215 11.6337C64.1898 12.5991 64.382 13.637 64.4542 13.9507C64.5743 14.5059 64.5022 14.4817 62.6274 13.5404C61.5699 12.9853 60.5123 12.5508 60.32 12.5508C60.1277 12.5508 59.0701 12.9853 58.0125 13.5404C56.1378 14.4817 56.0656 14.5059 56.1858 13.9507C56.2579 13.637 56.4502 12.5991 56.6185 11.6337L56.9069 9.87172L55.2965 8.39941C53.4457 6.73401 53.4698 6.6616 55.8734 6.3961C56.7386 6.29955 57.652 6.1306 57.9164 6.03406C58.2048 5.91337 58.7817 5.04447 59.3586 3.88593L60.296 1.90676L61.3295 3.9342C62.0506 5.43065 62.4832 6.00992 62.8918 6.10646Z" fill="#E3168F"/>
<path d="M82.6032 2.51017L81.3533 5.02033L79.0699 5.30997C76.45 5.67201 75.6809 5.88924 75.6809 6.32369C75.6809 6.49264 76.5462 7.45809 77.6278 8.47181L79.5987 10.3062L79.1661 12.9853C78.8536 14.892 78.7815 15.761 78.9738 15.954C79.142 16.123 79.9593 15.8334 81.7139 14.9403L84.2376 13.7094L86.7133 14.9645C88.468 15.8334 89.2852 16.123 89.4534 15.954C89.6457 15.761 89.5736 14.892 89.2611 12.9853L88.8285 10.3062L90.7994 8.47181C91.881 7.45809 92.7463 6.49264 92.7463 6.32369C92.7463 5.88924 91.9772 5.67201 89.3573 5.30997L87.0739 5.02033L85.824 2.51017C85.0549 0.989585 84.4299 2.25791e-08 84.2136 2.25791e-08C83.9973 2.25791e-08 83.3723 0.989585 82.6032 2.51017ZM86.7854 6.10646C87.0979 6.17887 87.9872 6.32369 88.7804 6.3961C91.0398 6.6616 91.0638 6.75814 89.2371 8.39941L87.6267 9.87172L87.9151 11.6337C88.0834 12.5991 88.2757 13.637 88.3478 13.9507C88.468 14.5059 88.3958 14.4817 86.521 13.5404C85.4635 12.9853 84.4059 12.5508 84.2136 12.5508C84.0213 12.5508 82.9637 12.9853 81.9062 13.5404C80.0314 14.4817 79.9593 14.5059 80.0794 13.9507C80.1515 13.637 80.3438 12.5991 80.5121 11.6337L80.8005 9.87172L79.1901 8.39941C77.3394 6.73401 77.3634 6.6616 79.767 6.3961C80.6323 6.29955 81.5456 6.1306 81.81 6.03406C82.0984 5.91337 82.6753 5.04447 83.2522 3.88593L84.1896 1.90676L85.2231 3.9342C85.9442 5.43065 86.3768 6.00992 86.7854 6.10646Z" fill="#E3168F"/>
<path d="M106.497 2.51017L105.247 5.02033L102.964 5.30997C100.344 5.67201 99.5746 5.88924 99.5746 6.32369C99.5746 6.49264 100.44 7.45809 101.521 8.47181L103.492 10.3062L103.06 12.9853C102.747 14.892 102.675 15.761 102.867 15.954C103.036 16.123 103.853 15.8334 105.608 14.9403L108.131 13.7094L110.607 14.9645C112.362 15.8334 113.179 16.123 113.347 15.954C113.539 15.761 113.467 14.892 113.155 12.9853L112.722 10.3062L114.693 8.47181C115.775 7.45809 116.64 6.49264 116.64 6.32369C116.64 5.88924 115.871 5.67201 113.251 5.30997L110.968 5.02033L109.718 2.51017C108.949 0.989585 108.324 2.25791e-08 108.107 2.25791e-08C107.891 2.25791e-08 107.266 0.989585 106.497 2.51017ZM110.679 6.10646C110.992 6.17887 111.881 6.32369 112.674 6.3961C114.933 6.6616 114.957 6.75814 113.131 8.39941L111.52 9.87172L111.809 11.6337C111.977 12.5991 112.169 13.637 112.241 13.9507C112.362 14.5059 112.29 14.4817 110.415 13.5404C109.357 12.9853 108.3 12.5508 108.107 12.5508C107.915 12.5508 106.857 12.9853 105.8 13.5404C103.925 14.4817 103.853 14.5059 103.973 13.9507C104.045 13.637 104.238 12.5991 104.406 11.6337L104.694 9.87172L103.084 8.39941C101.233 6.73401 101.257 6.6616 103.661 6.3961C104.526 6.29955 105.439 6.1306 105.704 6.03406C105.992 5.91337 106.569 5.04447 107.146 3.88593L108.083 1.90676L109.117 3.9342C109.838 5.43065 110.271 6.00992 110.679 6.10646Z" fill="#E3168F"/>
<path d="M10.9223 2.51017L9.67246 5.02033L7.38905 5.30997C4.76915 5.67201 4 5.88924 4 6.32369C4 6.49264 4.86529 7.45809 5.9469 8.47181L7.91784 10.3062L7.4852 12.9853C7.17273 14.892 7.10062 15.761 7.29291 15.954C7.46116 16.123 8.27838 15.8334 10.033 14.9403L12.5568 13.7094L15.0325 14.9645C16.7871 15.8334 17.6043 16.123 17.7725 15.954C17.9648 15.761 17.8927 14.892 17.5803 12.9853L17.1476 10.3062L19.1185 8.47181C20.2002 7.45809 21.0655 6.49264 21.0655 6.32369C21.0655 5.88924 20.2963 5.67201 17.6764 5.30997L15.393 5.02033L14.1431 2.51017C13.374 0.989585 12.749 2.25791e-08 12.5327 2.25791e-08C12.3164 2.25791e-08 11.6915 0.989585 10.9223 2.51017ZM15.1046 6.10646C15.417 6.17887 16.3064 6.32369 17.0995 6.3961C19.3589 6.6616 19.3829 6.75814 17.5562 8.39941L15.9458 9.87172L16.2342 11.6337C16.4025 12.5991 16.5948 13.637 16.6669 13.9507C16.7871 14.5059 16.715 14.4817 14.8402 13.5404C13.7826 12.9853 12.725 12.5508 12.5327 12.5508C12.3404 12.5508 11.2829 12.9853 10.2253 13.5404C8.35049 14.4817 8.27838 14.5059 8.39856 13.9507C8.47067 13.637 8.66296 12.5991 8.83121 11.6337L9.11964 9.87172L7.50923 8.39941C5.65847 6.73401 5.68251 6.6616 8.08609 6.3961C8.95139 6.29955 9.86475 6.1306 10.1291 6.03406C10.4176 5.91337 10.9944 5.04447 11.5713 3.88593L12.5087 1.90676L13.5422 3.9342C14.2633 5.43065 14.696 6.00992 15.1046 6.10646Z" fill="#E3168F"/>
</svg>
