<svg width="59" height="59" viewBox="0 0 59 59" fill="none" xmlns="http://www.w3.org/2000/svg">
<g clip-path="url(#clip0_32_2922)">
<path d="M29.0493 0.358287C13.032 0.344806 0.0403464 13.3186 0.026866 29.3359C0.0133855 45.3531 12.9871 58.3448 29.0044 58.3583C45.0196 58.3448 58.0022 45.3734 58.0269 29.3583C58.0269 13.3499 45.0576 0.371767 29.0493 0.358287ZM29.0044 53.5325C15.6537 53.5325 4.83033 42.709 4.83033 29.3583C4.83033 16.0075 15.6537 5.18418 29.0044 5.18418C42.3507 5.19766 53.1651 16.0121 53.1785 29.3583C53.1785 42.709 42.3552 53.5325 29.0044 53.5325Z" fill="url(#paint0_linear_32_2922)"/>
<path d="M36.8378 27.9441C38.7772 26.8509 39.8254 24.6626 39.464 22.4673C39.0151 19.078 34.9749 17.7985 31.7875 17.5292V12.4341H28.6451V17.4844H26.5352V12.4341H23.3928V17.4844H17.063V20.7391H19.4198C20.4748 20.7391 20.991 21.0533 20.991 21.9062V35.89C20.991 37.0571 20.4074 37.4163 19.7789 37.4163H17.3772V40.7383H23.4825V45.9009H26.6474V40.7383H28.7572V45.9009H31.8324V40.7383H32.5057C38.9701 40.7383 41.125 37.5734 41.125 33.2639C41.0733 30.7229 39.3113 28.5367 36.8378 27.9441ZM26.5351 20.941H28.7797C30.3509 20.941 33.4484 21.2104 33.4484 23.7692C33.5562 25.4392 32.3463 26.9027 30.6876 27.1136H26.5351V20.941ZM30.0142 37.102V37.0795H26.5351V30.3458H30.5754C31.5181 30.3458 35.0645 30.66 35.0645 33.1739C35.0645 35.6879 33.3812 37.102 30.0142 37.102Z" fill="url(#paint1_linear_32_2922)"/>
</g>
<defs>
<linearGradient id="paint0_linear_32_2922" x1="31.9269" y1="-8.77136" x2="35.1991" y2="93.9744" gradientUnits="userSpaceOnUse">
<stop stop-color="#FD749B"/>
<stop offset="1" stop-color="#281AC8"/>
</linearGradient>
<linearGradient id="paint1_linear_32_2922" x1="30.2971" y1="7.16616" x2="32.9207" y2="66.3958" gradientUnits="userSpaceOnUse">
<stop stop-color="#FD749B"/>
<stop offset="1" stop-color="#281AC8"/>
</linearGradient>
<clipPath id="clip0_32_2922">
<rect width="58" height="58" fill="white" transform="translate(0.0268555 0.358398)"/>
</clipPath>
</defs>
</svg>
