<svg xmlns="http://www.w3.org/2000/svg" xmlns:xlink="http://www.w3.org/1999/xlink"><defs><style>
    .sprite-symbol-usage {display: none;}
    .sprite-symbol-usage:target {display: inline;}
  </style><symbol viewBox="0 0 22 22" id="arrow"><path d="M0 16.5h5.5V22H0Z" fill="#fb3b1e" /><path d="M5.5 11H11v5.5H5.5Z" fill="#fb6049" /><path d="M11 5.5h5.5V11H11Z" fill="#fc9c8e" /><path d="M11 0h5.5v5.5H11ZM5.5 0H11v5.5H5.5Z" fill="#fb4e33" /><path d="M16.5 0H22v5.5h-5.5Z" fill="#fb3b1e" /><path d="M16.5 5.5H22V11h-5.5ZM16.5 11H22v5.5h-5.5Z" fill="#fb4e33" /></symbol><symbol viewBox="0 0 180 330" id="arrow_left"><path d="m4.39 175.61 150 150a15 15 0 0 0 21.22-21.22L36.21 165l139.4-139.39a15 15 0 0 0-21.22-21.22l-150 150a15 15 0 0 0 0 21.21Z" /></symbol><symbol viewBox="0 0 180 330" id="arrow_right"><path d="m175.61 154.39-150-150A15 15 0 0 0 4.39 25.61L143.79 165 4.39 304.39a15 15 0 0 0 21.22 21.22l150-150a15 15 0 0 0 0-21.21Z" /></symbol><symbol viewBox="0 0 78 78" id="at"><path fill="#fe3b1f" d="M54 48h6v6h-6zM54 54h6v6h-6zM18 30h6v6h-6zM18 36h6v6h-6zM18 42h6v6h-6zM24 24h6v6h-6zM24 48h6v6h-6zM30 18h6v6h-6zM30 54h6v6h-6zM36 18h6v6h-6zM36 54h6v6h-6zM42 18h6v6h-6zM42 54h6v6h-6zM48 24h6v6h-6zM54 30h6v6h-6zM54 36h6v6h-6z" /><path fill="#fff" d="M36 36h6v6h-6z" /><path fill="#fe3b1f" d="M54 42h6v6h-6z" /><path fill="#1da0df" d="M0 24h6v6H0zM0 18h6v6H0zM0 30h6v6H0zM0 36h6v6H0zM0 42h6v6H0zM0 48h6v6H0zM0 54h6v6H0zM72 24h6v6h-6zM72 18h6v6h-6zM72 30h6v6h-6zM72 36h6v6h-6zM72 42h6v6h-6zM72 48h6v6h-6zM66 54h6v6h-6zM60 54h6v6h-6zM54 72h6v6h-6zM60 6h6v6h-6zM66 12h6v6h-6zM12 6h6v6h-6zM6 12h6v6H6zM12 66h6v6h-6zM6 60h6v6H6zM24 0h6v6h-6zM18 0h6v6h-6zM30 0h6v6h-6zM36 0h6v6h-6zM42 0h6v6h-6zM48 0h6v6h-6zM54 0h6v6h-6zM24 72h6v6h-6zM18 72h6v6h-6zM30 72h6v6h-6zM36 72h6v6h-6zM42 72h6v6h-6zM48 72h6v6h-6z" /></symbol><symbol viewBox="0 0 28.071 28" id="bell"><path fill="#fb4e33" d="M5.614 5.6h5.614v5.6H5.614z" /><path fill="#fe3b1f" d="M11.228 0h5.614v5.6h-5.614z" /><path fill="#e51f1f" d="M16.842 5.6h5.614v5.6h-5.614z" /><path fill="#fe3b1f" d="M16.842 11.2h5.614v5.6h-5.614z" /><path d="M5.614 11.2h5.614v5.6H5.614Z" fill="#fa271b" /><path d="M0 16.8h5.614v5.6H0Z" fill="#e51f1f" /><path fill="#ff2707" d="M22.457 16.8h5.614v5.6h-5.614z" /><path fill="#fb4e33" d="M11.228 16.8h5.614v5.6h-5.614z" /><path fill="#fe3b1f" d="M5.614 16.8h5.614v5.6H5.614z" /><path fill="#e51f1f" d="M16.842 16.8h5.614v5.6h-5.614zM11.228 11.2h5.614v5.6h-5.614z" /><path fill="#fe3b1f" d="M11.228 5.6h5.614v5.6h-5.614z" /><path fill="#1fa5e1" d="M11.228 22.4h5.614V28h-5.614z" /></symbol><symbol viewBox="0 0 114 72" id="bike"><path fill="#1da0df" d="M0 36h6v6H0zM0 42h6v6H0zM0 48h6v6H0zM6 30h6v6H6zM36 30h6v6h-6zM6 60h6v6H6zM0 54h6v6H0zM42 42h6v6h-6zM42 48h6v6h-6zM42 54h6v6h-6zM12 24h6v6h-6zM12 66h6v6h-6zM18 66h6v6h-6zM24 24h6v6h-6zM24 66h6v6h-6zM30 66h6v6h-6zM36 60h6v6h-6zM66 42h6v6h-6zM66 48h6v6h-6zM102 30h6v6h-6zM72 60h6v6h-6zM66 54h6v6h-6zM108 36h6v6h-6zM108 42h6v6h-6zM108 48h6v6h-6zM108 54h6v6h-6zM78 24h6v6h-6zM84 24h6v6h-6zM96 24h6v6h-6zM78 66h6v6h-6zM84 66h6v6h-6zM90 24h6v6h-6zM90 66h6v6h-6zM96 66h6v6h-6zM102 60h6v6h-6z" /><path fill="#fb3b1e" d="M42 30h6v6h-6zM48 30h6v6h-6z" /><path fill="#00b451" d="M66 30h6v6h-6z" /><path fill="#fb3b1e" d="M24 24h6v6h-6zM24 30h6v6h-6zM30 30h6v6h-6z" /><path fill="#00b451" d="M60 24h6v6h-6z" /><path fill="#fb3b1e" d="M36 30h6v6h-6z" /><path fill="#00b451" d="M54 18h6v6h-6zM48 12h6v6h-6z" /><path fill="#fb3b1e" d="M30 18h6v6h-6zM36 12h6v6h-6z" /><path fill="#00b451" d="M42 6h6v6h-6zM36 0h6v6h-6z" /><path fill="#fb3b1e" d="M60 0h6v6h-6zM54 0h6v6h-6zM78 0h6v6h-6zM72 0h6v6h-6zM66 0h6v6h-6zM78 6h6v6h-6zM72 12h6v6h-6zM66 18h6v6h-6z" /><path fill="#fff" d="M87 45h6v6h-6zM21 45h6v6h-6z" /></symbol><symbol viewBox="0 0 18.6 18.6" id="check"><g fill="none" stroke="#3db256" stroke-miterlimit="10" stroke-width="1.6"><path d="M5.15 8.12 9.3 11.4l7.41-8.35" /><path d="M17.48 7a8.73 8.73 0 0 1 .32 2.3 8.51 8.51 0 1 1-4.31-7.39" /></g></symbol><symbol viewBox="0 0 17.83 17.83" id="close"><path d="m8.92 8.91-7.5 7.5 7.5-7.5-7.5-7.5 7.5 7.5 7.5-7.5-7.5 7.5 7.5 7.5ZM17.83 15l-6.09-6.09 6.09-6.08L15 0 8.92 6.08 2.83 0 0 2.83l6.09 6.08L0 15l2.83 2.83 6.09-6.09L15 17.83Z" /></symbol><symbol viewBox="0 0 89.99 78" id="cloud"><path fill="#fb3b1e" d="M24 30h6v6h-6z" /><path fill="#00b451" d="M42 30h6v6h-6z" /><path fill="#1da0df" d="M60 30h6v6h-6zM6 6h6v6H6zM6 54h6v6H6zM12 0h6v6h-6zM24 0h6v6h-6zM12 60h6v6h-6zM24 60h6v6h-6zM18 0h6v6h-6zM18 60h6v6h-6zM30 0h6v6h-6zM36 0h6v6h-6zM42 0h6v6h-6zM48 0h6v6h-6zM54 0h6v6h-6zM30 60h6v6h-6zM36 60h6v6h-6zM42 60h6v6h-6zM77.99 6h6v6h-6zM0 12h6v6H0zM0 24h6v6H0zM0 30h6v6H0zM0 36h6v6H0zM0 42h6v6H0zM0 18h6v6H0zM0 48h6v6H0zM77.99 54h6v6h-6zM83.99 12h6v6h-6zM83.99 24h6v6h-6zM83.99 18h6v6h-6zM83.99 30h6v6h-6zM83.99 36h6v6h-6zM83.99 42h6v6h-6zM83.99 48h6v6h-6zM71.99 0h6v6h-6zM65.99 0h6v6h-6z" /><path fill="#1da0df" d="M60 0h6v6h-6zM71.99 60h6v6h-6zM65.99 60h6v6h-6zM60 66h6v6h-6zM54 72h6v6h-6z" /></symbol><symbol viewBox="0 0 17.83 17.83" id="cookie-close"><path d="m8.92 8.91-7.5 7.5 7.5-7.5-7.5-7.5 7.5 7.5 7.5-7.5-7.5 7.5 7.5 7.5ZM17.83 15l-6.09-6.09 6.09-6.08L15 0 8.92 6.08 2.83 0 0 2.83l6.09 6.08L0 15l2.83 2.83 6.09-6.09L15 17.83Z" /></symbol><symbol viewBox="0 0 78 84" id="cup"><path fill="#1da0df" d="M0 36h6v6H0zM0 30h6v6H0zM0 24h6v6H0zM0 42h6v6H0zM0 48h6v6H0zM0 54h6v6H0zM0 60h6v6H0zM6 72h6v6H6zM12 24h6v6h-6zM6 24h6v6H6zM12 78h6v6h-6zM18 24h6v6h-6zM18 78h6v6h-6zM24 24h6v6h-6zM24 78h6v6h-6zM30 24h6v6h-6zM30 78h6v6h-6zM36 24h6v6h-6zM42 24h6v6h-6zM48 24h6v6h-6zM36 78h6v6h-6zM42 78h6v6h-6zM54 36h6v6h-6z" /><path fill="#fff" d="M36 42h6v6h-6zM36 48h6v6h-6z" /><path fill="#1da0df" d="M54 30h6v6h-6zM54 24h6v6h-6z" /><path fill="#fb3b1e" d="M24 6h6v6h-6z" /><path fill="#00b451" d="M36 3h6v6h-6z" /><path fill="#1da0df" d="M48 0h6v6h-6zM54 42h6v6h-6zM54 48h6v6h-6zM54 54h6v6h-6zM66 36h6v6h-6zM66 54h6v6h-6zM72 48h6v6h-6zM72 42h6v6h-6zM54 60h6v6h-6zM48 72h6v6h-6z" /></symbol><symbol viewBox="0 0 96 66" id="faces"><path fill="#1da0df" d="M72 0h6v6h-6zM72 60h6v6h-6zM78 6h6v6h-6zM78 54h6v6h-6zM84 12h6v6h-6zM84 18h6v6h-6zM84 24h6v6h-6zM72 24h6v6h-6zM84 36h6v6h-6zM84 42h6v6h-6zM84 48h6v6h-6zM90 30h6v6h-6z" /><path fill="#00b451" d="M36 0h6v6h-6zM36 60h6v6h-6zM42 6h6v6h-6zM42 54h6v6h-6zM48 12h6v6h-6zM48 18h6v6h-6zM48 24h6v6h-6zM36 24h6v6h-6zM48 36h6v6h-6zM48 42h6v6h-6zM48 48h6v6h-6zM54 30h6v6h-6z" /><path fill="#fb3b1e" d="M0 0h6v6H0zM0 60h6v6H0zM6 6h6v6H6zM6 54h6v6H6zM12 12h6v6h-6zM12 18h6v6h-6zM12 24h6v6h-6zM0 24h6v6H0zM12 36h6v6h-6zM12 42h6v6h-6zM12 48h6v6h-6zM18 30h6v6h-6z" /></symbol><symbol viewBox="0 0 38 33" id="heart"><path d="M16.28 32.56v-5.427h5.426v5.426z" fill="#fe3b1f" /><path d="M10.853 27.132v-5.426h5.426v5.426z" fill="#fe3b1f" /><path d="M5.426 21.706v-5.427h5.426v5.427z" fill="#fff" /><path d="M0 16.28v-5.426h5.426v5.426z" fill="#00a0df" /><path d="M0 10.853V5.427h5.426v5.426z" fill="#fff" /><path d="M5.426 5.426V0h5.426v5.426z" fill="#00a0df" /><path d="M10.853 5.426V0h5.426v5.426z" fill="#fe3b1f" /><g transform="rotate(-180 19.005 29.845)"><path d="M16.294 32.559v-5.427h5.427v5.427z" fill="#fe3b1f" /></g><g transform="rotate(-180 24.435 24.42)"><path d="M21.72 27.133v-5.427h5.426v5.427z" fill="#00b451" /></g><g transform="rotate(-180 29.86 18.995)"><path d="M27.147 21.706V16.28h5.426v5.426z" fill="#fe3b1f" /></g><g transform="rotate(-180 35.285 13.565)"><path d="M32.574 16.28v-5.427H38v5.426z" fill="#fff" /></g><g transform="rotate(-180 35.285 8.14)"><path d="M32.574 10.854V5.427H38v5.427z" fill="#00a0df" /></g><g transform="rotate(-180 29.86 2.715)"><path d="M27.147 5.427V0h5.426v5.427z" fill="#fe3b1f" /></g><g transform="rotate(-180 24.435 2.715)"><path d="M21.72 5.427V0h5.426v5.427z" fill="#00b451" /></g><path d="M16.28 10.853V5.427h5.426v5.426z" fill="#fe3b1f" /></symbol><symbol viewBox="0 0 66 78" id="list"><path fill="#1da0df" d="M0 12h6v6H0zM0 18h6v6H0zM0 24h6v6H0zM0 30h6v6H0zM0 36h6v6H0zM0 42h6v6H0zM0 48h6v6H0z" /><path fill="#fff" d="M0 54h6v6H0z" /><path fill="#1da0df" d="M0 60h6v6H0zM6 66h6v6H6zM12 0h6v6h-6zM6 0h6v6H6zM12 72h6v6h-6zM18 0h6v6h-6z" /><path fill="#fff" d="M18 72h6v6h-6zM18 66h6v6h-6zM18 60h6v6h-6zM18 54h6v6h-6zM12 54h6v6h-6zM6 54h6v6H6z" /><path fill="#1da0df" d="M24 0h6v6h-6zM24 72h6v6h-6zM30 0h6v6h-6zM30 72h6v6h-6zM36 0h6v6h-6zM42 0h6v6h-6zM48 0h6v6h-6zM54 0h6v6h-6zM36 72h6v6h-6zM42 72h6v6h-6zM48 72h6v6h-6zM54 72h6v6h-6zM60 30h6v6h-6zM60 24h6v6h-6zM60 18h6v6h-6zM60 12h6v6h-6zM0 6h6v6H0zM60 6h6v6h-6zM60 0h6v6h-6zM60 36h6v6h-6zM60 42h6v6h-6zM60 48h6v6h-6zM60 54h6v6h-6zM60 60h6v6h-6zM60 66h6v6h-6z" /><path fill="#fe3b1f" d="M18 24h6v6h-6z" /><path fill="#2bb451" d="M18 36h6v6h-6z" /><path fill="#1da0df" d="M30 24h18v6H30zM30 36h18v6H30z" /></symbol><symbol viewBox="0 0 18.48 18.48" id="menu"><path d="M0 0h3.69v3.69H0Zm7.39 0h3.7v3.69h-3.7Zm7.39 0h3.7v3.69h-3.7ZM0 7.39h3.69v3.7H0Zm7.39 0h3.7v3.7h-3.7Zm7.39 0h3.7v3.7h-3.7ZM0 14.78h3.69v3.7H0Zm7.39 0h3.7v3.7h-3.7Zm7.39 0h3.7v3.7h-3.7Z" fill="currentColor" /></symbol><symbol viewBox="0 0 22 22" id="pixel_arrow"><path d="M0 22v-5.5h5.5V22z" fill="#fb3b1e" /><path d="M5.5 16.5V11H11v5.5z" fill="#fb6049" /><path d="M11 11V5.5h5.5V11z" fill="#fc9c8e" /><path d="M11 5.5V0h5.5v5.5z" fill="#fb4e33" /><path d="M5.5 5.5V0H11v5.5z" fill="#fb4e33" /><path d="M16.5 5.5V0H22v5.5z" fill="#fb3b1e" /><path d="M16.5 11V5.5H22V11z" fill="#fb4e33" /><path d="M16.5 16.5V11H22v5.5z" fill="#fb4e33" /></symbol><symbol viewBox="0 0 8.041 13.566" id="right_angle_arrow"><path d="M.369.368a1.258 1.258 0 0 0 0 1.779l4.635 4.635-4.635 4.635a1.258 1.258 0 0 0 1.779 1.779l5.525-5.525a1.258 1.258 0 0 0 0-1.779L2.148.367A1.258 1.258 0 0 0 .369.368Z" fill="currentColor" /></symbol><symbol viewBox="0 0 32 32" id="tickIcon"><path d="M0 16C0 7.163 7.163 0 16 0s16 7.163 16 16-7.163 16-16 16S0 24.837 0 16z" fill="currentColor" /><path d="M22.225 11.768a.927.927 0 0 0-1.312 0l-6.417 7.417-3.416-3.417a.927.927 0 1 0-1.312 1.312l4.073 4.072a.927.927 0 0 0 1.311 0l7.073-8.072a.927.927 0 0 0 0-1.312z" fill="#242b4d" /></symbol></defs><use id="arrow-usage" xlink:href="#arrow" class="sprite-symbol-usage" /><use id="arrow_left-usage" xlink:href="#arrow_left" class="sprite-symbol-usage" /><use id="arrow_right-usage" xlink:href="#arrow_right" class="sprite-symbol-usage" /><use id="at-usage" xlink:href="#at" class="sprite-symbol-usage" /><use id="bell-usage" xlink:href="#bell" class="sprite-symbol-usage" /><use id="bike-usage" xlink:href="#bike" class="sprite-symbol-usage" /><use id="check-usage" xlink:href="#check" class="sprite-symbol-usage" /><use id="close-usage" xlink:href="#close" class="sprite-symbol-usage" /><use id="cloud-usage" xlink:href="#cloud" class="sprite-symbol-usage" /><use id="cookie-close-usage" xlink:href="#cookie-close" class="sprite-symbol-usage" /><use id="cup-usage" xlink:href="#cup" class="sprite-symbol-usage" /><use id="faces-usage" xlink:href="#faces" class="sprite-symbol-usage" /><use id="heart-usage" xlink:href="#heart" class="sprite-symbol-usage" /><use id="list-usage" xlink:href="#list" class="sprite-symbol-usage" /><use id="menu-usage" xlink:href="#menu" class="sprite-symbol-usage" /><use id="pixel_arrow-usage" xlink:href="#pixel_arrow" class="sprite-symbol-usage" /><use id="right_angle_arrow-usage" xlink:href="#right_angle_arrow" class="sprite-symbol-usage" /><use id="tickIcon-usage" xlink:href="#tickIcon" class="sprite-symbol-usage" /></svg>