<?xml version="1.0" encoding="UTF-8"?>
<svg id="SVGDoc" width="100%" height="100%" xmlns="http://www.w3.org/2000/svg" version="1.1" xmlns:xlink="http://www.w3.org/1999/xlink" xmlns:avocode="https://avocode.com/" viewBox="0 0 165 97"><defs></defs><desc>Generated with Avocode.</desc><g><g><title>logo-completo-2</title><g><title>Path</title><path d="M79.7505,57.24707c-0.36726,-1.99951 -0.92487,-3.95947 -1.66528,-5.85303c-0.37139,-0.9248 -0.80268,-1.84961 -1.23398,-2.77441c-0.43242,-0.91504 -0.92677,-1.80029 -1.47958,-2.61963c-1.06759,-1.79102 -2.30765,-3.44287 -3.70193,-5c1.05067,-1.82324 1.91832,-3.78369 2.59076,-5.81348c0.43615,-1.33203 0.73952,-2.69043 1.04829,-4.06689c-0.00922,-0.11963 0.01308,-0.17578 0.06289,-0.24854c0.24561,-1.47852 0.4313,-3.01953 0.5541,-4.48877v-1.54736c0,-0.67627 0,-1.35547 -0.0599,-2.03174v-0.18555c-0.0323,-0.5376 -0.09429,-1.07324 -0.1857,-1.61768v-0.35449c-0.98838,-8.13965 -4.99583,-15.28564 -10.79434,-20.58545l-12.47159,10.93994c0.5034,0.38721 0.97772,0.83984 1.41968,1.32324l0.0599,0.06006c0.51237,0.6167 0.98656,1.20313 1.41969,1.84912c0.68651,0.88086 1.21732,1.85693 1.60537,2.89697c1.08114,2.52344 1.74075,5.24756 1.79706,8.01074c0.0599,5.36279 -1.41968,9.79785 -4.56453,13.68213c-1.29688,1.60107 -2.59076,2.71094 -4.01044,3.4502c0.29951,0.06299 0.55708,0.18555 0.85905,0.24561c0.07044,0.01074 0.13214,0.03223 0.18924,0.06299c0.6014,0.18213 1.18093,0.41895 1.72817,0.73877c0.08259,0 0.08259,0.06299 0.18569,0.12305c0.64328,0.32422 1.26192,0.69531 1.8969,1.10986c0,0.03467 0,0.05664 0.07687,0.06299c0.83883,0.60742 1.62257,1.28711 2.34216,2.03174c3.39346,3.63623 4.68733,9.12158 4.68733,12.75732c0.0629,3.82129 -0.61699,10.90771 -5.42712,15.65381c-4.37883,4.3125 -7.83218,5.85352 -14.12489,6.03906h-24.42204v0l-18.13233,15.90234v0h46.2593c10.7407,0 20.82649,-5 27.2554,-13.56201c2.3233,-3.04004 4.10175,-6.43799 5.2564,-10.10596c0.33118,-1.07129 0.59822,-2.16162 0.79969,-3.26465c0.1228,-0.55664 0.1857,-1.06738 0.29951,-1.66406c0.26963,-1.69287 0.41379,-3.40332 0.4313,-5.11719c-0.00016,-2.02588 -0.18563,-4.04687 -0.5541,-6.03906" fill="#ffffff" fill-opacity="1"></path></g><g><title>Path</title><path d="M31.3994,65.20117v0v0v0v-9.06104v0h10.30015v0l11.16273,-9.73486c-0.57168,-0.40527 -1.17287,-0.66797 -1.79706,-0.9248c-0.06522,0 -0.1228,-0.0625 -0.1827,-0.0625c-2.15947,-0.79932 -4.99883,-1.29297 -9.12906,-1.23291h-23.55346v0v32.81494v0z" fill="#ffffff" fill-opacity="1"></path></g><g><title>Path</title><path d="M31.39809,29.39795v0v-7.02637v0h7.2152c0.24925,-0.01025 0.49881,0.01074 0.74278,0.06299l10.91414,-9.61523c-0.73,-0.53564 -1.51638,-0.99023 -2.34516,-1.35547h-0.0629c-0.1827,-0.06006 -0.43129,-0.18262 -0.6769,-0.24561c-2.39608,-0.86182 -5.36722,-1.29248 -8.88345,-1.21826c-4.43874,0 -16.22147,0 -20.3018,0v31.10791v0z" fill="#ffffff" fill-opacity="1"></path></g><g><title>Shape</title><path d="M101.76688,86.71289v0v4.48877c0.43129,-0.73926 1.35678,-1.11035 2.23312,-1.11035c1.92329,0 3.4426,1.51807 3.4426,3.39063c0,1.87256 -1.5193,3.39063 -3.4426,3.39063c-0.86311,0.02783 -1.72559,-0.41504 -2.23312,-1.17334l-1.29687,0.98779v0v-10.03711v0h1.29688v0zM103.92635,95.7085c0.56657,0 1.07365,-0.229 1.50409,-0.63477c0.39494,-0.40576 0.56956,-0.9541 0.56956,-1.52002c0.05215,-0.77881 -0.34692,-1.55371 -1,-1.90869c-0.68784,-0.39844 -1.52238,-0.39844 -2.19284,0c-0.67046,0.35498 -1.06953,1.12988 -1.04028,1.90869c-0.01677,0.57715 0.23312,1.13525 0.61421,1.54297c0.40877,0.4082 0.96783,0.62939 1.54526,0.61182" fill="#ffffff" fill-opacity="1"></path></g><g><title>Rectangle</title><path d="M109.05,86.77002v0h1.29388v0v10.0459v0h-1.29388v0z" fill="#ffffff" fill-opacity="1"></path></g><g><title>Shape</title><path d="M112,93.54297c0,-0.90918 0.32494,-1.7915 1,-2.43506c0.61273,-0.64307 1.49574,-0.98975 2.40573,-0.95557c1.91087,0 3.45335,1.35547 3.45335,3.39063c0,1.88867 -1.53271,3.45703 -3.4234,3.45703c-1.8907,0 -3.43568,-1.56836 -3.43568,-3.45703M117.56519,93.54883c0.01762,-0.54883 -0.20424,-1.13672 -0.56519,-1.54883c-0.45677,-0.40479 -1,-0.62646 -1.59428,-0.60889c-0.57999,-0.0249 -1.14381,0.19434 -1.55431,0.60889c-0.41049,0.40576 -0.63,1 -0.60515,1.54883c-0.02487,0.58447 0.19283,1.15283 0.60165,1.57178c0.40881,0.41846 0.97249,0.6499 1.5578,0.63965c1.20642,-0.02295 2.16954,-1.01172 2.15947,-2.21729" fill="#ffffff" fill-opacity="1"></path></g><g><title>Path</title><path d="M122,93.91846c-1.1693,-0.29932 -1.84619,-0.91846 -1.72339,-2.09473c0.1228,-0.9873 1.11118,-1.66357 2.28227,-1.66357c1.17108,0 2.15945,0.55371 2.28226,1.83984h-1.23398c-0.0629,-0.48437 -0.49419,-0.72998 -1.04828,-0.72998c-0.42952,-0.03467 -0.83118,0.21582 -0.98839,0.6167c-0.06035,0.11328 -0.06035,0.33252 0,0.49072c0.16339,0.26367 0.4295,0.44385 0.73979,0.49365l0.98839,0.24561c1.23398,0.29932 1.70132,1.05029 1.70132,1.8833c0,1.26172 -1.20714,2 -2.56392,2c-1.23398,0 -2.43608,-0.80127 -2.43608,-2.09375h1.21408c0.02585,0.33252 0.24171,0.62061 0.55409,0.73926c0.3181,0.18164 0.6824,0.26709 1.04829,0.24512c0.61699,-0.05957 0.98837,-0.36816 0.98837,-0.89062c0,-0.46484 -0.37138,-0.71045 -0.86559,-0.77295z" fill="#ffffff" fill-opacity="1"></path></g><g><title>Path</title><path d="M128.16478,93.91846c-1.16478,-0.29932 -1.85097,-0.91846 -1.72816,-2.09473c0.12279,-0.9873 1.11118,-1.66357 2.28227,-1.66357c1.17107,0 2.15945,0.55371 2.28111,1.83984h-1.23283c-0.05991,-0.48437 -0.4942,-0.72998 -1.04828,-0.72998c-0.42871,-0.03418 -0.8293,0.21631 -0.9854,0.6167c-0.06331,0.11328 -0.06331,0.3335 0,0.49072c0.16341,0.26367 0.43326,0.44385 0.73979,0.49365l0.98538,0.24561c1.23399,0.29932 1.66528,1.05029 1.66528,1.8833c0,1.26172 -1.12395,2 -2.52786,2c-1.23398,0 -2.39609,-0.80127 -2.39609,-2.09375h1.17108c0.02657,0.33252 0.24219,0.62012 0.55411,0.73926c0.31808,0.18164 0.68239,0.26709 1.07481,0.24512c0.59045,-0.05957 1,-0.36816 1,-0.89062c0,-0.46484 -0.40955,-0.71045 -0.90074,-0.77295z" fill="#ffffff" fill-opacity="1"></path></g><g><title>Shape</title><path d="M132.3624,93.55273c-0.03487,-0.90918 0.31145,-1.79199 0.95555,-2.43555c0.68205,-0.64355 1.52766,-0.98975 2.4379,-0.95459c1.91087,0 3.45335,1.35547 3.45335,3.39014c0,1.88916 -1.53271,3.44727 -3.4234,3.44727c-1.89069,0 -3.4234,-1.55811 -3.4234,-3.44727M137.91531,93.55273c0.01762,-0.55273 -0.20424,-1.13623 -0.6131,-1.55273c-0.40886,-0.40039 -0.96843,-0.62207 -1.54637,-0.60449c-0.57999,-0.0249 -1.14381,0.19434 -1.55432,0.60449c-0.41048,0.41016 -0.63,1 -0.60515,1.55273c-0.02655,0.58545 0.19038,1.15576 0.5994,1.57568c0.40901,0.42041 0.97366,0.65234 1.56007,0.64209c0.58327,0 1.1418,-0.23535 1.54855,-0.65283c0.40674,-0.41797 0.62709,-0.98242 0.61092,-1.56494" fill="#ffffff" fill-opacity="1"></path></g><g><title>Path</title><path d="M146.6745,93.30469v0v3.51318v0h-1.29687v0v-3.69873c0,-1.04736 -0.55409,-1.72363 -1.37762,-1.72363c-1,0 -1.83612,0.60449 -1.83612,1.90918v3.51318v0h-1.29388v0v-6.53271v0l1.29388,0.9873c0.29951,-0.6792 1.23398,-1.05029 1.83612,-1.10986c0.20905,-0.00977 0.45741,0.01025 0.70073,0.05957c0.76825,0.08594 1.42905,0.58252 1.72517,1.2959c0.43196,-0.85693 1.32231,-1.38623 2.28227,-1.35547c1.66527,0 2.53085,1.04736 2.53085,2.89648v3.75879v0h-1.35678v0v-3.69873c0,-1.04736 -0.55708,-1.72363 -1.48257,-1.72363c-1.04828,0 -1.72517,0.80176 -1.72517,1.90918" fill="#ffffff" fill-opacity="1"></path></g><g><title>Shape</title><path d="M111.88789,15l-2.59076,-8.54199l-2.71356,8.54199h-2.95016l-3.95653,-12.65674c-0.0802,-0.34326 -0.22726,-0.61084 -0.4313,-0.86475l-0.86557,-1.41553v-0.06299h6.2897v0.06299l-1.0363,1.41553c-0.12579,0.12549 -0.12579,0.29883 -0.0629,0.52148l3.26166,10.56885l2.21938,-6.88281l-1.05154,-3.32812c-0.06818,-0.28857 -0.19423,-0.56055 -0.36813,-0.80176l-0.7997,-1.49316v-0.06299h6.16783v0.06299l-1,1.41553c-0.16113,0.16357 -0.18469,0.37207 -0.11211,0.52148l3.20776,10.56885l2.77644,-8.97803c0.1279,-0.25244 0.03891,-0.53027 -0.1228,-0.7417l-1.91386,-2.78613v-0.06299h5.05873v0.06299l-2.03668,2.71094c-0.2339,0.22607 -0.40305,0.58252 -0.49419,0.9248l-3.51324,11.30127zM129,9.24414h-6.38066c0,1.29541 0.29951,2.28027 0.86559,2.89648c0.51508,0.63867 1.37053,0.99902 2.21936,0.98438c1.37431,0.06787 2.64888,-0.71533 3.20775,-1.97168h0.08797c-0.58215,2.65137 -2.12463,3.94385 -4.71539,3.94385c-1.36369,0.05371 -2.69322,-0.43359 -3.69894,-1.35547c-0.98839,-0.9248 -1.58566,-2.21729 -1.58566,-4.00391c0,-1.84961 0.53738,-3.26807 1.58566,-4.12988c0.98538,-0.9248 2.28227,-1.35547 3.82475,-1.35547c0.58958,-0.01709 1.12901,0.06592 1.66527,0.24512c0.53783,0.14648 1.04091,0.39893 1.47958,0.74219c0.44473,0.37549 0.8604,0.86133 1.11118,1.41553c0.23193,0.6748 0.33356,1.34473 0.33356,2.09473zM124.29959,4.68311c-0.55411,0 -0.9854,0.31689 -1.23099,0.98779c-0.29951,0.61621 -0.4343,1.72363 -0.4343,3.20508h3.13287v0v-0.6167c0,-1.25928 -0.12579,-2.25928 -0.3714,-2.77393c-0.15463,-0.48535 -0.59615,-0.79834 -1.09619,-0.80225" fill="#ffffff" fill-opacity="1"></path></g><g><title>Path</title><path d="M103.67902,52.75146c-0.05231,-0.09033 -0.07336,-0.19531 -0.05991,-0.29883v-8.37939v0h2.59076v0v-0.44287v0h-2.58177v0v-2.28027c0,-1.29248 0.24561,-1.97217 0.73979,-1.97217c0.1228,0 0.1857,0 0.1857,0.06299c0.05991,0 0.05991,0.12256 0.12279,0.24561l1.47958,3.01904v0h0.0629v0l1.34779,-3.20459c-1.1042,-0.31396 -2.24545,-0.50098 -3.39345,-0.50098c-1.35677,0 -2.34515,0.37793 -3.08495,1.11719c-0.6769,0.73926 -1.08826,1.88281 -1.08826,3.51318h-1.06822v0v0.43115v0h1.06822v0v8.56738c0,0.18164 0,0.37109 -0.15172,0.49072l-1.04828,0.98779v0v0.05957v0h6.58922v0v-0.05957v0l-1.60538,-1.10742c-0.01468,-0.09521 -0.05757,-0.18115 -0.12279,-0.24854" fill="#ffffff" fill-opacity="1"></path></g><g><title>Shape</title><path d="M111.65179,43.4502c-1.72816,0 -3.08495,0.49365 -4.07033,1.41846c-0.9854,0.92432 -1.58147,2.28027 -1.58147,4.00391c0,1.79541 0.52319,3.12744 1.50958,4.06982c0.98538,0.9248 2.34515,1.41553 4.07034,1.41553c1.72517,0 3.08495,-0.49072 4.07033,-1.41553c0.9854,-0.94238 1.54248,-2.28027 1.54248,-4.00732c0,-1.79541 -0.49419,-3.14209 -1.54248,-4.06641c-0.92249,-0.98779 -2.28226,-1.41846 -4.00743,-1.41846M112.93671,52.87939c-0.29951,0.73926 -0.73979,1.04736 -1.29388,1.04736c-0.55411,0 -0.98839,-0.36816 -1.29687,-1.11035c-0.34595,-0.74219 -0.42232,-2.03174 -0.42232,-4.00391c0,-1.97217 0.07637,-3.26758 0.43129,-3.94385c0.3085,-0.67627 0.7428,-1.04736 1.29688,-1.04736c0.55411,0 0.9854,0.36768 1.29388,1.04736c0.29951,0.73877 0.4313,2.03174 0.4313,3.94385c0,2.03223 -0.1228,3.32764 -0.4313,4.06689" fill="#ffffff" fill-opacity="1"></path></g><g><title>Path</title><path d="M123.73064,44.24365c-0.50996,0.59766 -0.85025,1.32129 -0.98538,2.09473v-2.71094v0h-4.74525v0v0.05957v0l1.05827,1.04736c0.13379,0.15234 0.20073,0.35156 0.1857,0.55371v7.33447c0.017,0.18359 -0.0515,0.37744 -0.1857,0.49072l-1.05827,0.98779v0v0.06006v0h7.16528v0v-0.06006v0l-2.09656,-1.23291c-0.18951,-0.12012 -0.30298,-0.32959 -0.29951,-0.55371v-5.73047c0.36839,-0.58398 0.614,-1.04736 0.92249,-1.22998c0.12581,-0.06299 0.24861,-0.06299 0.3714,0.12256l1.66527,1.97217v0h0.06291v0l1.20872,-3.32764c-0.36749,-0.44922 -0.90021,-0.7041 -1.45734,-0.6792c-0.69121,-0.02637 -1.35533,0.27002 -1.79706,0.80176" fill="#ffffff" fill-opacity="1"></path></g><g><title>Shape</title><path d="M104.36292,59.60498c0,-0.18555 0,-0.29932 0.05991,-0.37109c0.05991,-0.07178 0.12579,-0.06006 0.29951,-0.06006h0.73978c0.70256,-0.0166 1.37062,0.30371 1.79707,0.82617c0.43129,0.58936 0.61699,1.3916 0.61699,2.31592c0,1.04736 -0.1857,1.90918 -0.61699,2.46289c-0.4313,0.6167 -1.04829,0.86475 -1.85098,0.86475h-1.04828v0zM111,66.87646c-1.09087,-0.68164 -2.31841,-1.02637 -3.56412,-0.9873v-0.06006c1.35678,-0.12549 2.46797,-0.49365 3.20776,-1.10986c0.78058,-0.6001 1.21887,-1.54297 1.17406,-2.52588c0.05145,-1.06104 -0.49702,-2.06104 -1.41966,-2.58838c-0.92549,-0.60498 -2.28227,-0.86475 -3.94754,-0.86475h-7.6405v0v0.0625v0l1.41968,1.35596c0.12367,0.13428 0.19026,0.31104 0.1857,0.49365v11.15283c0.00456,0.19482 -0.06203,0.35986 -0.1857,0.49414l-1.41968,1.35547v0v0.06299v0h7.95798c1.66527,0 3.02205,-0.37109 4.00745,-1.11035c0.97418,-0.71924 1.52927,-1.87305 1.48257,-3.08252c0.09685,-1.05518 -0.40335,-2.07666 -1.258,-2.64844M105.4711,73.2749v0h-0.614c-0.2486,0 -0.3714,0 -0.4343,-0.06006c-0.06288,-0.06006 -0.05989,-0.21484 -0.05989,-0.37109v-6.70605v0h1.04828c0.98538,0 1.66528,0.29932 2.15947,0.8623c0.42934,0.61572 0.6769,1.47754 0.6769,2.64795c-0.05991,2.35205 -0.98538,3.63574 -2.77646,3.63574" fill="#ffffff" fill-opacity="1"></path></g><g><title>Shape</title><path d="M121.90207,64c-0.45358,-0.35059 -0.95229,-0.59961 -1.47958,-0.771c-0.53781,-0.17285 -1.10034,-0.229 -1.66527,-0.229c-1.54248,0 -2.83636,0.41455 -3.82474,1.33643c-0.98839,0.92139 -1.54248,2.28027 -1.54248,4.12939c0,1.79541 0.49419,3.08252 1.54248,4.00684c1.00041,0.91504 2.31969,1.40137 3.67497,1.35596c2.59077,0 4.19315,-1.2959 4.68733,-3.94434h-0.06288c-0.57126,1.24561 -1.83759,2.02393 -3.2319,1.97217c-0.82568,0.01611 -1.63881,-0.3457 -2.19522,-0.98779c-0.55409,-0.61621 -0.86259,-1.60059 -0.86259,-2.86865v-0.08789v0h6.41251v0v-0.49365c0.02461,-0.74268 -0.12299,-1.48096 -0.43129,-2.15771c-0.24388,-0.50635 -0.60284,-0.94922 -1.04828,-1.26074M120.10501,67.604v0h-3.10501c-0.07603,-1.08496 0.06973,-2.16797 0.39145,-3.20508c0.29951,-0.61621 0.6769,-0.98437 1.23398,-0.98437c0.49419,0 0.80269,0.24512 1.04829,0.79883c0.24559,0.49268 0.32628,1.41748 0.32628,2.78662c0.09409,0.18896 0.1153,0.39648 0.10501,0.604" fill="#ffffff" fill-opacity="1"></path></g><g><title>Shape</title><path d="M130,71.54736v0v0c-0.23091,0.45264 -0.70256,0.73389 -1.21729,0.73926c-0.36928,-0.00879 -0.71248,-0.19189 -0.92548,-0.49365c-0.27635,-0.39551 -0.40753,-0.87451 -0.3714,-1.35547c-0.02919,-0.56885 0.12173,-1.13184 0.4313,-1.61035c0.29904,-0.4126 0.78772,-0.64453 1.29688,-0.61621c0.27136,0.01025 0.54066,0.05127 0.78598,0.12256zM134,72.28662c-0.47005,0 -0.65276,-0.43066 -0.59285,-1.23291l0.1228,-3.05371v0v-0.70459c0,-1.5415 -0.36841,-2.65137 -1.04828,-3.29541c-0.6799,-0.70898 -1.79706,-1 -3.26767,-1c-1.47641,0 -2.9391,0.26514 -4.32191,0.78223l1.35678,3.01904v0h0.0629v0l1.68823,-3.20459c0.09984,-0.12305 0.16273,-0.18262 0.22264,-0.18262c0.12173,-0.03174 0.246,-0.05273 0.37138,-0.06299c1.04828,0 1.54248,0.80176 1.54248,2.46582v0.12256v0l-0.0629,2.28027c-0.55409,-0.37109 -1.29388,-0.55664 -2.28227,-0.55664c-0.91484,0.00293 -1.79134,0.33691 -2.52786,0.86523c-0.73978,0.55322 -1.04828,1.35547 -1.04828,2.33984c-0.04831,0.81885 0.24188,1.62158 0.78481,2.2207c0.55537,0.53662 1.29205,0.82617 2.05154,0.79883c0.64374,0.01855 1.27554,-0.17627 1.79707,-0.55371c0.50156,-0.33398 0.88654,-0.89111 1.15138,-1.47803c-0.06441,0.59082 0.18665,1.14404 0.63968,1.54102c0.44984,0.37158 1.01891,0.60303 1.60239,0.60303c0.98538,0 1.75793,-0.42041 2.09656,-1.21924c0.1185,-0.229 0.18208,-0.48193 0.1857,-0.78076h-0.0629c-0.10794,0.20508 -0.2953,0.29883 -0.46143,0.28662" fill="#ffffff" fill-opacity="1"></path></g><g><title>Path</title><path d="M145.80563,72.10547v0v-8.93555v0h-4.73825v0v0.06299v0l1.04829,1.04736c0.13379,0.15234 0.2007,0.35156 0.1857,0.55371v6.34717c-0.4343,0.61621 -0.92549,0.9873 -1.54248,0.9873c-0.52567,0.02344 -1.00334,-0.30371 -1.17108,-0.80176c-0.22054,-0.76123 -0.32158,-1.55127 -0.29951,-2.3667v-5.76709v0h-4.7083v0v0.05957v0l1.05128,1.04736c0.1223,0.13525 0.18776,0.31201 0.18269,0.49414c0,2.28027 -0.05991,3.82129 -0.05991,4.68311c0,1.41846 0.24593,2.48291 0.7997,3.26807c0.56696,0.74121 1.44623,1.15576 2.39607,1.10693c0.71516,0.00195 1.41023,-0.23633 1.97377,-0.67627c0.57965,-0.46289 1.00818,-1.08789 1.231,-1.79541v2.28027v0h4.75021v0v-0.06299v0l-1.04828,-1.04736c0,-0.12256 -0.0629,-0.24512 -0.0629,-0.49365" fill="#ffffff" fill-opacity="1"></path></g><g><title>Path</title><path d="M154.13269,63.16309v0h-2.22237v0v-3.57324v0h-0.0629v0l-2.96214,3.32764c-0.17047,0.18994 -0.42441,0.28174 -0.67691,0.24561h-0.98837v0v0.43115v0h1.17108v0v7.32568c0,1.97168 0.92549,2.89648 2.77646,2.89648c0.77821,0.04102 1.54504,-0.2002 2.15947,-0.6792c0.48352,-0.46191 0.8076,-1.06592 0.92548,-1.72363h-0.06288c-0.29951,0.58643 -0.67691,0.79883 -1.18961,0.79883c-0.35696,0.02539 -0.66006,-0.11426 -0.84409,-0.36816c-0.21652,-0.32812 -0.32155,-0.71729 -0.2995,-1.10986v-7.07764v0h2.39607v0z" fill="#ffffff" fill-opacity="1"></path></g><g><title>Path</title><path d="M161.34959,63.16357v0v0v0l1.29388,2.65137c0.05194,0.11865 0.09401,0.24219 0.12579,0.36816c-0.03162,0.12695 -0.07368,0.25098 -0.12579,0.37061l-1.72517,4.18994v0l-2.15947,-5.98535c-0.07823,-0.1626 -0.05359,-0.35596 0.0629,-0.49365l0.86259,-1.16992v0v-0.09473v0h-5.11862v0v0.46289v0h-0.1857v0l0.36839,0.61621c0.12579,0.29932 0.2516,0.49365 0.2516,0.6792l4,10.05225v0l-0.11836,0.37109c-0.24065,0.50586 -0.50757,0.99951 -0.7997,1.47803c-0.08194,0.18555 -0.2486,0.24561 -0.29951,0.24561c-0.0509,0 -0.12578,-0.06006 -0.24858,-0.18262l-2.09657,-2.09473v0h-0.0629v0l-0.7997,3.69873c0.31462,0.12061 0.64844,0.18311 0.9854,0.18555c0.56696,0.02637 1.12813,-0.12402 1.60536,-0.43115c0.52718,-0.42529 0.98491,-0.93018 1.35678,-1.49609c0.71367,-1.11621 1.33185,-2.29053 1.84798,-3.51025l2.71655,-6.5835c0.15799,-0.38184 0.34315,-0.75195 0.55411,-1.10742l1.35915,-2.38379v0v-0.06982v0h-3.65041v0z" fill="#ffffff" fill-opacity="1"></path></g><g><title>Path</title><path d="M110.51794,32.84912c-0.00456,0.15088 0.06201,0.35938 0.1857,0.49365l1.04828,0.98438v0v0.06299v0h-5.9902v0v-0.06299v0l1.05128,-0.98437c0.12286,-0.13477 0.187,-0.34277 0.187,-0.49365v-8.19678c0,-0.10107 0,-0.20312 -0.09679,-0.27539c-0.07239,-0.07227 -0.17453,-0.10693 -0.27591,-0.09277h-3.08496v0v8.56494c-0.0094,0.15088 0.08356,0.38281 0.24561,0.49365l1.21205,1.04736v0v0.06299v0h-6.13v0v-0.06299v0l1.04828,-0.98437c0.08173,-0.13477 0.18996,-0.31152 0.1857,-0.49414v-8.62744v0h-1.10397v0v-0.43066v0h1.10397c0.05991,-1.54102 0.55409,-2.71143 1.47958,-3.45361c0.92549,-0.79883 2.21938,-1.16992 3.82474,-1.16992c1.35382,0.01514 2.70027,0.20117 4.00745,0.55371l-1.35678,3.14502v0h-0.05896v0l-1.60631,-3.01953c-0.1089,-0.16309 -0.29523,-0.25732 -0.4912,-0.24805h-0.29951c-1.35678,0 -2.03667,1.04736 -2.03667,3.20459v0.98779v0h6.8468v0v8.99561v0z" fill="#ffffff" fill-opacity="1"></path></g><g><title>Shape</title><path d="M116.33083,24.77686c0.24561,-0.49365 0.55409,-0.77686 1.04828,-0.77686c0.4942,0 0.80269,0.2832 1.04829,0.77686c0.24561,0.49365 0.29951,1.29248 0.29951,2.39404c0,1.10107 -0.1228,1.90918 -0.3714,2.39404c-0.2486,0.43506 -0.55409,0.73926 -1.04828,0.73926c-0.4657,-0.01562 -0.8777,-0.3042 -1.04828,-0.73926c-0.25896,-0.49268 -0.36841,-1.29102 -0.36841,-2.39404c0.10945,-1.1709 0.18271,-1.97217 0.43129,-2.39404M119.0983,32.23096v0h-1.97377c-1.41968,0 -2.12453,-0.29883 -2.12453,-0.92432c0,-0.36816 0.21066,-0.59863 0.64195,-0.79932c0.56625,0.13281 1.14668,0.19482 1.72818,0.18555c1.41968,0 2.52786,-0.24805 3.39345,-0.80176c0.86559,-0.55371 1.29388,-1.35596 1.29388,-2.52881c0.02296,-0.89453 -0.39165,-1.74414 -1.11119,-2.27734h1.97377v0v-3.20508v0h-0.05989v0l-2.22237,2.34033c-0.08746,0.1499 -0.27789,0.2041 -0.43129,0.12256c-0.90637,-0.4248 -1.89833,-0.63574 -2.89926,-0.61621c-1.17056,-0.04004 -2.30724,0.27344 -3.30724,0.86475c-0.88591,0.61621 -1.25729,1.47803 -1.25729,2.64844c0,1.66357 0.86557,2.76025 2.65366,3.20508c-0.72893,0.1626 -1.39636,0.50146 -1.97377,0.9873c-0.4734,0.39648 -0.74471,0.98389 -0.73979,1.56787c-0.00882,0.59033 0.21471,1.12549 0.61699,1.51123c0.48325,0.48877 1.08073,0.74268 1.70021,0.86523c-0.83762,0.12354 -1.45361,0.37012 -1.82301,0.73877c-0.37854,0.27148 -0.60713,0.70508 -0.61699,1.17041c0,0.71436 0.44,1.23291 1.29388,1.60107c0.98038,0.39063 2.02963,0.58008 3.08495,0.55664c1.53154,0.04395 3.06117,-0.38672 4.31595,-1.23291c1.11118,-0.80225 1.74522,-1.84961 1.74522,-3.14258c-0.07996,-1.91211 -1.31393,-2.83691 -3.91068,-2.83691M119.84708,38.45557c-0.67542,0.38623 -1.44443,0.54443 -2.22237,0.54443c-0.80582,0 -1.62471,-0.17139 -2.28226,-0.604c-0.6769,-0.396 -0.9854,-0.9248 -0.9854,-1.604c0.01183,-0.57764 0.34441,-1.1001 0.86259,-1.35596c0.18568,0 0.43129,0.06299 0.78035,0.06299l2.73589,0.06006c0.55737,-0.01807 1.10977,0.10986 1.60239,0.37061c0.29951,0.23584 0.46227,0.60498 0.43428,0.98486c0.01295,0.64844 -0.34662,1.24707 -0.92548,1.54102" fill="#ffffff" fill-opacity="1"></path></g><g><title>Path</title><path d="M134.7803,28.15967c0,0.49365 0,1.35547 -0.05989,2.52588c0,1.17285 -0.0629,1.91211 -0.0629,2.15771c-0.00456,0.15674 0.06203,0.35938 0.1857,0.49365l1.04828,0.98438v0v0.06299v0h-5.99019v0v-0.06299v0l0.98837,-0.98437c0.11032,-0.13428 0.19026,-0.33691 0.18568,-0.49365c0,-0.06006 0,-0.67627 0.05992,-1.84326c0,-1.17627 0.06288,-2 0.06288,-2.34668c0.03801,-0.81445 -0.08829,-1.65332 -0.37138,-2.39404c-0.20767,-0.52246 -0.73296,-0.84814 -1.29388,-0.80176c-0.67407,0.01611 -1.28731,0.39355 -1.60536,0.9873v6.47021c-0.00426,0.18213 0.07246,0.35938 0.18568,0.49365l1.04829,0.98438v0v0.06299v0h-5.80151v0v-0.06299v0l1.04828,-0.98437c0.1245,-0.13428 0.19212,-0.31104 0.18871,-0.49365v-11.91504c0.01582,-0.19092 -0.04999,-0.39062 -0.18271,-0.54297l-1.04828,-0.98437v0v-0.06299v0l4.634,-0.55957v0v7.27197c0.60143,-1.66406 1.77251,-2.46631 3.43777,-2.46631c1.04829,0 1.91388,0.34424 2.46797,1.17041c0.61699,0.73926 0.86258,1.84912 0.86258,3.32764" fill="#ffffff" fill-opacity="1"></path></g><g><title>Path</title><path d="M143.3392,23.84619v0v0.43066v0h-2.59076v0v7.08643c-0.02205,0.39258 0.08296,0.78174 0.25156,1.11035c0.24361,0.24072 0.54031,0.37695 0.85065,0.36816c0.55408,0 0.92249,-0.24561 1.23097,-0.8418h0.08087c-0.16249,0.7002 -0.44246,1.30371 -0.92548,1.76611c-0.4942,0.49414 -1.23701,0.67969 -2.15947,0.67969c-1.84799,0 -2.77347,-0.98779 -2.77347,-2.89697v-7.27197v0h-1.17407v0v-0.43066v0h0.98837c0.25162,0.02344 0.50047,-0.06787 0.6769,-0.24854l2.96216,-3.32764v0h0.05991v0v3.59082v0z" fill="" ></path></g></g></g></svg>