<svg id="logo-01" xmlns="http://www.w3.org/2000/svg" width="39" height="48" viewBox="0 0 39 48">
  <path id="Path" d="M6.433,9.629V6.137H9.94a2.442,2.442,0,0,1,.363.03l5.315-4.75A5.872,5.872,0,0,0,14.476.752h0L14.155.618A11.7,11.7,0,0,0,9.845.013C7.693.056,1.98.013,0,.013V15.408Z" transform="translate(8.805 4.931)" fill="#fff"/>
  <path id="Path-2" data-name="Path" d="M38.726,28.321a16.511,16.511,0,0,0-.8-2.9c-.178-.466-.375-.926-.595-1.38s-.458-.89-.713-1.319A16.839,16.839,0,0,0,34.832,20.3a16.509,16.509,0,0,0,1.766-4.9,1.139,1.139,0,0,1,0-.139A17.641,17.641,0,0,0,36.86,13v-.756q0-.508-.036-1.017v-.085a7.014,7.014,0,0,0-.077-.793v-.175h0A16.659,16.659,0,0,0,31.509,0L25.457,5.446a5.114,5.114,0,0,1,.7.635l.036.042a9.429,9.429,0,0,1,.69.914,6.875,6.875,0,0,1,.779,1.434,10.091,10.091,0,0,1,.874,3.958A10.186,10.186,0,0,1,26.3,19.183a6.762,6.762,0,0,1-1.92,1.713l.41.133h.107a7.454,7.454,0,0,1,.838.357l.1.054a7.056,7.056,0,0,1,.892.545l.054.036a7.634,7.634,0,0,1,1.13,1h0a10,10,0,0,1,2.283,6.306c.024,1.8-.291,5.4-2.634,7.758a8.693,8.693,0,0,1-6.861,2.977H8.8L0,48H22.461a16.652,16.652,0,0,0,15.8-11.691,16.226,16.226,0,0,0,.41-1.6c.054-.266.1-.545.143-.817A16.964,16.964,0,0,0,39,31.359a16.548,16.548,0,0,0-.273-3.026" fill="#fff"/>
  <path id="Path-3" data-name="Path" d="M6.456,10.438h0V5.954h5.006l5.4-4.841A6.113,6.113,0,0,0,16,.665L15.9.622A11.965,11.965,0,0,0,11.456.017H0v16.2Z" transform="translate(8.787 21.829)" fill="#fff"/>
</svg>
