<svg width="32" height="32" viewBox="0 0 32 32" fill="none" xmlns="http://www.w3.org/2000/svg">
<path fill-rule="evenodd" clip-rule="evenodd" d="M16 0.711111C7.56978 0.711111 0.711111 7.56978 0.711111 16C0.711111 24.4302 7.56978 31.2889 16 31.2889C24.4302 31.2889 31.2889 24.4302 31.2889 16C31.2889 7.56978 24.4302 0.711111 16 0.711111M16 32C7.17724 32 0 24.822 0 16C0 7.17724 7.17724 0 16 0C24.8228 0 32 7.17724 32 16C32 24.822 24.8228 32 16 32" fill="#22C3CA"/>
<path fill-rule="evenodd" clip-rule="evenodd" d="M8.65348 11.3306C8.62148 14.2468 9.96051 17.2733 12.3406 19.6541L12.3932 19.7067C14.7342 22.047 17.733 23.3917 20.6179 23.3917L20.7146 23.3903C20.9266 23.2203 21.1264 23.0418 21.3098 22.8591C22.0643 22.1025 22.6425 21.2129 23.0279 20.2159C23.0741 20.0978 22.9632 19.7266 22.8736 19.637C21.7266 19.1243 20.7936 18.8235 19.217 18.4722C18.9895 18.468 18.7776 18.5298 18.7235 18.5697L17.9584 19.7899C17.6163 20.3446 16.6777 20.4086 15.9971 19.9094C15.2953 19.3995 14.5955 18.8022 13.9178 18.1366C13.2466 17.4539 12.6478 16.7521 12.1337 16.0474C11.8478 15.6548 11.7248 15.177 11.8051 14.7688C11.8627 14.473 12.0234 14.2298 12.2574 14.0854L13.5132 13.2882C13.5374 13.2378 13.5936 12.9334 13.5758 12.8367C13.2316 11.5325 12.7509 10.1558 12.3712 9.10194C12.3456 9.10762 12.1038 9.00522 11.909 9.00522C11.8542 9.00522 11.8314 9.01447 11.83 9.01447C10.8309 9.40202 9.9406 9.98158 9.18397 10.7368C9.00193 10.9202 8.82344 11.1201 8.65348 11.3306V11.3306ZM20.6179 24.1028C17.5459 24.1028 14.3637 22.6827 11.8876 20.2066C9.28851 17.6068 7.86913 14.3407 7.94451 11.1962L7.94735 11.0781L8.01988 10.9857C8.22895 10.7183 8.45082 10.4651 8.68051 10.2347C9.50895 9.40771 10.4818 8.77482 11.5726 8.35171C11.67 8.31402 11.7831 8.29411 11.909 8.29411C12.2873 8.29411 12.9081 8.49607 13.0396 8.86016C13.425 9.92754 13.9122 11.3242 14.2642 12.6582C14.3402 12.9419 14.2343 13.6751 13.8937 13.8891L12.635 14.6877C12.5504 14.7403 12.517 14.8349 12.5027 14.9053C12.4608 15.1201 12.5397 15.3967 12.7082 15.6278C13.2018 16.3055 13.7785 16.9803 14.4206 17.6338C15.0684 18.271 15.7418 18.8442 16.4167 19.3355C16.7609 19.5873 17.233 19.6122 17.3561 19.4123L18.1561 18.1494C18.4035 17.7633 19.1666 17.759 19.1744 17.759C19.2498 17.759 19.3145 17.7654 19.3721 17.7775C21.0019 18.1416 21.9705 18.4545 23.2092 19.0162C23.5939 19.1898 23.8684 20.021 23.6906 20.4733C23.2704 21.5627 22.6382 22.5348 21.8119 23.3633C21.5801 23.5922 21.3276 23.8148 21.0595 24.0246L20.9664 24.0971L20.6179 24.1028Z" fill="#22C3CA"/>
<path fill-rule="evenodd" clip-rule="evenodd" d="M23.7028 16.1938C23.5065 16.1938 23.3472 16.0345 23.3472 15.8382C23.3472 11.8524 20.1031 8.60906 16.1159 8.60906C15.9197 8.60906 15.7604 8.44977 15.7604 8.2535C15.7604 8.05724 15.9197 7.89795 16.1159 7.89795C20.4957 7.89795 24.0583 11.4599 24.0583 15.8382C24.0583 16.0345 23.899 16.1938 23.7028 16.1938" fill="#22C3CA"/>
<path fill-rule="evenodd" clip-rule="evenodd" d="M21.4729 16.1938C21.2767 16.1938 21.1174 16.0345 21.1174 15.8382C21.1174 13.0805 18.8731 10.837 16.1147 10.837C15.9177 10.837 15.7592 10.6777 15.7592 10.4814C15.7592 10.2844 15.9177 10.1259 16.1147 10.1259C19.2656 10.1259 21.8285 12.688 21.8285 15.8382C21.8285 16.0345 21.6692 16.1938 21.4729 16.1938" fill="#22C3CA"/>
<path fill-rule="evenodd" clip-rule="evenodd" d="M19.1257 16.1938C18.9294 16.1938 18.7701 16.0345 18.7701 15.8382C18.7701 14.3747 17.579 13.1843 16.1148 13.1843C15.9179 13.1843 15.7593 13.0251 15.7593 12.8288C15.7593 12.6318 15.9179 12.4732 16.1148 12.4732C17.9708 12.4732 19.4812 13.9829 19.4812 15.8382C19.4812 16.0345 19.3219 16.1938 19.1257 16.1938" fill="#22C3CA"/>
</svg>
