<svg width="40" height="40" viewBox="0 0 40 40" fill="none" xmlns="http://www.w3.org/2000/svg">
<path fill-rule="evenodd" clip-rule="evenodd" d="M32.5 25.7292C32.5 29.4625 29.4633 32.5 25.7292 32.5H14.2708C10.5375 32.5 7.5 29.4625 7.5 25.7292V14.2708C7.5 10.5367 10.5375 7.5 14.2708 7.5H25.7292C29.4633 7.5 32.5 10.5367 32.5 14.2708V25.7292ZM20 0C8.955 0 0 8.95667 0 20.0008C0 31.0467 8.955 40 20 40C31.045 40 40 31.0467 40 20.0008C40 8.95667 31.045 0 20 0ZM15.8333 20C15.8333 22.2975 17.7025 24.1667 20 24.1667C22.2975 24.1667 24.1667 22.2975 24.1667 20C24.1667 17.7025 22.2975 15.8333 20 15.8333C17.7025 15.8333 15.8333 17.7025 15.8333 20Z" fill="#22C3CA"/>
</svg>
