<svg xmlns="http://www.w3.org/2000/svg" width="16" height="18" viewBox="0 0 16 18"><g><g><path fill="#35424b" d="M16 16.635c0 .17-.035.332-.092.482v.001c-.047.125-.114.24-.194.345l-.026.032a1.356 1.356 0 0 1-.61.426c-.022.008-.044.014-.067.021a1.347 1.347 0 0 1-.37.058H1.359c-.13 0-.252-.024-.37-.058l-.065-.02a1.35 1.35 0 0 1-.637-.457 1.34 1.34 0 0 1-.194-.344l-.001-.002v-.002A1.36 1.36 0 0 1 0 16.635v-9.72c0-.108.047-.21.13-.28L7.794.088a.364.364 0 0 1 .475 0l7.603 6.548c.08.07.127.171.127.279zm-.731-.405V8.317l-4.418 3.957zM.73 7.084v.25L5.7 11.782 7.757 9.94a.366.366 0 0 1 .487 0l2.057 1.843 4.968-4.449v-.25L8.03.85zm0 9.146l4.418-3.956L.731 8.318zm13.91 1.046c.087 0 .171-.02.248-.052.022-.01.038-.029.058-.04a.613.613 0 0 0 .147-.107l.004-.006L8 10.704l-1.995 1.79c-.009.012-.012.027-.023.038a.384.384 0 0 1-.11.082L.902 17.07l.002.003c.056.06.123.108.198.143.002 0 .004.003.006.004a.614.614 0 0 0 .25.055z"/></g></g></svg>