<svg xmlns="http://www.w3.org/2000/svg" width="21" height="24"><path fill="#35424b" d="M21 22.18c0 .228-.046.442-.12.642v.002a1.86 1.86 0 01-.255.46l-.034.042a1.78 1.78 0 01-.8.569l-.09.028a1.742 1.742 0 01-.485.077H1.784c-.17 0-.331-.032-.486-.077-.03-.01-.057-.017-.085-.027a1.772 1.772 0 01-.836-.61 1.794 1.794 0 01-.255-.458l-.001-.003-.001-.003A1.84 1.84 0 010 22.18V9.22c0-.144.062-.28.17-.373L10.23.117a.472.472 0 01.624.001l9.979 8.73A.494.494 0 0121 9.22zm-.96-.54V11.09l-5.798 5.275zM.96 9.445v.333l6.52 5.931 2.701-2.457a.474.474 0 01.64 0l2.7 2.457 6.52-5.931v-.333L10.54 1.133zm0 12.195l5.798-5.275L.96 11.09zm18.266 1.381a.808.808 0 00.325-.07c.03-.012.05-.037.078-.053a.806.806 0 00.192-.141l.005-.009-9.32-8.476-2.62 2.382c-.011.017-.016.036-.03.052a.504.504 0 01-.145.108l-6.528 5.934a.842.842 0 00.263.195l.008.005a.797.797 0 00.33.073z"/></svg>