<svg xmlns="http://www.w3.org/2000/svg" width="16" height="24"><path fill="#35424b" d="M.533 24A.527.527 0 010 23.479V.521C0 .233.238 0 .533 0h14.934c.295 0 .533.233.533.521v22.958a.527.527 0 01-.533.521zm.533-1.034h13.857V1.044H1.066z"/><path fill="#35424b" d="M2.663 17.739a.527.527 0 01-.533-.521V4.002c0-.289.238-.522.533-.522h10.666c.295 0 .533.233.533.522v13.216a.527.527 0 01-.533.521zm.534-1.034h9.598V4.523H3.197zm6.066 3.364c0 .684-.568 1.239-1.267 1.239-.7 0-1.266-.555-1.266-1.239s.566-1.239 1.266-1.239c.699 0 1.267.555 1.267 1.239"/></svg>