<svg width="32" height="32" fill="none" xmlns="http://www.w3.org/2000/svg"><path fill-rule="evenodd" clip-rule="evenodd" d="M31.785 30.772l-7.889-7.752c2.376-2.447 3.844-5.75 3.844-9.39C27.737 6.114 21.515 0 13.869 0 6.224.002.003 6.117 0 13.633c.003 7.512 6.224 13.623 13.866 13.623 3.418 0 6.546-1.226 8.967-3.246l7.917 7.779c.143.141.33.211.518.211.187 0 .375-.07.517-.211a.71.71 0 000-1.017zM1.465 13.633C1.468 6.911 7.032 1.441 13.869 1.44c6.838 0 12.404 5.469 12.407 12.19 0 6.72-5.567 12.187-12.41 12.187-6.836 0-12.398-5.466-12.401-12.184zm4.194-.007H4.194c0-5.243 4.34-9.509 9.675-9.509v1.44c-4.527 0-8.21 3.62-8.21 8.07z" fill="#22C3CA"/></svg>