<svg width="9" height="15" fill="none" xmlns="http://www.w3.org/2000/svg"><path d="M4.952 13.362v1.06a.578.578 0 01-.579.578.586.586 0 01-.614-.558v-1.059a5.576 5.576 0 01-3.55-1.43.739.739 0 01-.21-.514.824.824 0 01.769-.834.788.788 0 01.473.17 4.903 4.903 0 002.51 1.108V8.097C1.999 7.623.172 7.026.172 4.877c0-1.75 1.448-3.067 3.579-3.218V.578A.587.587 0 014.364 0c.318 0 .578.258.578.578v1.117a4.995 4.995 0 012.963 1.192c.135.137.209.32.209.512a.814.814 0 01-.815.806.7.7 0 01-.389-.123 4.428 4.428 0 00-1.96-.852v3.333c1.752.474 3.627 1.155 3.627 3.39.001 1.667-1.04 3.238-3.625 3.409zM3.759 3.164c-1.107.085-1.837.72-1.837 1.6 0 .88.806 1.193 1.837 1.496V3.164zm1.193 5.291v3.447c1.4-.17 1.894-1.022 1.894-1.742.01-.994-.825-1.401-1.894-1.705z" fill="#FF715B"/></svg>