<svg width="79" height="14" fill="none" xmlns="http://www.w3.org/2000/svg"><path d="M7 0l1.572 4.837h5.085l-4.114 2.99 1.572 4.836L7 9.673l-4.114 2.99 1.571-4.837-4.114-2.99h5.085L7 0zm16 0l1.572 4.837h5.085l-4.114 2.99 1.572 4.836L23 9.673l-4.114 2.99 1.571-4.837-4.114-2.99h5.085L23 0zm16 0l1.572 4.837h5.085l-4.114 2.99 1.572 4.836L39 9.673l-4.114 2.99 1.571-4.837-4.114-2.99h5.085L39 0zm17 0l1.572 4.837h5.085l-4.114 2.99 1.572 4.836L56 9.673l-4.114 2.99 1.571-4.837-4.114-2.99h5.085L56 0zm16 0l1.572 4.837h5.085l-4.114 2.99 1.572 4.836L72 9.673l-4.115 2.99 1.572-4.837-4.114-2.99h5.085L72 0z" fill="#FFC01E"/></svg>