<svg xmlns="http://www.w3.org/2000/svg" xmlns:xlink="http://www.w3.org/1999/xlink"><defs><style>
    .sprite-symbol-usage {display: none;}
    .sprite-symbol-usage:target {display: inline;}
  </style><symbol viewBox="0 0 32 32" id="arrow"><path d="m19.2 25.051-2.262-2.262 5.189-5.189H3.2v-3.2h18.924l-5.188-5.189 2.263-2.262 9.051 9.052z" /></symbol><symbol viewBox="0 0 30 30" id="facebook"><path d="M12 27V15H8v-4h4V8.852C12 4.785 13.981 3 17.361 3c1.619 0 2.475.12 2.88.175V7h-2.305C16.501 7 16 7.757 16 9.291V11h4.205l-.571 4H16v12h-4z" /></symbol><symbol viewBox="0 0 48 48" id="instagram"><path fill="none" stroke="#919191" stroke-linejoin="round" stroke-miterlimit="10" stroke-width="3" d="M34.5 40.5h-21a6 6 0 0 1-6-6v-21a6 6 0 0 1 6-6h21a6 6 0 0 1 6 6v21a6 6 0 0 1-6 6z" /><path d="M34.5 7.5h-21c-3.31 0-6 2.69-6 6V20h10.17c1.32-2.11 3.66-3.5 6.33-3.5s5.01 1.39 6.33 3.5H40.5v-6.5c0-3.31-2.69-6-6-6zm0 7.5h-3c-.83 0-1.5-.67-1.5-1.5s.67-1.5 1.5-1.5h3c.83 0 1.5.67 1.5 1.5s-.67 1.5-1.5 1.5z" /><circle cx="24" cy="24" r="7.5" fill="none" stroke="#919191" stroke-linejoin="round" stroke-miterlimit="10" stroke-width="3" /></symbol><symbol viewBox="0 0 30 30" id="spotify"><path d="M15 3C8.4 3 3 8.4 3 15s5.4 12 12 12 12-5.4 12-12S21.6 3 15 3zm4.731 18c-.22 0-.33-.11-.55-.22-1.65-.991-3.74-1.54-5.94-1.54-1.21 0-2.53.22-3.63.44-.22 0-.44.11-.55.11-.44 0-.77-.33-.77-.77s.22-.77.66-.77c1.43-.33 2.861-.55 4.401-.55 2.53 0 4.84.66 6.82 1.76.22.22.44.33.44.77-.222.55-.552.77-.881.77zm1.209-3.079c-.22 0-.44-.11-.66-.22-1.87-1.21-4.511-1.87-7.37-1.87-1.43 0-2.751.22-3.74.44-.22.11-.33.11-.55.11-.55 0-.881-.44-.881-.881 0-.55.22-.77.77-.991 1.32-.33 2.641-.66 4.511-.66 3.08 0 5.94.77 8.361 2.2.33.22.55.55.55.881-.111.55-.44.991-.991.991zm1.43-3.521c-.22 0-.33-.11-.66-.22-2.2-1.21-5.39-1.98-8.47-1.98-1.54 0-3.19.22-4.621.55-.22 0-.33.11-.66.11-.66.111-1.1-.44-1.1-1.099s.33-.991.77-1.1C9.39 10.22 11.26 10 13.24 10c3.41 0 6.93.77 9.681 2.2.33.22.66.55.66 1.1-.11.66-.551 1.1-1.211 1.1z" /></symbol><symbol viewBox="0 0 30 30" id="twitter"><path d="M28 6.937c-.957.425-1.985.711-3.064.84a5.343 5.343 0 0 0 2.345-2.951 10.696 10.696 0 0 1-3.388 1.295 5.334 5.334 0 0 0-9.089 4.864A15.143 15.143 0 0 1 3.809 5.411a5.321 5.321 0 0 0-.721 2.683 5.33 5.33 0 0 0 2.372 4.439 5.323 5.323 0 0 1-2.416-.667v.067a5.335 5.335 0 0 0 4.279 5.23 5.336 5.336 0 0 1-2.409.092 5.34 5.34 0 0 0 4.983 3.705 10.699 10.699 0 0 1-6.625 2.284c-.43 0-.855-.025-1.273-.075a15.102 15.102 0 0 0 8.177 2.396c9.812 0 15.176-8.128 15.176-15.177 0-.231-.005-.461-.015-.69A10.855 10.855 0 0 0 28 6.937z" /></symbol></defs><use id="arrow-usage" xlink:href="#arrow" class="sprite-symbol-usage" /><use id="facebook-usage" xlink:href="#facebook" class="sprite-symbol-usage" /><use id="instagram-usage" xlink:href="#instagram" class="sprite-symbol-usage" /><use id="spotify-usage" xlink:href="#spotify" class="sprite-symbol-usage" /><use id="twitter-usage" xlink:href="#twitter" class="sprite-symbol-usage" /></svg>