<svg xmlns="http://www.w3.org/2000/svg" xmlns:xlink="http://www.w3.org/1999/xlink"><defs><style>
    .sprite-symbol-usage {display: none;}
    .sprite-symbol-usage:target {display: inline;}
  </style><symbol viewBox="0 0 16 11" id="arrow"><path d="m13 0 3 3-8 8-8-8 3-3 5 5Z" /></symbol><symbol viewBox="0 0 64 64" id="dribbble"><path d="M32 6C17.641 6 6 17.641 6 32s11.641 26 26 26 26-11.641 26-26S46.359 6 32 6zm17.488 12.673a21.882 21.882 0 0 1 4.5 12.862c-4.48-.847-9.661-1.261-15.157-.152a98.919 98.919 0 0 0-2.086-4.547c6.467-2.705 10.587-6.057 12.743-8.163zm-2.722-2.967c-1.871 1.808-5.719 4.956-11.907 7.499A102.046 102.046 0 0 0 26.8 10.627 21.905 21.905 0 0 1 32 10a21.914 21.914 0 0 1 14.766 5.706zm-23.942-3.693a97.76 97.76 0 0 1 8.23 12.563c-5.393 1.703-12.17 2.839-20.502 2.548 1.527-6.724 6.142-12.285 12.272-15.111zM10 32c0-.3.011-.599.023-.896 1.112.046 2.208.076 3.271.076 7.911 0 14.417-1.22 19.684-2.948a95.974 95.974 0 0 1 1.953 4.193c-6.267 2.099-12.812 6.412-19.101 14.473C12.214 42.976 10 37.743 10 32zm8.803 17.59c5.859-7.593 11.865-11.596 17.655-13.475 2.097 5.409 3.593 10.831 4.384 16.024A21.878 21.878 0 0 1 32 54a21.885 21.885 0 0 1-13.197-4.41zm25.761.454c-.854-4.859-2.281-9.884-4.195-14.897 4.723-.823 9.239-.41 13.34.407-.976 5.981-4.371 11.156-9.145 14.49z" /></symbol><symbol viewBox="0 0 50 50" id="linkedin"><path d="M8 3.01c-3.47 0-5.99 2.08-5.99 4.94 0 2.87 2.58 5.04 5.99 5.04 3.47 0 5.99-2.12 5.99-5.1-.16-2.87-2.63-4.88-5.99-4.88zM3 15c-.55 0-1 .45-1 1v29c0 .55.45 1 1 1h10c.55 0 1-.45 1-1V16c0-.55-.45-1-1-1H3zm15 0c-.55 0-1 .45-1 1v29c0 .55.45 1 1 1h9a1 1 0 0 0 1-1V29.5c0-2.37 1.82-4.3 4.14-4.48.12-.02.24-.02.36-.02s.24 0 .36.02c2.32.18 4.14 2.11 4.14 4.48V45a1 1 0 0 0 1 1h9c.55 0 1-.45 1-1V28c0-6.47-3.47-13-11.21-13-3.52 0-6.18 1.36-7.79 2.49V16c0-.55-.45-1-1-1H18z" /></symbol><symbol viewBox="0 0 30 30" id="skype"><path d="M26.884 16.579c.069-.518.116-1.043.116-1.579 0-6.627-5.373-12-12-12-.536 0-1.061.047-1.579.116A7.454 7.454 0 0 0 9.5 2 7.5 7.5 0 0 0 2 9.5c0 1.439.413 2.779 1.116 3.921A11.927 11.927 0 0 0 3 15c0 6.627 5.373 12 12 12 .536 0 1.061-.047 1.579-.116A7.454 7.454 0 0 0 20.5 28a7.5 7.5 0 0 0 7.5-7.5 7.454 7.454 0 0 0-1.116-3.921zM15.149 22c-3.896 0-6.133-2.042-6.133-4.046 0-1.022 1.07-1.349 1.498-1.349.989 0 1.318.807 1.498 1.177 1.005 2.066 1.971 1.794 2.923 1.884.841.079 2.815-.292 2.815-1.734 0-.138.217-1.076-1.487-1.541-1.089-.298-3.009-.663-4.589-1.271-1.486-.572-2.358-1.75-2.358-3.268 0-.759.389-3.852 5.651-3.852 3.512 0 5.384 1.799 5.384 3.382 0 .364-.139.685-.418.974a1.529 1.529 0 0 1-1.926.161c-.217-.139-.396-.428-.61-.803-.258-.471-.68-1.381-2.623-1.381-1.885 0-2.408.899-2.408 1.274 0 1.26 2.405 1.525 3.051 1.692 2.358.608 5.566 1.167 5.566 4.346 0 3.65-3.798 4.355-5.834 4.355z" /></symbol><symbol viewBox="0 0 16 14" id="submit"><path d="M0 12v2h16V8h-2v4H2V8H0v4Zm9.32-2V5.1H13L8 0 3 5.1h3.68V10h2.64Z" /></symbol><symbol viewBox="0 0 30 30" id="twitter"><path d="M28 6.937c-.957.425-1.985.711-3.064.84a5.343 5.343 0 0 0 2.345-2.951 10.696 10.696 0 0 1-3.388 1.295 5.334 5.334 0 0 0-9.089 4.864A15.143 15.143 0 0 1 3.809 5.411a5.321 5.321 0 0 0-.721 2.683 5.33 5.33 0 0 0 2.372 4.439 5.323 5.323 0 0 1-2.416-.667v.067a5.335 5.335 0 0 0 4.279 5.23 5.336 5.336 0 0 1-2.409.092 5.34 5.34 0 0 0 4.983 3.705 10.699 10.699 0 0 1-6.625 2.284c-.43 0-.855-.025-1.273-.075a15.102 15.102 0 0 0 8.177 2.396c9.812 0 15.176-8.128 15.176-15.177 0-.231-.005-.461-.015-.69A10.855 10.855 0 0 0 28 6.937z" /></symbol></defs><use id="arrow-usage" xlink:href="#arrow" class="sprite-symbol-usage" /><use id="dribbble-usage" xlink:href="#dribbble" class="sprite-symbol-usage" /><use id="linkedin-usage" xlink:href="#linkedin" class="sprite-symbol-usage" /><use id="skype-usage" xlink:href="#skype" class="sprite-symbol-usage" /><use id="submit-usage" xlink:href="#submit" class="sprite-symbol-usage" /><use id="twitter-usage" xlink:href="#twitter" class="sprite-symbol-usage" /></svg>