<svg xmlns="http://www.w3.org/2000/svg" xmlns:xlink="http://www.w3.org/1999/xlink"><defs><style>
    .sprite-symbol-usage {display: none;}
    .sprite-symbol-usage:target {display: inline;}
  </style><symbol viewBox="0 0 12 13" id="facebook"><path d="M12 12.282c0 .396-.296.718-.662.718H8.28V7.966h1.56l.233-1.962H8.28V4.75c0-.568.146-.955.897-.955h.96V2.04a11.904 11.904 0 0 0-1.398-.077c-1.383 0-2.33.914-2.33 2.593v1.447H4.847v1.962H6.41V13H.662C.296 13 0 12.678 0 12.282V.718C0 .32.296 0 .662 0h10.676c.366 0 .662.321.662.718v11.564Z" /></symbol><symbol viewBox="0 0 14 9" id="google"><path d="M4.447 5.391V3.61h4.27C9.014 5.765 8.117 9 4.447 9 1.99 9 0 6.985 0 4.5S1.991 0 4.447 0c1.152 0 2.202.443 2.992 1.171-.612.585-.809.808-.975.998a6.611 6.611 0 0 1-.29.315c-.458-.383-.956-.657-1.727-.657-1.46 0-2.598 1.197-2.598 2.673s1.139 2.673 2.598 2.673c1.441 0 2.027-.629 2.404-1.784l-2.404.002Zm8.012-3.252v1.559H14v1.114h-1.54v1.604h-1.101V4.812H9.774V3.698h1.585v-1.56h1.1Z" /></symbol><symbol viewBox="0 0 12 13" id="instagram"><path d="M10.574 0H1.426C.64 0 0 .69 0 1.542v9.916C0 12.31.639 13 1.426 13h9.148C11.36 13 12 12.31 12 11.458V1.542C12 .69 11.361 0 10.574 0ZM8.625 2.031c0-.224.168-.406.375-.406h1.125c.207 0 .375.182.375.406v1.22c0 .223-.168.405-.375.405H9c-.207 0-.375-.182-.375-.406V2.031Zm-2.611 1.99c1.274 0 2.308 1.117 2.308 2.494 0 1.378-1.034 2.494-2.308 2.494-1.274 0-2.308-1.116-2.308-2.494 0-1.377 1.034-2.494 2.308-2.494Zm4.861 7.354c0 .224-.168.406-.375.406h-9c-.207 0-.375-.182-.375-.406V5.281h1.5c-.195.305-.262.873-.262 1.234 0 2.175 1.638 3.946 3.65 3.946 2.014 0 3.652-1.77 3.652-3.946 0-.36-.048-.92-.29-1.234h1.5v6.094Z" /></symbol><symbol viewBox="0 0 13 11" id="twitter"><path d="M12.641.203a5.196 5.196 0 0 1-1.694.673A2.613 2.613 0 0 0 9 0C7.528 0 6.334 1.243 6.334 2.777c0 .218.023.429.069.632C4.186 3.293 2.22 2.19.905.507c-.23.411-.361.889-.361 1.398 0 .962.47 1.813 1.187 2.31A2.589 2.589 0 0 1 .52 3.87v.034c0 1.346.92 2.47 2.141 2.723a2.561 2.561 0 0 1-1.205.049c.34 1.103 1.324 1.906 2.492 1.927A5.218 5.218 0 0 1 0 9.753 7.344 7.344 0 0 0 4.089 11c4.906 0 7.588-4.23 7.588-7.9 0-.122-.002-.242-.007-.36.521-.392.974-.88 1.33-1.438-.478.22-.992.37-1.531.437.55-.343.973-.887 1.172-1.536Z" /></symbol></defs><use id="facebook-usage" xlink:href="#facebook" class="sprite-symbol-usage" /><use id="google-usage" xlink:href="#google" class="sprite-symbol-usage" /><use id="instagram-usage" xlink:href="#instagram" class="sprite-symbol-usage" /><use id="twitter-usage" xlink:href="#twitter" class="sprite-symbol-usage" /></svg>