<svg xmlns="http://www.w3.org/2000/svg" viewBox="0 0 52 46.59">
  <title>logo_sm</title>
  <path d="M49.74,10.37a1.7,1.7,0,0,0-.7-.78,1.67,1.67,0,0,0-1.13-.16l0,0c-5.58,1-11.2,5.21-14.59,11.71-3.65,7-3.71,14.7-.73,20,6-.49,12.22-4.87,15.88-11.88C51.85,22.68,52.13,15.57,49.74,10.37Z" fill="#828d8c" fill-rule="evenodd"/>
  <path d="M47.88,10.14c-5.49,1-10.83,5.33-14,11.32-3.31,6.34-3.67,13.68-1,18.87,5.75-.67,11.54-5.12,14.85-11.46,3.16-6.05,3.65-13,1.28-18.2a1,1,0,0,0-.4-.45,1.05,1.05,0,0,0-.66-.09A.45.45,0,0,1,47.88,10.14ZM32.57,41.81a.73.73,0,0,1-.62-.36c-3.22-5.71-2.95-13.63.72-20.66,3.4-6.53,9-11,15.1-12.09h.17A2.31,2.31,0,0,1,49.38,9a2.37,2.37,0,0,1,1,1.09c2.56,5.59,2.06,13.05-1.3,19.5-3.67,7-10,11.73-16.45,12.26Z" fill="#121716" fill-rule="evenodd"/>
  <path d="M47.13,13.42a18.92,18.92,0,0,1,4.09,3,17.63,17.63,0,0,0-1.48-6,1.7,1.7,0,0,0-.7-.78,1.67,1.67,0,0,0-1.13-.16l0,0a17.24,17.24,0,0,0-5.69,2.15A19,19,0,0,1,47.13,13.42Z" fill="#121716" fill-rule="evenodd"/>
  <path d="M38.42,15a36.63,36.63,0,0,0-4.2,5,14.88,14.88,0,0,1,8.53,2.11,15.08,15.08,0,0,1,6,6.46,36.88,36.88,0,0,0,2.22-6.22A19.33,19.33,0,0,0,38.42,15Z" fill="#121716" fill-rule="evenodd"/>
  <path d="M31.34,23.84A44.72,44.72,0,0,0,29,29.34a13.92,13.92,0,0,1,7.68,2.1c2.45,1.51,3.54,3.8,4.66,6.16,2.2-1.08,3.28-3.14,4.45-4.85a17.64,17.64,0,0,0-14.42-8.91Z" fill="#121716" fill-rule="evenodd"/>
  <path d="M11.2,3.71c2.32,2.36,3,5.54,1.39,7.12s-4.7.94-7-1.41S2.62,3.88,4.17,2.31,8.87,1.36,11.2,3.71Z" fill="#828d8c" fill-rule="evenodd"/>
  <path d="M9.66,5.27C10.83,6.45,11.2,8,10.49,8.7S8.27,9,7.1,7.86,5.57,5.14,6.27,4.43,8.49,4.09,9.66,5.27Z" fill="#121716" fill-rule="evenodd"/>
  <path d="M6.45,2.16a2.47,2.47,0,0,0-1.78.65c-1.25,1.27-.61,4.07,1.4,6.1A6.33,6.33,0,0,0,10.31,11a2.47,2.47,0,0,0,1.78-.65,2.84,2.84,0,0,0,.56-2.62,7,7,0,0,0-2-3.48A6.37,6.37,0,0,0,6.45,2.16Zm3.86,10.25A7.79,7.79,0,0,1,5.06,9.93C2.42,7.25,1.81,3.68,3.67,1.8A3.79,3.79,0,0,1,6.45.72,7.76,7.76,0,0,1,11.7,3.21a8.46,8.46,0,0,1,2.35,4.21,4.21,4.21,0,0,1-1,3.91A3.78,3.78,0,0,1,10.31,12.41Z" fill="#121716" fill-rule="evenodd"/>
  <path d="M32.57,3.71c-2.32,2.36-2.95,5.54-1.39,7.12s4.7.94,7-1.41,2.94-5.54,1.39-7.11S34.89,1.36,32.57,3.71Z" fill="#828d8c" fill-rule="evenodd"/>
  <path d="M34.11,5.27C32.94,6.45,32.57,8,33.28,8.7s2.22.34,3.39-.84,1.53-2.72.83-3.43S35.28,4.09,34.11,5.27Z" fill="#121716" fill-rule="evenodd"/>
  <path d="M33.07,4.22A7,7,0,0,0,31.12,7.7a2.84,2.84,0,0,0,.56,2.62,2.47,2.47,0,0,0,1.78.65A6.33,6.33,0,0,0,37.7,8.91c2-2,2.65-4.83,1.4-6.1a2.47,2.47,0,0,0-1.78-.65A6.37,6.37,0,0,0,33.07,4.22Zm-2.39,7.11a4.21,4.21,0,0,1-1-3.91,8.46,8.46,0,0,1,2.35-4.21A7.76,7.76,0,0,1,37.32.72,3.79,3.79,0,0,1,40.1,1.8C42,3.68,41.35,7.25,38.71,9.93a7.79,7.79,0,0,1-5.25,2.48A3.78,3.78,0,0,1,30.68,11.33Z" fill="#121716" fill-rule="evenodd"/>
  <path d="M37.58,9.56C33.91,4.45,28.27.72,21.88.72S9.85,4.45,6.19,9.56c-4.46,6.22-7,15-4.39,22.5A21,21,0,0,0,15.78,45,22.1,22.1,0,0,0,28,45,21,21,0,0,0,42,32.06C44.62,24.6,42,15.78,37.58,9.56Z" fill="#828d8c" fill-rule="evenodd"/>
  <path d="M39.09,12.39a8.76,8.76,0,0,0-1.5-2.83,23.51,23.51,0,0,0-2.55-3,9.92,9.92,0,0,0-10,.37A8.47,8.47,0,0,0,21.88,11a8.39,8.39,0,0,0-3.16-4.1,9.92,9.92,0,0,0-10-.37,23.51,23.51,0,0,0-2.55,3,8.76,8.76,0,0,0-1.5,2.83A13.83,13.83,0,0,0,4.08,16a5.05,5.05,0,0,0,2.56,4c.35.22,4.05,3.09,3.7,3.29l1-.54V23c1.34-.79,3.29-1.76,4.59-1.61h0l.1,0a1.78,1.78,0,0,1,.92.57,2.44,2.44,0,0,1,.41,2.26c.15-.11.28-.25.42-.36a4.12,4.12,0,0,1-.14.93l-.24.35a24.18,24.18,0,0,0,4.49.42h0a24.28,24.28,0,0,0,4.5-.42l-.24-.35A4.12,4.12,0,0,1,26,23.9c.14.11.27.25.42.36A2.44,2.44,0,0,1,26.84,22a1.78,1.78,0,0,1,.92-.57l.1,0h0c1.3-.15,3.25.82,4.59,1.61v-.33l1,.54c-.35-.2,3.35-3.07,3.7-3.29a5.05,5.05,0,0,0,2.56-4A13.83,13.83,0,0,0,39.09,12.39Z" fill="#ededea" fill-rule="evenodd"/>
  <path d="M21.88,28.54c-5.38,0-9.74,5.43-9.74,12.14a14.86,14.86,0,0,0,.5,3.82c.59.18,1.18.37,1.78.51a32.83,32.83,0,0,0,14.93,0c.6-.14,1.19-.33,1.78-.51a14.86,14.86,0,0,0,.5-3.82C31.63,34,27.27,28.54,21.88,28.54Z" fill="#ededea" fill-rule="evenodd"/>
  <path d="M23,17.53a3.12,3.12,0,0,1-.74.14s.06-.07.06-.12v-1l.13-.1.75-.93c.3-.36.16-.66-.31-.66h-2c-.47,0-.61.3-.31.66l.75.93a.76.76,0,0,0,.23.18v.9a.26.26,0,0,0,.05.12,3.12,3.12,0,0,1-.74-.14c-.31-.1-.94-.47-1,.11v.11a2.09,2.09,0,0,0,2.08,2.1h0A2.09,2.09,0,0,0,24,17.75v-.11C23.93,17.06,23.29,17.43,23,17.53Z" fill="#121716" fill-rule="evenodd"/>
  <path d="M21.88,1.44C16.17,1.44,10.66,4.55,6.77,10c-4.9,6.83-6.59,15.4-4.3,21.83A20.44,20.44,0,0,0,16,44.32a21.55,21.55,0,0,0,11.81,0A20.44,20.44,0,0,0,41.3,31.82c2.29-6.43.6-15-4.29-21.83C33.11,4.55,27.6,1.44,21.88,1.44Zm0,45.15a22.91,22.91,0,0,1-6.29-.88A21.63,21.63,0,0,1,1.13,32.31c-3-8.34.38-17.44,4.49-23.17S15.71,0,21.88,0,34,3.33,38.16,9.14,45.6,24,42.64,32.31a21.63,21.63,0,0,1-14.46,13.4A22.93,22.93,0,0,1,21.88,46.59Z" fill="#121716" fill-rule="evenodd"/>
  <path d="M16.17,9.2a4.16,4.16,0,0,0-2-.49c-2,0-4,1.71-5,2.86-1.65,1.93-3.18,5.82,0,7.15a9.76,9.76,0,0,0,3.63.65c1.56,0,3.24,0,4.48-1.13s1.45-3,1.34-4.59A5.2,5.2,0,0,0,16.17,9.2Z" fill="#121716" fill-rule="evenodd"/>
  <path d="M16.25,12.56a1.41,1.41,0,0,0-.5-.74,2.14,2.14,0,0,0-1.4-.53,3,3,0,0,0-.51.05,2.27,2.27,0,0,0-1.52,1.11,1.76,1.76,0,0,0-.26.88.51.51,0,0,0,.42.38c.26,0,.36-.07.48-.29L13,13.3a1.74,1.74,0,0,1,1.48-.91,1.34,1.34,0,0,1,.82.3c.19.13.4.39.67.25A.38.38,0,0,0,16.25,12.56Z" fill="#fffffe" fill-rule="evenodd"/>
  <path d="M27.6,9.2a4.16,4.16,0,0,1,2-.49c2,0,4,1.71,5,2.86,1.65,1.93,3.18,5.82,0,7.15a9.76,9.76,0,0,1-3.63.65c-1.56,0-3.24,0-4.48-1.13s-1.45-3-1.34-4.59A5.2,5.2,0,0,1,27.6,9.2Z" fill="#121716" fill-rule="evenodd"/>
  <path d="M27.52,12.56a1.41,1.41,0,0,1,.5-.74,2.14,2.14,0,0,1,1.4-.53,3,3,0,0,1,.51.05,2.27,2.27,0,0,1,1.52,1.11,1.76,1.76,0,0,1,.26.88.51.51,0,0,1-.42.38c-.26,0-.36-.07-.48-.29l-.08-.12a1.74,1.74,0,0,0-1.48-.91,1.34,1.34,0,0,0-.82.3c-.19.13-.4.39-.67.25A.38.38,0,0,1,27.52,12.56Z" fill="#fffffe" fill-rule="evenodd"/>
  <path d="M7.78,25.66a.71.71,0,0,1-.52-.23.72.72,0,0,1,0-1,14,14,0,0,1,2.66-2,.7.7,0,0,1,.94.34.72.72,0,0,1-.33,1,12.3,12.3,0,0,0-2.29,1.78A.73.73,0,0,1,7.78,25.66Z" fill="#121716" fill-rule="evenodd"/>
  <path d="M16.27,21.09c-2-1.19-5,.47-6.07,1.13a9.82,9.82,0,0,1-2.35-1.74A8.44,8.44,0,0,1,5.9,18.11a.72.72,0,0,0-.59-.35c-.83,0-.82.9-.49,1.42a12.17,12.17,0,0,0,3.75,3.74A8.12,8.12,0,0,0,10,23.7a.76.76,0,0,0,.67-.07c.86-.58,3.61-2.08,4.89-1.3a1.87,1.87,0,0,1,1,1.54c0,1.17-.87,2.59-2.48,3.8S9.49,29.26,7,28.52a8,8,0,0,1-5.37-5,.71.71,0,0,0-.91-.42A.73.73,0,0,0,.27,24,9.45,9.45,0,0,0,6.58,29.9a11.1,11.1,0,0,0,3.12.45,8.74,8.74,0,0,0,5.2-1.53c2-1.52,3.13-3.35,3-5A3.32,3.32,0,0,0,16.27,21.09Z" fill="#121716" fill-rule="evenodd"/>
  <path d="M36,25.66a.71.71,0,0,0,.52-.23.72.72,0,0,0,0-1,14,14,0,0,0-2.66-2,.7.7,0,0,0-.94.34.72.72,0,0,0,.33,1,12.3,12.3,0,0,1,2.29,1.78A.73.73,0,0,0,36,25.66Z" fill="#121716" fill-rule="evenodd"/>
  <path d="M27.5,21.09c2-1.19,5,.47,6.07,1.13a9.82,9.82,0,0,0,2.35-1.74,8.44,8.44,0,0,0,1.95-2.37.72.72,0,0,1,.59-.35c.83,0,.82.9.49,1.42a12.09,12.09,0,0,1-3.76,3.74,7.69,7.69,0,0,1-1.4.78.76.76,0,0,1-.67-.07c-.86-.58-3.61-2.08-4.89-1.3a1.87,1.87,0,0,0-1,1.54c0,1.17.87,2.59,2.48,3.8s4.56,1.59,7.08.85a8,8,0,0,0,5.37-5,.71.71,0,0,1,.91-.42.72.72,0,0,1,.41.93,9.42,9.42,0,0,1-6.3,5.86,11.1,11.1,0,0,1-3.12.45,8.74,8.74,0,0,1-5.2-1.53c-2-1.52-3.13-3.35-3-5A3.32,3.32,0,0,1,27.5,21.09Z" fill="#121716" fill-rule="evenodd"/>
  <path d="M11.24,35.74c2.33,2.36,2.84,5.67,1.15,7.38s-5,1.2-7.29-1.16S2.25,36.3,4,34.58,8.91,33.39,11.24,35.74Z" fill="#828d8c" fill-rule="evenodd"/>
  <path d="M10.45,38.48c1.28,1.3,1.5,3.19.47,4.22s-2.89.83-4.17-.47S5.25,39,6.28,38,9.17,37.18,10.45,38.48Z" fill="#ededea" fill-rule="evenodd"/>
  <path d="M6.56,34.29a2.91,2.91,0,0,0-2.11.8,3.2,3.2,0,0,0-.73,2.83A6.56,6.56,0,0,0,5.6,41.45c2,2,4.93,2.54,6.29,1.16a3.21,3.21,0,0,0,.73-2.82,6.59,6.59,0,0,0-1.88-3.54A6.17,6.17,0,0,0,6.56,34.29ZM9.78,44.85A7.48,7.48,0,0,1,4.6,42.47a8,8,0,0,1-2.29-4.33,4.62,4.62,0,0,1,1.14-4.07,4.24,4.24,0,0,1,3.11-1.22,7.45,7.45,0,0,1,5.18,2.39A8.1,8.1,0,0,1,14,39.56a4.61,4.61,0,0,1-1.14,4.07A4.26,4.26,0,0,1,9.78,44.85Z" fill="#121716" fill-rule="evenodd"/>
  <path d="M32.53,35.74c-2.33,2.36-2.84,5.67-1.15,7.38s5,1.2,7.29-1.16,2.85-5.66,1.15-7.38S34.86,33.39,32.53,35.74Z" fill="#828d8c" fill-rule="evenodd"/>
  <path d="M33.31,38.48c-1.27,1.3-1.49,3.19-.46,4.22s2.89.83,4.17-.47,1.5-3.19.47-4.23S34.6,37.18,33.31,38.48Z" fill="#ededea" fill-rule="evenodd"/>
  <path d="M33,36.25a6.59,6.59,0,0,0-1.88,3.54,3.21,3.21,0,0,0,.73,2.82c1.36,1.38,4.33.83,6.29-1.16a6.56,6.56,0,0,0,1.88-3.53,3.2,3.2,0,0,0-.73-2.83,2.91,2.91,0,0,0-2.11-.8A6.17,6.17,0,0,0,33,36.25Zm-2.15,7.38a4.61,4.61,0,0,1-1.14-4.07A8,8,0,0,1,32,35.24a7.47,7.47,0,0,1,5.18-2.39,4.24,4.24,0,0,1,3.11,1.22,4.62,4.62,0,0,1,1.14,4.07,8,8,0,0,1-2.29,4.33A7.48,7.48,0,0,1,34,44.85,4.26,4.26,0,0,1,30.88,43.63Z" fill="#121716" fill-rule="evenodd"/>
  <path d="M26.35,1.55l.09-.32a20.6,20.6,0,0,0-9.11,0l.09.32-.77.14.11.33,0,.26a2,2,0,0,1,1.91.27,8.29,8.29,0,0,1,2.85,3.38.39.39,0,0,0,.32.18.42.42,0,0,0,.35-.21h0a8.33,8.33,0,0,1,2.84-3.35A2,2,0,0,1,27,2.28L27,2l.11-.33Z" fill="#121716" fill-rule="evenodd"/>
</svg>
