<svg width="100%" height="100%" viewBox="0 0 160 43" fill="none" xmlns="http://www.w3.org/2000/svg">
<path fill-rule="evenodd" clip-rule="evenodd" d="M141.095 21.938C141.366 21.254 141.653 20.5622 141.956 19.8623C142.31 19.0425 142.659 18.2719 143.003 17.5504C143.132 17.1569 143.277 16.8072 143.438 16.5011C143.599 16.195 143.765 15.8562 143.937 15.4846C143.98 15.4408 144.13 15.3971 144.388 15.3534C144.646 15.3097 144.963 15.2714 145.339 15.2386C145.715 15.2058 146.117 15.1949 146.547 15.2058C146.976 15.2168 147.385 15.255 147.771 15.3206C148.158 15.3862 148.496 15.4791 148.786 15.5993C149.076 15.7196 149.264 15.8781 149.35 16.0748C149.178 16.4027 148.91 16.8946 148.544 17.5504C148.179 18.2063 147.803 18.9277 147.417 19.7147C147.03 20.5017 146.67 21.316 146.337 22.1577C146.005 22.9994 145.795 23.759 145.709 24.4367C145.559 25.3986 145.543 26.0654 145.661 26.4371C145.779 26.8087 145.978 26.9727 146.257 26.9289C146.536 26.8852 146.869 26.6666 147.256 26.2731C147.642 25.8796 148.029 25.3986 148.416 24.8302C149.124 23.3655 149.715 22.1468 150.188 21.174C150.66 20.2011 151.068 19.3759 151.412 18.6982C151.755 18.0205 152.04 17.4575 152.266 17.0094C152.491 16.5612 152.722 16.1295 152.958 15.7141C153.28 15.6048 153.672 15.5173 154.134 15.4518C154.596 15.3862 155.063 15.3698 155.536 15.4026C156.008 15.4354 156.454 15.5119 156.873 15.6321C157.292 15.7524 157.598 15.9436 157.791 16.206L157.05 17.9439C156.749 18.6654 156.422 19.4524 156.067 20.305C155.713 21.1576 155.348 22.0211 154.972 22.8955C154.596 23.77 154.236 24.628 153.893 25.4697C153.549 26.3114 153.238 27.082 152.958 27.7815C153.173 27.6066 153.393 27.388 153.619 27.1257C153.844 26.8633 154.107 26.5026 154.408 26.0436C154.709 25.5845 155.085 24.9942 155.536 24.2728C155.987 23.5514 156.545 22.6332 157.211 21.5183C157.555 20.928 157.925 20.5782 158.323 20.4689C158.72 20.3596 159.064 20.3869 159.354 20.5509C159.644 20.7149 159.842 20.9663 159.95 21.3051C160.057 21.644 159.993 21.9774 159.756 22.3053C159.284 23.1797 158.747 24.1252 158.145 25.1418C157.544 26.1583 156.894 27.1147 156.196 28.0111C155.498 28.9074 154.768 29.6834 154.005 30.3393C153.243 30.9951 152.475 31.3996 151.702 31.5526C151.508 32.3615 151.235 33.225 150.88 34.1432C150.526 35.0613 150.134 35.9686 149.704 36.8649C149.275 37.7612 148.829 38.6247 148.367 39.4554C147.905 40.2862 147.47 41.0185 147.062 41.6525C146.762 42.1334 146.364 42.4832 145.87 42.7018C145.376 42.9205 144.877 43.0188 144.372 42.997C143.867 42.9751 143.389 42.8385 142.938 42.5871C142.487 42.3357 142.154 41.9586 141.94 41.4557C141.746 40.8873 141.698 40.3135 141.795 39.7342C141.891 39.1548 142.09 38.5755 142.391 37.9962C142.691 37.4169 143.062 36.8376 143.502 36.2582C143.943 35.6789 144.399 35.1051 144.872 34.5367C145.215 34.1213 145.543 33.7223 145.854 33.3398C146.166 32.9572 146.456 32.5691 146.724 32.1756C146.993 31.7821 147.234 31.3668 147.449 30.9295C147.664 30.4923 147.836 30.0223 147.964 29.5195C147.599 29.8693 147.223 30.1863 146.837 30.4705C146.45 30.7547 146.042 30.9897 145.613 31.1755C145.183 31.3613 144.727 31.4761 144.243 31.5198C143.76 31.5635 143.25 31.5089 142.713 31.3558C141.575 31.0498 140.769 30.4759 140.297 29.6343C140.163 29.3962 140.052 29.1436 139.965 28.8767C139.634 29.3399 139.266 29.7619 138.863 30.1425C138.422 30.5579 137.934 30.9022 137.397 31.1755C136.86 31.4488 136.259 31.5854 135.593 31.5854C134.476 31.4324 133.643 30.9951 133.096 30.2737C132.698 29.7501 132.402 29.1602 132.209 28.5041C132.048 28.7073 131.887 28.9037 131.726 29.0932C131.039 29.9021 130.336 30.536 129.616 30.9951C128.897 31.4542 128.161 31.6838 127.409 31.6838C127.044 31.6838 126.561 31.5471 125.959 31.2739C125.358 31.0006 124.708 30.6453 124.01 30.2081C123.312 29.7709 122.625 29.279 121.948 28.7325C121.272 28.186 120.686 27.6394 120.192 27.0929C119.956 27.7925 119.774 28.6341 119.645 29.6179C119.516 30.6016 119.602 31.8586 119.902 33.3889C119.065 33.214 118.361 32.99 117.792 32.7167C117.223 32.4434 116.75 32.1592 116.375 31.8641C115.999 31.569 115.709 31.2848 115.505 31.0115C115.301 30.7383 115.166 30.5142 115.102 30.3393C114.963 29.9359 114.865 29.4985 114.808 29.0272C114.525 29.3458 114.237 29.652 113.942 29.9458C113.405 30.4486 112.728 30.8476 111.912 31.1427C111.096 31.4378 110.215 31.5854 109.27 31.5854C108.626 31.5854 107.992 31.4925 107.37 31.3067C106.747 31.1208 106.167 30.8585 105.63 30.5196C105.093 30.1808 104.62 29.7709 104.212 29.2899C103.983 29.0202 103.788 28.7299 103.627 28.4189C103.501 28.5594 103.374 28.6967 103.246 28.8309C102.451 29.6616 101.586 30.3284 100.652 30.8312C99.7177 31.334 98.6813 31.5854 97.543 31.5854C97.0275 31.5854 96.4798 31.5143 95.8998 31.3722C95.3199 31.2301 94.7722 31.0225 94.2567 30.7492C93.7412 30.4759 93.2794 30.1316 92.8713 29.7162C92.5691 29.4086 92.3316 29.065 92.159 28.6855C91.9379 28.9687 91.7136 29.2357 91.4859 29.4867C90.7127 30.3393 89.8804 30.9733 88.989 31.3886C88.0977 31.804 87.0828 31.9133 85.9444 31.7166C85.4719 31.6291 85.0799 31.4925 84.7684 31.3067C84.457 31.1208 84.2046 30.9131 84.0113 30.6836C83.818 30.4541 83.673 30.2027 83.5764 29.9294C83.4797 29.6561 83.4206 29.3774 83.3992 29.0932C83.3562 28.5467 83.3938 27.9509 83.5119 27.306C83.6301 26.6611 83.7858 26.0108 83.9791 25.3549C84.1724 24.6991 84.3872 24.0596 84.6235 23.4366C84.8597 22.8135 85.0745 22.2506 85.2678 21.7478C85.4397 21.245 85.5685 20.846 85.6544 20.5509C85.7404 20.2558 85.7511 20.0536 85.6867 19.9443C85.6222 19.8349 85.4665 19.8076 85.2195 19.8623C84.9725 19.9169 84.6127 20.0426 84.1402 20.2394C83.6032 20.4799 83.1199 20.8515 82.6904 21.3543C82.2608 21.8571 81.8849 22.4528 81.5627 23.1415C81.2405 23.8301 80.9667 24.5624 80.7412 25.3385C80.5156 26.1146 80.3438 26.8907 80.2257 27.6667C80.1075 28.4428 80.0377 29.1861 80.0163 29.8966C79.9948 30.6071 80.0163 31.2137 80.0807 31.7166C79.2001 31.4542 78.4752 31.2356 77.906 31.0607C77.3368 30.8858 76.875 30.7055 76.5206 30.5196C76.1662 30.3338 75.9084 30.1316 75.7473 29.913C75.5863 29.6944 75.4628 29.4102 75.3768 29.0604C75.4153 28.5515 75.4817 28.0087 75.5762 27.4319C75.2792 27.7744 74.9658 28.1095 74.6358 28.4374C73.7337 29.3337 72.7457 30.1207 71.6717 30.7984C70.5978 31.4761 69.4594 32.0117 68.2566 32.4052C67.0538 32.7987 65.8403 32.9954 64.616 32.9954C63.3272 32.9954 62.0278 32.755 60.7176 32.274C59.4073 31.7931 58.2314 31.0935 57.1897 30.1753C56.1479 29.2572 55.3049 28.1368 54.6605 26.8142C54.0162 25.4915 53.7155 23.9777 53.7584 22.2725C53.8014 21.245 54.0215 20.1793 54.4189 19.0753C54.8163 17.9713 55.3532 16.8782 56.0298 15.7961C56.7064 14.7139 57.5011 13.6537 58.4139 12.6153C59.3268 11.5768 60.3041 10.604 61.3458 9.69679C62.3875 8.78954 63.4776 7.96975 64.616 7.23739C65.7543 6.50504 66.9034 5.88746 68.0633 5.38465C69.3306 4.88184 70.5924 4.54299 71.8489 4.3681C73.1055 4.19321 74.2277 4.25879 75.2157 4.56485C76.2038 4.87091 76.9985 5.47756 77.5999 6.3848C78.2013 7.29205 78.4913 8.57639 78.4698 10.2379C78.4483 11.3309 78.153 12.3803 77.5838 13.3859C77.0146 14.3915 76.3165 15.2823 75.4896 16.0584C74.6627 16.8345 73.7713 17.4521 72.8155 17.9112C71.8597 18.3702 70.9952 18.5998 70.2219 18.5998C69.8783 18.5998 69.4755 18.4905 69.0137 18.2719C68.5519 18.0533 68.0848 17.7581 67.6122 17.3865C68.7077 16.7306 69.6742 15.9327 70.5119 14.9927C71.3496 14.0526 71.9617 13.1454 72.3483 12.2709C72.8423 10.9155 72.9658 9.99191 72.7188 9.50003C72.4718 9.00815 72.01 8.80047 71.3335 8.87699C70.6569 8.9535 69.8407 9.25409 68.8849 9.77877C67.9291 10.3034 67.0001 10.9101 66.098 11.5987C65.1959 12.2873 64.3904 12.9978 63.6816 13.7302C62.9728 14.4625 62.5218 15.0692 62.3285 15.5501C61.6841 16.359 61.1525 17.2389 60.7337 18.1899C60.3148 19.1409 60.0302 20.0918 59.8799 21.0428C59.7295 21.9938 59.7188 22.9174 59.8477 23.8137C59.9765 24.71 60.2772 25.5079 60.7498 26.2075C61.2223 26.9071 61.8774 27.47 62.7151 27.8963C63.5528 28.3226 64.5945 28.5576 65.8402 28.6013C66.7638 28.645 67.7733 28.3882 68.8688 27.8307C69.9642 27.2732 71.0918 26.5518 72.2517 25.6664C73.4115 24.7811 74.5714 23.7864 75.7312 22.6824C76.2095 22.2272 76.6767 21.7767 77.133 21.3308C77.2166 21.067 77.3024 20.8016 77.3905 20.5345C77.9167 18.9386 78.4966 17.3428 79.1303 15.7469C79.7639 14.151 80.4082 12.6645 81.0633 11.2872C81.7185 9.90993 82.3574 8.7021 82.9803 7.66369C83.6032 6.62527 84.1509 5.87653 84.6235 5.41744C84.8382 5.22069 85.2463 5.11138 85.8478 5.08952C86.4492 5.06766 87.0452 5.11685 87.6359 5.23709C88.2265 5.35732 88.7313 5.53221 89.1501 5.76176C89.569 5.9913 89.7032 6.24817 89.5528 6.53237C89.3381 6.92587 89.0535 7.41774 88.6991 8.008C88.3447 8.59826 87.9688 9.2377 87.5714 9.92633C87.1741 10.615 86.7606 11.3254 86.331 12.0578C85.9015 12.7902 85.5041 13.4952 85.139 14.1729C84.7738 14.8506 84.4516 15.4682 84.1724 16.0256C83.8932 16.5831 83.6999 17.0367 83.5925 17.3865C84.6879 16.2497 85.7457 15.5228 86.766 15.2058C87.7862 14.8888 88.6293 14.9544 89.2951 15.4026C89.9609 15.8507 90.3851 16.6596 90.5677 17.8292C90.7503 18.9988 90.5624 20.4798 90.0039 22.2725C89.6817 23.2781 89.4562 24.0323 89.3273 24.5351C89.1984 25.0379 89.1018 25.4424 89.0374 25.7484C88.9514 26.2075 88.9407 26.5026 89.0051 26.6338C89.0696 26.765 89.1877 26.7814 89.3595 26.683C89.5314 26.5846 89.7408 26.4043 89.9878 26.1419C90.2348 25.8796 90.4872 25.5626 90.7449 25.191C91.0027 24.863 91.2604 24.5187 91.5182 24.158C91.7045 23.8973 91.8823 23.648 92.0518 23.4101C92.0617 23.3806 92.0718 23.3512 92.082 23.3218C92.2645 22.7971 92.474 22.2943 92.7102 21.8134C93.1613 20.9171 93.6983 20.0809 94.3211 19.3048C94.944 18.5287 95.6206 17.851 96.3509 17.2717C97.0812 16.6924 97.8329 16.2333 98.6062 15.8945C99.3794 15.5556 100.131 15.3862 100.861 15.3862C102.15 15.3862 103.079 15.6103 103.648 16.0584C104.217 16.5066 104.507 17.0804 104.518 17.78C104.529 18.4796 104.309 19.2556 103.858 20.1082C103.407 20.9608 102.827 21.8025 102.118 22.6332C101.409 23.4639 100.604 24.2236 99.7016 24.9122C98.7995 25.6009 97.9081 26.131 97.0275 26.5026C97.049 27.0929 97.1563 27.5301 97.3497 27.8143C97.543 28.0985 97.7953 28.2734 98.1068 28.339C98.4182 28.4046 98.7726 28.3772 99.17 28.257C99.5673 28.1368 99.9593 27.9455 100.346 27.6831C100.733 27.4645 101.135 27.1202 101.554 26.6502C101.973 26.1802 102.397 25.6664 102.827 25.109C102.886 25.0318 102.945 24.9542 103.004 24.8761C103.101 23.9263 103.343 22.9983 103.729 22.0921C104.115 21.1849 104.626 20.3268 105.259 19.518C105.893 18.7091 106.596 17.9986 107.37 17.3865C108.143 16.7744 108.964 16.288 109.834 15.9272C110.704 15.5665 111.569 15.3862 112.428 15.3862C112.814 15.3862 113.217 15.4354 113.636 15.5337C114.055 15.6321 114.447 15.7851 114.812 15.9928C115.177 16.2005 115.483 16.4628 115.73 16.7798C115.977 17.0968 116.122 17.4739 116.165 17.9112C116.187 18.3484 116.122 18.8239 115.972 19.3376C115.821 19.8513 115.633 20.3487 115.408 20.8296C115.182 21.3106 114.952 21.7478 114.715 22.1413C114.479 22.5348 114.296 22.8409 114.168 23.0595C113.974 23.2562 113.674 23.4585 113.265 23.6661C112.857 23.8738 112.374 23.9777 111.816 23.9777C111.472 23.9777 111.118 23.9066 110.752 23.7645C110.387 23.6224 110.081 23.4147 109.834 23.1415C109.587 22.8682 109.437 22.5348 109.383 22.1413C109.329 21.7478 109.464 21.3106 109.786 20.8296C110.151 20.3487 110.548 20.0372 110.978 19.8951C111.408 19.753 111.826 19.6273 112.234 19.518C112.234 19.4305 112.267 19.3212 112.331 19.19C112.396 19.0589 112.444 18.9168 112.476 18.7637C112.508 18.6107 112.514 18.4741 112.492 18.3538C112.471 18.2336 112.385 18.1407 112.234 18.0751H112.267C111.902 17.8784 111.493 17.9276 111.042 18.2227C110.591 18.5178 110.156 18.9605 109.738 19.5508C109.319 20.141 108.943 20.8351 108.61 21.633C108.277 22.431 108.051 23.2344 107.933 24.0432C107.815 24.8521 107.837 25.6173 107.998 26.3387C108.159 27.0601 108.529 27.6504 109.109 28.1094H109.077C109.636 28.4592 110.097 28.6068 110.462 28.5521C110.828 28.4975 111.268 28.3171 111.783 28.0111C112.127 27.7924 112.492 27.4645 112.879 27.0273C113.265 26.5901 113.668 26.0927 114.087 25.5353C114.506 24.9778 114.93 24.3712 115.36 23.7153C115.37 23.7 115.38 23.6847 115.39 23.6694C115.677 22.5614 116.043 21.418 116.487 20.2394C116.981 18.9277 117.518 17.6324 118.098 16.3535C118.678 15.0747 119.28 13.845 119.902 12.6645C120.525 11.4839 121.116 10.4073 121.674 9.43445C122.233 8.46162 122.732 7.61997 123.173 6.90947C123.613 6.19898 123.951 5.69071 124.187 5.38465C124.445 5.16604 124.783 5.0294 125.202 4.97475C125.621 4.9201 126.051 4.93103 126.491 5.00754C126.931 5.08406 127.339 5.22615 127.715 5.43384C128.091 5.64152 128.365 5.87653 128.537 6.13886C128.451 6.46678 128.274 6.94226 128.005 7.56531C127.737 8.18836 127.409 8.88245 127.023 9.6476C126.636 10.4127 126.228 11.2052 125.798 12.025C125.369 12.8448 124.966 13.6154 124.59 14.3368C124.214 15.0583 123.892 15.6813 123.624 16.206C123.355 16.7307 123.189 17.0804 123.124 17.2553C123.747 16.7744 124.418 16.359 125.138 16.0092C125.857 15.6594 126.615 15.4846 127.409 15.4846C128.483 15.4846 129.358 15.7633 130.035 16.3208C130.712 16.8782 131.104 17.6707 131.211 18.6982C131.275 19.6163 131.098 20.5072 130.679 21.3707C130.261 22.2342 129.67 23.0103 128.907 23.6989C128.145 24.3876 127.254 24.9505 126.233 25.3877C125.213 25.8249 124.123 26.0873 122.963 26.1747L124.896 27.4044C125.498 27.787 126.142 27.9236 126.829 27.8143C127.603 27.705 128.295 27.4591 128.907 27.0765C129.52 26.6939 130.083 26.2294 130.599 25.6828C131.114 25.1363 131.592 24.5297 132.033 23.8629C132.084 23.7855 132.135 23.7081 132.186 23.6305C132.32 22.9385 132.489 22.2891 132.693 21.6822C133.402 19.8896 134.089 18.1899 134.755 16.5831C135.421 14.9763 136.065 13.5061 136.688 12.1726C137.311 10.839 137.891 9.65307 138.428 8.61465C138.965 7.57624 139.459 6.70726 139.91 6.0077C140.039 5.85467 140.382 5.72897 140.941 5.63059C141.499 5.53221 142.095 5.48303 142.729 5.48303C143.363 5.48303 143.948 5.53221 144.485 5.63059C145.022 5.72897 145.333 5.89839 145.419 6.13886C145.355 6.4012 145.226 6.75098 145.033 7.1882C144.839 7.62543 144.603 8.12824 144.324 8.69663C144.045 9.26503 143.733 9.8826 143.389 10.5494C143.046 11.2161 142.681 11.9102 142.294 12.6317C140.404 16.3044 138.696 20.1628 137.171 24.2072C137 24.6007 136.871 25.0325 136.785 25.5025C136.699 25.9725 136.688 26.3496 136.753 26.6338C136.817 26.918 136.967 27.0492 137.204 27.0273C137.44 27.0054 137.805 26.6994 138.299 26.1091C138.557 25.7812 138.841 25.4041 139.153 24.9778C139.464 24.5515 139.76 24.1143 140.039 23.6661C140.318 23.218 140.581 22.7917 140.828 22.3873C140.926 22.2262 141.015 22.0765 141.095 21.938ZM96.8664 23.3218C97.1671 23.1469 97.5107 22.9229 97.8974 22.6496C98.284 22.3763 98.6921 22.0211 99.1217 21.5839C99.5512 21.1903 99.9056 20.7422 100.185 20.2394C100.464 19.7366 100.647 19.3103 100.733 18.9605C100.818 18.6107 100.781 18.3976 100.62 18.3211C100.459 18.2445 100.163 18.4249 99.7338 18.8621C99.4546 19.1463 99.17 19.4906 98.88 19.8951C98.5901 20.2995 98.3162 20.7039 98.0585 21.1084C97.8007 21.5128 97.5644 21.8954 97.3497 22.2561C97.1349 22.6168 96.9738 22.8955 96.8664 23.0923V23.3218ZM124.671 19.8787C124.413 20.1191 124.134 20.4197 123.833 20.7804C123.532 21.1412 123.232 21.5347 122.931 21.961C122.63 22.3873 122.34 22.8354 122.061 23.3054C121.782 23.7754 121.535 24.24 121.32 24.6991C122.222 24.5679 122.979 24.3493 123.591 24.0432C124.204 23.7372 124.698 23.3819 125.073 22.9775C125.449 22.5731 125.712 22.1577 125.863 21.7314C126.013 21.3051 126.078 20.9171 126.056 20.5673C125.992 19.8677 125.852 19.4742 125.637 19.3868C125.422 19.2993 125.1 19.4633 124.671 19.8787Z" fill="#45C8F1"/>
<path fill-rule="evenodd" clip-rule="evenodd" d="M38.6109 8.19547C38.4933 7.94993 38.3221 7.72558 38.0667 7.58238C37.7856 7.42567 37.4784 7.39916 37.1906 7.45131L37.1702 7.44016C32.8451 8.20092 28.4812 11.5551 25.8488 16.6963C23.0127 22.2363 22.9718 28.3194 25.282 32.4822C29.9229 32.0978 34.7684 28.6304 37.6044 23.0904C40.2476 17.9326 40.4599 12.3082 38.6109 8.19547Z" fill="#828D8C"/>
<path fill-rule="evenodd" clip-rule="evenodd" d="M37.1616 8.01873C32.9001 8.81071 28.7603 12.2281 26.3369 16.9617C23.7713 21.9731 23.4911 27.7796 25.5901 31.8801C30.0586 31.3515 34.5519 27.8362 37.1164 22.8249C39.5688 18.0391 39.9493 12.5258 38.1099 8.43411C38.0322 8.27306 37.9299 8.15315 37.8028 8.08204C37.6562 7.99879 37.4665 7.97649 37.2866 8.01105C37.2436 8.01762 37.2004 8.02319 37.1616 8.01873ZM25.282 33.0507C25.0849 33.0507 24.9016 32.942 24.8035 32.7642C22.2995 28.2527 22.5127 21.9942 25.3607 16.4309C27.9995 11.2763 32.3795 7.70556 37.0776 6.87927C37.1218 6.87035 37.1681 6.86924 37.2134 6.8737C37.6023 6.82588 37.9935 6.89587 38.3286 7.08244C38.6604 7.26789 38.9212 7.55777 39.1055 7.94428C41.0924 12.3625 40.7024 18.2635 38.0925 23.3559C35.2448 28.9179 30.3529 32.633 25.3262 33.0485C25.3111 33.0496 25.297 33.0507 25.282 33.0507Z" fill="#121716"/>
<path fill-rule="evenodd" clip-rule="evenodd" d="M36.5862 10.6089C37.7909 11.2786 38.8608 12.0883 39.7605 12.9746C39.6335 11.2553 39.2562 9.63039 38.6109 8.19547C38.4933 7.94993 38.322 7.72558 38.0667 7.58238C37.7855 7.42567 37.4783 7.39916 37.1906 7.45131L37.1702 7.44016C35.6789 7.70341 34.1877 8.29432 32.7588 9.13833C34.0249 9.42499 35.3265 9.90912 36.5862 10.6089Z" fill="#121716"/>
<path fill-rule="evenodd" clip-rule="evenodd" d="M29.8227 11.8618C28.6719 13.028 27.5739 14.3474 26.5642 15.818C28.6956 15.6668 31.05 16.1989 33.1834 17.4883C35.305 18.7678 36.8987 20.616 37.8123 22.5952C38.557 20.9469 39.1227 19.2943 39.5322 17.675C38.4234 16.19 36.9901 14.8716 35.263 13.8277C33.5044 12.7637 31.6533 12.1238 29.8227 11.8618Z" fill="#121716"/>
<path fill-rule="evenodd" clip-rule="evenodd" d="M24.3261 18.8457C23.5978 20.2983 22.9846 21.7512 22.4858 23.1906C24.4717 23.1417 26.5653 23.6692 28.4456 24.8542C30.3463 26.045 31.1954 27.8565 32.0617 29.7202C33.7739 28.8682 34.6111 27.2378 35.5226 25.8916C34.4268 23.9247 32.8483 22.1843 30.7881 20.8915C28.7332 19.5987 26.5169 18.9535 24.3261 18.8457Z" fill="#121716"/>
<path fill-rule="evenodd" clip-rule="evenodd" d="M8.69252 2.93531C10.4973 4.79453 10.9811 7.31242 9.77215 8.55743C8.56429 9.80244 6.12152 9.30493 4.31778 7.4446C2.51404 5.58539 2.03017 3.06749 3.23803 1.82248C4.44602 0.577474 6.88866 1.0761 8.69252 2.93531Z" fill="#828D8C"/>
<path fill-rule="evenodd" clip-rule="evenodd" d="M7.49651 4.16925C8.4027 5.09997 8.69139 6.31612 8.14515 6.87817C7.59566 7.44344 6.41784 7.14575 5.51285 6.2128C4.60881 5.27985 4.32001 4.06705 4.86733 3.50277C5.41586 2.9375 6.59139 3.2363 7.49651 4.16925Z" fill="#121716"/>
<path fill-rule="evenodd" clip-rule="evenodd" d="M5.00313 1.7062C4.60544 1.7062 4.04405 1.79614 3.62821 2.22477C2.65411 3.22883 3.14867 5.43578 4.70784 7.0429C5.69913 8.06467 6.93187 8.67442 8.0062 8.67442C8.40377 8.67442 8.96624 8.58448 9.3822 8.15572C9.83254 7.69154 9.98878 6.95729 9.82184 6.08765C9.63856 5.13475 9.09881 4.15844 8.30246 3.3376C7.31117 2.31582 6.07843 1.7062 5.00313 1.7062ZM8.0062 9.81165C6.64522 9.81165 5.12055 9.07753 3.92772 7.84689C1.87724 5.73335 1.4031 2.91008 2.84809 1.42066C3.38905 0.863066 4.13359 0.568848 5.00313 0.568848C6.36399 0.568848 7.88866 1.30297 9.08258 2.53361C10.0319 3.51091 10.6784 4.69497 10.9036 5.86664C11.145 7.12057 10.881 8.21903 10.1623 8.95984C9.62137 9.51743 8.87574 9.81165 8.0062 9.81165Z" fill="#121716"/>
<path fill-rule="evenodd" clip-rule="evenodd" d="M25.282 2.93531C23.4772 4.79453 22.9933 7.31242 24.2024 8.55743C25.4102 9.80244 27.853 9.30493 29.6567 7.4446C31.4605 5.58539 31.9442 3.06749 30.7364 1.82248C29.5285 0.577474 27.0857 1.0761 25.282 2.93531Z" fill="#828D8C"/>
<path fill-rule="evenodd" clip-rule="evenodd" d="M26.478 4.16925C25.5718 5.09997 25.283 6.31612 25.8292 6.87817C26.3787 7.44344 27.5565 7.14575 28.4617 6.2128C29.3657 5.27985 29.6545 4.06705 29.1072 3.50277C28.5587 2.9375 27.3831 3.2363 26.478 4.16925Z" fill="#121716"/>
<path fill-rule="evenodd" clip-rule="evenodd" d="M25.6721 3.3376C24.8758 4.15844 24.3359 5.13475 24.1528 6.08765C23.9857 6.95729 24.1419 7.69154 24.5924 8.15572C25.0084 8.58448 25.5708 8.67442 25.9684 8.67442C27.0427 8.67442 28.2754 8.06467 29.2668 7.0429C30.8258 5.43578 31.3205 3.22883 30.3464 2.22477C29.9304 1.79614 29.369 1.7062 28.9715 1.7062C27.896 1.7062 26.6634 2.31582 25.6721 3.3376ZM23.8123 8.95984C23.0936 8.21903 22.8295 7.12057 23.071 5.86664C23.2962 4.69497 23.9427 3.51091 24.8919 2.53361C26.0858 1.30297 27.6105 0.568848 28.9715 0.568848C29.841 0.568848 30.5856 0.863066 31.1264 1.42066C32.5715 2.91008 32.0972 5.73335 30.0468 7.84689C28.8539 9.07753 27.3294 9.81165 25.9684 9.81165C25.0989 9.81165 24.3532 9.51743 23.8123 8.95984Z" fill="#121716"/>
<path fill-rule="evenodd" clip-rule="evenodd" d="M29.1695 7.55936C26.3249 3.51537 21.9438 0.568848 16.9872 0.568848C12.0306 0.568848 7.64942 3.51537 4.80475 7.55936C1.34378 12.4772 -0.661394 19.4489 1.39762 25.3464C3.14115 30.3422 7.3272 34.1384 12.2493 35.5845C13.788 36.0376 15.3871 36.2631 16.9872 36.2631C18.5872 36.2631 20.1863 36.0376 21.725 35.5845C26.6471 34.1384 30.8333 30.3422 32.5768 25.3464C34.6359 19.4489 32.6306 12.4772 29.1695 7.55936Z" fill="#828D8C"/>
<path fill-rule="evenodd" clip-rule="evenodd" d="M30.3451 9.79705C30.148 8.98959 29.647 8.22326 29.1804 7.55913C28.5856 6.71277 27.9198 5.91968 27.1989 5.18668C24.6268 3.91392 21.6873 3.91615 19.4461 5.47433C18.278 6.28737 17.4592 7.42249 16.9872 8.71631C16.5153 7.42249 15.6963 6.28737 14.5284 5.47433C12.287 3.91615 9.34754 3.91392 6.77558 5.18668C6.05471 5.91968 5.38876 6.71277 4.79409 7.55913C4.32741 8.22326 3.82635 8.98959 3.62925 9.79705C3.42337 10.6378 3.12712 11.7663 3.16594 12.617C3.22951 14.0009 4.06023 15.0205 5.15717 15.7524C5.42542 15.9323 8.29496 18.1959 8.02767 18.3569C8.2303 18.2346 8.4857 18.0858 8.77005 17.9315V18.1903C9.81098 17.5649 11.3238 16.7986 12.3367 16.9185L12.3495 16.9207C12.3787 16.9241 12.4024 16.9375 12.4304 16.943C12.7095 17.0185 12.9541 17.1585 13.1416 17.394C13.5747 17.9371 13.6135 18.5645 13.4627 19.1743C13.5747 19.0899 13.6749 18.9832 13.7838 18.8933C13.7719 19.3131 13.6793 19.6319 13.6793 19.6319L13.4907 19.905C14.6016 20.1217 15.7686 20.2405 16.9764 20.2405H16.9829C16.9914 20.2405 16.9937 20.2405 16.9937 20.2405C18.2058 20.2405 19.3728 20.1217 20.4838 19.905L20.2952 19.6319C20.2952 19.6319 20.2026 19.3131 20.1907 18.8933C20.2994 18.9832 20.3997 19.0899 20.5118 19.1743C20.361 18.5645 20.3997 17.9371 20.8329 17.394C21.0203 17.1585 21.265 17.0185 21.5441 16.943C21.5721 16.9375 21.5959 16.9241 21.625 16.9207L21.6378 16.9185C22.6506 16.7986 24.1635 17.5649 25.2044 18.1903V17.9315C25.4888 18.0858 25.7442 18.2346 25.9468 18.3569C25.6795 18.1959 28.5489 15.9323 28.8172 15.7524C29.9141 15.0205 30.745 14.0009 30.8085 12.617C30.8474 11.7663 30.551 10.6378 30.3451 9.79705Z" fill="#EDEDEA"/>
<path fill-rule="evenodd" clip-rule="evenodd" d="M16.9872 22.5583C12.8097 22.5583 9.42517 26.8544 9.42517 32.1545C9.42517 33.2129 9.56531 34.227 9.81421 35.1788C10.271 35.3197 10.7237 35.4719 11.1924 35.5841C13.0747 36.0373 15.0305 36.2627 16.9872 36.2627C18.944 36.2627 20.8997 36.0373 22.7822 35.5841C23.2508 35.4719 23.7034 35.3197 24.1602 35.1788C24.4091 34.227 24.5493 33.2129 24.5493 32.1545C24.5493 26.8544 21.1647 22.5583 16.9872 22.5583Z" fill="#EDEDEA"/>
<path fill-rule="evenodd" clip-rule="evenodd" d="M17.8406 13.8608C17.6543 13.9231 17.4593 13.9542 17.2642 13.9708C17.2794 13.9364 17.3072 13.9097 17.3072 13.8708V13.1C17.3419 13.0723 17.3796 13.0535 17.4096 13.0157L17.9958 12.2849C18.2275 11.9961 18.1187 11.7595 17.7545 11.7595H16.2202C15.8559 11.7595 15.7471 11.9961 15.9787 12.2849L16.5649 13.0157C16.6167 13.0812 16.6792 13.1267 16.7427 13.1622V13.8708C16.7427 13.9097 16.7697 13.9364 16.7837 13.9708C16.5885 13.953 16.3947 13.9219 16.2094 13.8608C15.9701 13.782 15.4755 13.4866 15.4076 13.9453C15.4076 13.973 15.4076 14.0008 15.4076 14.0285C15.4076 14.9471 16.1275 15.6913 17.0229 15.6935H17.0271C17.9226 15.6913 18.6423 14.9471 18.6423 14.0285C18.6423 14.0008 18.6423 13.973 18.6423 13.9453C18.5745 13.4866 18.0799 13.782 17.8406 13.8608Z" fill="#121716"/>
<path fill-rule="evenodd" clip-rule="evenodd" d="M16.9873 1.13723C12.549 1.13723 8.2712 3.59963 5.25202 7.89336C1.45056 13.2945 0.141387 20.0694 1.91712 25.154C3.5484 29.8299 7.56547 33.6174 12.4003 35.0379C15.3613 35.9085 18.6143 35.9085 21.5732 35.0379C26.4091 33.6174 30.426 29.8299 32.0573 25.154C33.8332 20.0694 32.524 13.2945 28.7236 7.89336C25.7032 3.59963 21.4256 1.13723 16.9873 1.13723ZM16.9873 36.8315C15.3214 36.8315 13.676 36.5961 12.0974 36.1307C6.84892 34.5891 2.65518 30.6297 0.878362 25.5384C-1.4221 18.9499 1.16825 11.7585 4.35881 7.22477C7.58806 2.63323 12.1913 0 16.9873 0C21.7833 0 26.3865 2.63323 29.6168 7.22477C32.8063 11.7585 35.3966 18.9499 33.0962 25.5384C31.3194 30.6297 27.1256 34.5891 21.876 36.1307C20.2985 36.5961 18.653 36.8315 16.9873 36.8315Z" fill="#121716"/>
<path fill-rule="evenodd" clip-rule="evenodd" d="M12.5544 7.27462C12.0889 7.01583 11.5696 6.88477 11.0102 6.88477C9.44999 6.88477 7.89624 8.23545 7.13439 9.14387C5.85333 10.6711 4.66806 13.7431 7.11828 14.7971C8.00404 15.1781 8.98019 15.2936 9.93278 15.3113C11.1493 15.3357 12.4498 15.307 13.41 14.4228C14.384 13.5254 14.5413 12.0594 14.4508 10.7865C14.3334 9.13384 13.6598 7.88548 12.5544 7.27462Z" fill="#121716"/>
<path fill-rule="evenodd" clip-rule="evenodd" d="M12.6125 9.92925C12.5952 9.71159 12.3636 9.47163 12.2278 9.34725C11.9251 9.07508 11.5382 8.92407 11.1363 8.92407C11.0092 8.92407 10.8788 8.93844 10.7463 8.96743C10.2334 9.07843 9.80234 9.39718 9.56426 9.84253C9.47376 10.0114 9.31968 10.348 9.35946 10.5401C9.39287 10.7 9.5395 10.8099 9.68925 10.8377C9.88852 10.8755 9.96616 10.7788 10.061 10.6123C10.0793 10.58 10.0986 10.5467 10.1202 10.5112C10.4089 10.0503 10.8163 9.79707 11.2678 9.79707C11.521 9.79707 11.6751 9.87251 11.9046 10.0292C12.0555 10.1325 12.2204 10.3402 12.425 10.229C12.5726 10.148 12.6212 10.0425 12.6125 9.92925Z" fill="#FFFFFE"/>
<path fill-rule="evenodd" clip-rule="evenodd" d="M21.4202 7.27462C21.8857 7.01583 22.405 6.88477 22.9642 6.88477C24.5246 6.88477 26.0782 8.23545 26.8401 9.14387C28.1213 10.6711 29.3065 13.7431 26.8563 14.7971C25.9705 15.1781 24.9943 15.2936 24.0418 15.3113C22.8253 15.3357 21.5248 15.307 20.5646 14.4228C19.5905 13.5254 19.4332 12.0594 19.5237 10.7865C19.6412 9.13384 20.3146 7.88548 21.4202 7.27462Z" fill="#121716"/>
<path fill-rule="evenodd" clip-rule="evenodd" d="M21.3619 9.92925C21.3792 9.71159 21.6109 9.47163 21.7466 9.34725C22.0495 9.07508 22.4362 8.92407 22.8381 8.92407C22.9653 8.92407 23.0957 8.93844 23.2283 8.96743C23.7411 9.07843 24.1722 9.39718 24.4103 9.84253C24.5008 10.0114 24.6549 10.348 24.6151 10.5401C24.5815 10.7 24.4352 10.8099 24.2852 10.8377C24.0859 10.8755 24.0084 10.7788 23.9136 10.6123C23.8952 10.58 23.8758 10.5467 23.8543 10.5112C23.5655 10.0503 23.1583 9.79707 22.7068 9.79707C22.4534 9.79707 22.2995 9.87251 22.0699 10.0292C21.9191 10.1325 21.7542 10.3402 21.5495 10.229C21.4018 10.148 21.3534 10.0425 21.3619 9.92925Z" fill="#FFFFFE"/>
<path fill-rule="evenodd" clip-rule="evenodd" d="M6.03758 20.2839C5.89107 20.2839 5.74445 20.224 5.63568 20.1052C5.42656 19.8764 5.43737 19.5165 5.65936 19.3009C5.78543 19.1788 6.91686 18.0926 7.71957 17.6938C7.99215 17.5595 8.32302 17.6761 8.45547 17.9593C8.58803 18.2414 8.47277 18.5813 8.19791 18.7178C7.64842 18.9911 6.72504 19.8297 6.4158 20.1296C6.30908 20.2329 6.17327 20.2839 6.03758 20.2839Z" fill="#121716"/>
<path fill-rule="evenodd" clip-rule="evenodd" d="M12.6288 16.6741C11.1062 15.7301 8.73455 17.045 7.91357 17.5615C7.2368 17.2194 6.63996 16.7196 6.0936 16.1898C5.43523 15.5523 5.02143 15.1513 4.58191 14.3139C4.47843 14.1584 4.31678 14.043 4.11956 14.043C3.47416 14.043 3.48498 14.7471 3.74134 15.1625C4.53228 16.4419 5.43523 17.2706 6.65607 18.1168C6.9998 18.3545 7.36288 18.5744 7.74975 18.7321C7.91777 18.801 8.11283 18.7833 8.26475 18.6789C8.93718 18.2179 11.0696 17.0384 12.062 17.6493C12.5447 17.948 12.8022 18.359 12.827 18.871C12.8712 19.7939 12.1536 20.9157 10.9069 21.873C9.62681 22.856 7.36721 23.1325 5.41371 22.5472C4.02257 22.1307 2.17039 21.1067 1.24365 18.6C1.13596 18.3045 0.813743 18.1579 0.53251 18.2712C0.24695 18.3823 0.104771 18.7111 0.213538 19.0043C1.06265 21.3023 2.79968 22.9482 5.10556 23.6391C5.89638 23.8767 6.72289 23.9922 7.53102 23.9922C9.06963 23.9922 10.5405 23.5736 11.5662 22.786C13.1319 21.5831 13.9929 20.1361 13.9282 18.8144C13.8851 17.9258 13.4239 17.1661 12.6288 16.6741Z" fill="#121716"/>
<path fill-rule="evenodd" clip-rule="evenodd" d="M27.937 20.2839C28.0836 20.2839 28.2302 20.224 28.3389 20.1052C28.5479 19.8764 28.5371 19.5165 28.3153 19.3009C28.1892 19.1788 27.0578 18.0926 26.2551 17.6938C25.9825 17.5595 25.6517 17.6761 25.519 17.9593C25.3866 18.2414 25.5019 18.5813 25.7766 18.7178C26.3262 18.9911 27.2496 19.8297 27.5588 20.1296C27.6654 20.2329 27.8012 20.2839 27.937 20.2839Z" fill="#121716"/>
<path fill-rule="evenodd" clip-rule="evenodd" d="M21.3458 16.6741C22.8683 15.7301 25.2401 17.045 26.061 17.5615C26.7378 17.2194 27.3348 16.7196 27.8809 16.1898C28.5394 15.5523 28.9531 15.1513 29.3928 14.3139C29.4962 14.1584 29.6578 14.043 29.8549 14.043C30.5003 14.043 30.4897 14.7471 30.2333 15.1625C29.4423 16.4419 28.5394 17.2706 27.3185 18.1168C26.9747 18.3545 26.6117 18.5744 26.2248 18.7321C26.0567 18.801 25.8618 18.7833 25.7097 18.6789C25.0374 18.2179 22.905 17.0384 21.9126 17.6493C21.4299 17.948 21.1724 18.359 21.1475 18.871C21.1034 19.7939 21.821 20.9157 23.0677 21.873C24.3478 22.856 26.6074 23.1325 28.5609 22.5472C29.952 22.1307 31.8042 21.1067 32.7308 18.6C32.8385 18.3045 33.1607 18.1579 33.4421 18.2712C33.7275 18.3823 33.8698 18.7111 33.7609 19.0043C32.912 21.3023 31.175 22.9482 28.869 23.6391C28.0781 23.8767 27.2517 23.9922 26.4436 23.9922C24.9049 23.9922 23.434 23.5736 22.4082 22.786C20.8426 21.5831 19.9817 20.1361 20.0464 18.8144C20.0894 17.9258 20.5505 17.1661 21.3458 16.6741Z" fill="#121716"/>
<path fill-rule="evenodd" clip-rule="evenodd" d="M8.72368 28.2562C10.5319 30.1199 10.9327 32.7322 9.61593 34.0883C8.29918 35.4455 5.76484 35.0356 3.95677 33.1708C2.1487 31.3049 1.74788 28.6949 3.0668 27.3376C4.38138 25.9794 6.91573 26.3914 8.72368 28.2562Z" fill="#828D8C"/>
<path fill-rule="evenodd" clip-rule="evenodd" d="M8.11499 30.4174C9.10844 31.4437 9.27225 32.9385 8.47819 33.7581C7.68292 34.578 6.23036 34.4114 5.23583 33.3851C4.24021 32.3578 4.07652 30.8617 4.87167 30.0419C5.66681 29.2223 7.11937 29.3911 8.11499 30.4174Z" fill="#EDEDEA"/>
<path fill-rule="evenodd" clip-rule="evenodd" d="M5.09248 27.1055C4.42329 27.1055 3.85865 27.3244 3.45676 27.7398C2.94717 28.264 2.74346 29.0581 2.88467 29.9755C3.03442 30.9585 3.55375 31.9503 4.34685 32.7689C5.86827 34.3393 8.1709 34.7757 9.22589 33.6862C9.73439 33.1619 9.93702 32.369 9.79689 31.4515C9.64605 30.4675 9.12673 29.4757 8.33363 28.6584C7.39078 27.6865 6.17967 27.1055 5.09248 27.1055ZM7.588 35.4577C6.19373 35.4577 4.72832 34.7702 3.56673 33.5729C2.60981 32.5866 1.98064 31.3705 1.79423 30.1521C1.59701 28.866 1.91057 27.7232 2.67675 26.9357C3.28874 26.3026 4.12378 25.9683 5.09248 25.9683C6.48566 25.9683 7.95228 26.6557 9.11375 27.8541C10.0707 28.8405 10.6998 30.0544 10.8862 31.2739C11.0835 32.5601 10.771 33.7028 10.0059 34.4904C9.39174 35.1234 8.55561 35.4577 7.588 35.4577Z" fill="#121716"/>
<path fill-rule="evenodd" clip-rule="evenodd" d="M25.2507 28.2562C23.4426 30.1199 23.0418 32.7322 24.3586 34.0883C25.6753 35.4455 28.2095 35.0356 30.0177 33.1708C31.8258 31.3049 32.2266 28.6949 30.9077 27.3376C29.5931 25.9794 27.0588 26.3914 25.2507 28.2562Z" fill="#828D8C"/>
<path fill-rule="evenodd" clip-rule="evenodd" d="M25.8595 30.4174C24.8662 31.4437 24.7023 32.9385 25.4966 33.7581C26.2917 34.578 27.7441 34.4114 28.7387 33.3851C29.7343 32.3578 29.8981 30.8617 29.1028 30.0419C28.3077 29.2223 26.8551 29.3911 25.8595 30.4174Z" fill="#EDEDEA"/>
<path fill-rule="evenodd" clip-rule="evenodd" d="M25.6408 28.6584C24.8477 29.4757 24.3284 30.4675 24.1774 31.4515C24.0374 32.369 24.24 33.1619 24.7485 33.6862C25.8034 34.7757 28.106 34.3393 29.6276 32.7689C30.4206 31.9503 30.94 30.9585 31.0897 29.9755C31.2308 29.0581 31.0272 28.264 30.5175 27.7398C30.1156 27.3244 29.551 27.1055 28.8819 27.1055C27.7947 27.1055 26.5836 27.6865 25.6408 28.6584ZM23.9684 34.4904C23.2034 33.7028 22.8909 32.5601 23.0882 31.2739C23.2745 30.0544 23.9039 28.8405 24.8607 27.8541C26.0223 26.6557 27.4888 25.9683 28.8819 25.9683C29.8505 25.9683 30.6857 26.3026 31.2977 26.9357C32.0638 27.7232 32.3774 28.866 32.1802 30.1521C31.9938 31.3705 31.3645 32.5866 30.4077 33.5729C29.2461 34.7702 27.7806 35.4577 26.3864 35.4577C25.4188 35.4577 24.5826 35.1234 23.9684 34.4904Z" fill="#121716"/>
<path fill-rule="evenodd" clip-rule="evenodd" d="M20.4493 1.22406C20.4752 1.13969 20.5021 1.05756 20.5258 0.968613C19.3793 0.709949 18.1973 0.568848 16.9873 0.568848C15.7771 0.568848 14.5952 0.709949 13.4487 0.968613C13.4725 1.05756 13.4994 1.13969 13.5252 1.22406L12.9229 1.33295L13.0069 1.59731L13.0338 1.80382C13.2095 1.74052 13.3959 1.69939 13.5953 1.69939C13.9152 1.69939 14.2535 1.83504 14.5176 2.01492C15.511 2.70345 16.2384 3.63194 16.7297 4.68382C16.7846 4.76484 16.8644 4.82926 16.9775 4.82926C17.1025 4.82926 17.192 4.75381 17.2459 4.66053H17.2545C17.747 3.61869 18.47 2.69911 19.457 2.01492C19.7209 1.83504 20.0592 1.69939 20.3793 1.69939C20.5787 1.69939 20.7649 1.74052 20.9407 1.80382L20.9676 1.59731L21.0516 1.33295L20.4493 1.22406Z" fill="#121716"/>
</svg>
